<svg width="255" height="192" viewBox="0 0 255 192" fill="none" xmlns="http://www.w3.org/2000/svg">
<path d="M178.081 46.2112L177.997 49.1184C177.975 49.8876 178.13 50.6515 178.452 51.3507L181.783 58.6012C184.151 63.7555 191.914 61.6084 191.297 55.9697L190.727 50.7687C190.657 50.1268 190.463 49.5045 190.156 48.9364L187.479 43.9796C185.048 39.4804 178.23 41.0996 178.081 46.2112Z" fill="white" stroke="black"/>
<path d="M140.761 135.008L149.445 136.394C148.308 137.671 148.459 139.636 149.777 140.726L150.679 141.472L156.173 141.268C158.147 141.194 160.072 140.631 161.774 139.628L163.321 138.717C164.007 138.312 164.58 137.74 164.985 137.053C165.97 135.381 165.826 133.276 164.623 131.753L163.449 130.268L153.87 128.256C152.78 128.027 151.667 127.929 150.555 127.964L142.776 128.207C142.206 128.225 141.644 128.352 141.121 128.58L139.811 129.153C137.654 130.097 137.351 133.033 139.269 134.398C139.713 134.713 140.223 134.922 140.761 135.008Z" fill="black"/>
<path d="M64.0853 123.542L65.0815 138.835L75.6857 138.933L85.9676 143.16L84.9376 119.667L64.0853 123.542Z" fill="white" stroke="black"/>
<path d="M109.966 128L111.081 147.835L121.685 147.933L131.967 152.16L129.966 123.5L109.966 128Z" fill="white" stroke="black"/>
<path d="M180.306 118.489L181.422 138.324L192.026 138.422L202.308 142.649L200.306 113.989L180.306 118.489Z" fill="white" stroke="black"/>
<path d="M195.783 114.849L193.85 119.768C193.332 121.086 192.372 122.182 191.134 122.868C190.023 123.484 188.748 123.738 187.486 123.593L184.164 123.213L184.324 124.426C184.814 128.148 182.282 131.595 178.583 132.238L177.293 132.462C176.962 132.52 176.627 132.554 176.29 132.563L174.131 132.624C171.576 132.695 169.185 131.369 167.894 129.163L167.555 128.584L166.912 131.043C166.23 133.651 164.393 135.805 161.925 136.89C157.362 138.896 152.044 136.729 150.184 132.105L148.678 128.364L148.36 128.561C143.022 131.866 136.022 130.317 132.577 125.068L119.755 126.994L136.711 46.5398L138.093 45.6716C140.614 44.088 143.486 43.1485 146.456 42.9359L147.105 42.8894C148.855 42.7641 150.613 42.9557 152.296 43.455C155.785 44.4909 158.762 46.7948 160.639 49.9138L161.793 51.8319L164.752 51.0237C169.353 49.767 174.219 49.8575 178.77 51.2847L180.191 51.7303C182.677 52.5099 184.966 53.8173 186.901 55.5629C189.014 57.4699 190.647 59.8484 191.669 62.5052L194.598 70.1238L195.718 70.2519C198.826 70.6074 201.445 72.738 202.424 75.7095C202.788 76.8118 202.908 77.98 202.776 79.1332L202.32 83.1237C204.731 83.7091 206.8 85.2491 208.054 87.3902L208.782 88.6347C209.418 89.7209 209.887 90.8965 210.173 92.1222L210.237 92.3984C210.969 95.5383 210.628 98.833 209.267 101.756L208.155 104.147L210.071 108.364C211.052 110.523 210.902 113.029 209.669 115.056C208.641 116.747 206.954 117.94 205.017 118.348C203.151 118.742 201.2 118.379 199.602 117.337L195.783 114.849Z" fill="white" stroke="black"/>
<path d="M58.2243 29.3238L51.4601 29.0037C50.68 28.9668 49.8983 28.9953 49.1229 29.0887L40.4308 30.1365C39.4535 30.2543 38.4913 30.4749 37.5603 30.7945L28.7183 33.8302C27.7974 34.1464 26.9119 34.5578 26.0763 35.0577L18.9656 39.3122C18.0756 39.8447 17.2537 40.4836 16.5182 41.2147C14.1501 43.5687 12.7975 46.756 12.7499 50.0947L12.7484 50.1999L21.8753 52.1795C22.71 52.3605 23.5595 52.4648 24.4132 52.491L31.913 52.7213C34.4891 52.8004 37.037 52.1669 39.276 50.8905L49.7502 44.9197C53.0027 43.0656 55.377 39.9861 56.3429 36.3691L58.2243 29.3238Z" fill="black" stroke="white"/>
<path d="M25.1287 68.674L23.4102 69.3937C17.646 71.8078 15.4263 78.8179 18.7504 84.1097C19.9507 86.0206 21.7553 87.4754 23.8774 88.2429L129.034 126.277C131.158 127.046 133.471 127.116 135.638 126.478L135.99 126.374C141.226 124.832 144.327 119.45 143.034 114.147L144.532 112.841C149.851 108.205 150.168 100.045 145.223 95.0105C149.266 90.7338 150.497 84.5163 148.388 79.0216L138.566 53.4352C138.204 52.4939 137.922 51.5241 137.722 50.5359C135.808 41.0799 126.822 34.7807 117.28 36.2057L114.09 36.6821L112.551 34.072C104.754 20.8446 87.1154 17.467 74.9832 26.8782C66.9002 22.6796 56.9908 26.8575 54.3537 35.5757L53.1937 39.4109L51.6407 39.07C43.3522 37.2506 35.7281 44.1117 36.6667 52.5455C29.4523 51.7204 23.4382 58.0001 24.5741 65.1721L25.1287 68.674Z" fill="white" stroke="black"/>
<path d="M138.248 78.6216L137.154 78.0018C133.758 76.0797 130.847 73.4065 128.643 70.1867L128.437 69.8857C127.215 68.0994 126.25 66.1496 125.572 64.0939C124.819 61.809 124.428 59.42 124.415 57.014L124.401 54.583L124.368 48.5208L129.279 49.8935C133.8 51.157 138.074 53.1765 141.921 55.8667C145.209 58.1667 148.148 60.9307 150.645 64.0725L150.966 64.477C154.15 68.4836 156.63 73.0024 158.299 77.8403L159.781 82.1359L157.023 82.4487C150.518 83.1865 143.946 81.8468 138.248 78.6216Z" fill="black" stroke="black"/>
<path d="M37.964 62.3866L38.0676 62.4179C43.9218 64.1887 50.1873 61.3853 52.7682 55.8403L57.5814 58.7947C62.0316 61.5262 67.8636 59.337 69.4172 54.3518C72.9603 65.7176 85.7978 71.2543 96.4959 66.0306L100.281 64.1824C101.669 69.8741 106.457 74.0975 112.277 74.7632L116.464 75.242C112.727 81.6438 114.568 89.8448 120.683 94.0351L125.115 97.0722C122.271 101.223 123.494 106.911 127.794 109.525L131.661 111.876L129.097 117.67C128.63 118.723 128.016 119.704 127.273 120.583C113.378 134.585 93.0599 140.095 73.9952 135.029L42.3811 126.63C39.1799 125.78 36.1347 124.425 33.3597 122.616L29.4942 120.098C18.6113 113.006 14.6565 98.9548 20.2428 87.2277L23.0676 81.2977C24.3975 78.5059 26.8395 76.4015 29.7972 75.4987C33.9922 74.2183 37.0279 70.5714 37.5263 66.2138L37.964 62.3866Z" fill="#111010" stroke="black"/>
<path d="M64.8375 146.002L56.7684 145.772C53.2862 145.673 51.7402 141.349 54.3704 139.065C54.6484 138.823 54.9598 138.623 55.295 138.471L60.3125 136.19C61.1815 135.795 62.1078 135.541 63.0568 135.437L71.4992 134.512C72.4674 134.405 73.4464 134.457 74.3981 134.665L82.6032 136.455C84.7949 136.933 86.5146 138.632 87.0193 140.818C87.507 142.931 86.7762 145.139 85.1244 146.543L82.6698 148.63C81.7887 149.379 80.7716 149.951 79.6739 150.316L74.199 152.132L69.0731 153.41C64.7323 154.492 61.703 149.194 64.8375 146.002Z" fill="black"/>
<path d="M111.895 156.912L104.161 157.811C100.913 158.189 98.8995 154.372 101.046 151.904C101.272 151.643 101.535 151.417 101.827 151.232L106.181 148.464C106.979 147.956 107.853 147.578 108.77 147.342L116.491 145.36C117.42 145.121 118.381 145.033 119.338 145.097L127.369 145.642C129.451 145.783 131.269 147.103 132.046 149.04C132.815 150.952 132.435 153.135 131.066 154.676L129.141 156.843C128.374 157.708 127.447 158.416 126.411 158.93L121.59 161.321L116.818 163.255C112.917 164.836 109.396 160.299 111.895 156.912Z" fill="black"/>
<path d="M177.761 143.008L186.445 144.393C185.308 145.67 185.459 147.636 186.777 148.726L187.679 149.471L193.173 149.268C195.147 149.194 197.072 148.631 198.774 147.628L200.321 146.717C201.007 146.312 201.58 145.74 201.985 145.053C202.97 143.381 202.826 141.276 201.623 139.753L200.449 138.268L190.87 136.256C189.78 136.027 188.667 135.929 187.555 135.964L179.776 136.207C179.206 136.225 178.644 136.351 178.121 136.58L176.811 137.153C174.654 138.097 174.351 141.033 176.269 142.398C176.713 142.713 177.223 142.922 177.761 143.008Z" fill="black"/>
<path d="M50.9439 113.623C52.1522 113.761 55.7758 113.51 56.0434 115.123C56.6207 118.602 54.1462 117.45 52.8012 119.139C50.5411 121.978 44.3932 112.284 52.1738 113.174" stroke="white" stroke-linecap="round"/>
<circle cx="9" cy="9" r="9" transform="matrix(-0.894743 -0.446581 -0.446581 0.894743 99.3054 106.173)" fill="white"/>
<circle cx="9" cy="9" r="9" transform="matrix(-0.894743 -0.446581 -0.446581 0.894743 99.3054 106.173)" fill="white"/>
<circle cx="9" cy="9" r="9" transform="matrix(-0.894743 -0.446581 -0.446581 0.894743 99.3054 106.173)" fill="white"/>
<circle cx="9" cy="9" r="9" transform="matrix(-0.894743 -0.446581 -0.446581 0.894743 99.3054 106.173)" fill="white"/>
<ellipse cx="4.5287" cy="6.00351" rx="4.5287" ry="6.00351" transform="matrix(-0.984808 -0.173648 -0.173648 0.984808 88.5996 104.373)" fill="black"/>
<path d="M91.1711 122.471C91.3644 121.94 87.2967 119.879 84.6377 118.826C81.6752 117.653 78.8887 116.752 76.0888 115.921" stroke="black" stroke-opacity="0.9" stroke-width="2" stroke-linecap="round"/>
<circle cx="38.9656" cy="95" r="9" fill="white"/>
<circle cx="38.9656" cy="95" r="9" fill="white"/>
<circle cx="38.9656" cy="95" r="9" fill="white"/>
<circle cx="38.9656" cy="95" r="9" fill="white"/>
<ellipse cx="4.87284" cy="5.79863" rx="4.87284" ry="5.79863" transform="matrix(-0.984808 -0.173648 -0.173648 0.984808 41.5771 89.6925)" fill="black"/>
<path d="M29.9656 104.215C30.0298 103.653 34.5894 103.626 37.4387 103.872C40.6134 104.145 43.5092 104.583 46.3854 105.09" stroke="black" stroke-opacity="0.9" stroke-width="2" stroke-linecap="round"/>
<path d="M77 140.621C77.228 140.884 77.5372 140.93 77.8208 141.093C78.2335 141.33 78.7135 141.638 79.0721 141.968C79.6143 142.466 80.6755 142.623 81.3293 142.842C82.5387 143.248 84.2901 142.829 85.3283 142.066C85.8412 141.688 87 140.774 87 140" stroke="#605858" stroke-linecap="round"/>
</svg>
