<svg width="255" height="192" viewBox="0 0 255 192" fill="none" xmlns="http://www.w3.org/2000/svg">
<g clip-path="url(#clip0_292_123)">
<path d="M178.081 42.2112L177.997 45.1184C177.975 45.8876 178.13 46.6515 178.452 47.3507L181.783 54.6012C184.151 59.7555 191.914 57.6084 191.297 51.9697L190.727 46.7687C190.657 46.1268 190.463 45.5045 190.156 44.9364L187.479 39.9796C185.048 35.4804 178.23 37.0996 178.081 42.2112Z" fill="white" stroke="black"/>
<path d="M140.761 131.008L149.445 132.394C148.308 133.671 148.459 135.636 149.777 136.726L150.679 137.472L156.173 137.268C158.147 137.194 160.072 136.631 161.774 135.628L163.321 134.717C164.007 134.312 164.58 133.74 164.985 133.053C165.97 131.381 165.826 129.276 164.623 127.753L163.449 126.268L153.87 124.256C152.78 124.027 151.667 123.929 150.555 123.964L142.776 124.207C142.206 124.225 141.644 124.352 141.121 124.58L139.811 125.153C137.654 126.097 137.351 129.033 139.269 130.398C139.713 130.713 140.223 130.922 140.761 131.008Z" fill="black"/>
<path d="M64.0853 119.542L65.0815 134.835L75.6857 134.933L85.9676 139.16L84.9376 115.667L64.0853 119.542Z" fill="white" stroke="black"/>
<path d="M109.966 124L111.081 143.835L121.685 143.933L131.967 148.16L129.966 119.5L109.966 124Z" fill="white" stroke="black"/>
<path d="M180.306 114.489L181.422 134.324L192.026 134.422L202.308 138.649L200.306 109.989L180.306 114.489Z" fill="white" stroke="black"/>
<path d="M195.783 110.849L193.85 115.768C193.332 117.086 192.372 118.182 191.134 118.868C190.023 119.484 188.748 119.738 187.486 119.593L184.164 119.213L184.324 120.426C184.814 124.148 182.282 127.595 178.583 128.238L177.293 128.462C176.962 128.52 176.627 128.554 176.29 128.563L174.131 128.624C171.576 128.695 169.185 127.369 167.894 125.163L167.555 124.584L166.912 127.043C166.23 129.651 164.393 131.805 161.925 132.89C157.362 134.896 152.044 132.729 150.184 128.105L148.678 124.364L148.36 124.561C143.022 127.866 136.022 126.317 132.577 121.068L119.755 122.994L136.711 42.5398L138.093 41.6716C140.614 40.088 143.486 39.1485 146.456 38.9359L147.105 38.8894C148.855 38.7641 150.613 38.9557 152.296 39.455C155.785 40.4909 158.762 42.7948 160.639 45.9138L161.793 47.8319L164.752 47.0237C169.353 45.767 174.219 45.8575 178.77 47.2847L180.191 47.7303C182.677 48.5099 184.966 49.8173 186.901 51.5629C189.014 53.4699 190.647 55.8484 191.669 58.5052L194.598 66.1238L195.718 66.2519C198.826 66.6074 201.445 68.738 202.424 71.7095C202.788 72.8118 202.908 73.98 202.776 75.1332L202.32 79.1237C204.731 79.7091 206.8 81.2491 208.054 83.3902L208.782 84.6347C209.418 85.7209 209.887 86.8965 210.173 88.1222L210.237 88.3984C210.969 91.5383 210.628 94.833 209.267 97.756L208.155 100.147L210.071 104.364C211.052 106.523 210.902 109.029 209.669 111.056C208.641 112.747 206.954 113.94 205.017 114.348C203.151 114.742 201.2 114.379 199.602 113.337L195.783 110.849Z" fill="white" stroke="black"/>
<path d="M58.2243 25.3238L51.4601 25.0037C50.68 24.9668 49.8983 24.9953 49.1229 25.0887L40.4308 26.1365C39.4535 26.2543 38.4913 26.4749 37.5603 26.7945L28.7183 29.8302C27.7974 30.1464 26.9119 30.5578 26.0763 31.0577L18.9656 35.3122C18.0756 35.8447 17.2537 36.4836 16.5182 37.2147C14.1501 39.5687 12.7975 42.756 12.7499 46.0947L12.7484 46.1999L21.8753 48.1795C22.71 48.3605 23.5595 48.4648 24.4132 48.491L31.913 48.7213C34.4891 48.8004 37.037 48.1669 39.276 46.8905L49.7502 40.9197C53.0027 39.0656 55.377 35.9861 56.3429 32.3691L58.2243 25.3238Z" fill="black" stroke="white"/>
<path d="M25.1287 64.674L23.4102 65.3937C17.646 67.8078 15.4263 74.8179 18.7504 80.1097C19.9507 82.0206 21.7553 83.4754 23.8774 84.2429L129.034 122.277C131.158 123.046 133.471 123.116 135.638 122.478L135.99 122.374C141.226 120.832 144.327 115.45 143.034 110.147L144.532 108.841C149.851 104.205 150.168 96.0452 145.223 91.0105C149.266 86.7338 150.497 80.5163 148.388 75.0216L138.566 49.4352C138.204 48.4939 137.922 47.5241 137.722 46.5359C135.808 37.0799 126.822 30.7807 117.28 32.2057L114.09 32.6821L112.551 30.072C104.754 16.8446 87.1154 13.467 74.9832 22.8782C66.9002 18.6796 56.9908 22.8575 54.3537 31.5757L53.1937 35.4109L51.6407 35.07C43.3522 33.2506 35.7281 40.1117 36.6667 48.5455C29.4523 47.7204 23.4382 54.0001 24.5741 61.1721L25.1287 64.674Z" fill="white" stroke="black"/>
<path d="M138.248 74.6216L137.154 74.0018C133.758 72.0797 130.847 69.4065 128.643 66.1867L128.437 65.8857C127.215 64.0994 126.25 62.1496 125.572 60.0939C124.819 57.809 124.428 55.42 124.415 53.014L124.401 50.583L124.368 44.5208L129.279 45.8935C133.8 47.157 138.074 49.1765 141.921 51.8667C145.209 54.1667 148.148 56.9307 150.645 60.0725L150.966 60.477C154.15 64.4836 156.63 69.0024 158.299 73.8403L159.781 78.1359L157.023 78.4487C150.518 79.1865 143.946 77.8468 138.248 74.6216Z" fill="black" stroke="black"/>
<path d="M37.964 58.3866L38.0676 58.4179C43.9218 60.1887 50.1873 57.3853 52.7682 51.8403L57.5814 54.7947C62.0316 57.5262 67.8636 55.337 69.4172 50.3518C72.9603 61.7176 85.7978 67.2543 96.4959 62.0306L100.281 60.1824C101.669 65.8741 106.457 70.0975 112.277 70.7632L116.464 71.242C112.727 77.6438 114.568 85.8448 120.683 90.0351L125.115 93.0722C122.271 97.2229 123.494 102.911 127.794 105.525L131.661 107.876L129.097 113.67C128.63 114.723 128.016 115.704 127.273 116.583C113.378 130.585 93.0599 136.095 73.9952 131.029L42.3811 122.63C39.1799 121.78 36.1347 120.425 33.3597 118.616L29.4942 116.098C18.6113 109.006 14.6565 94.9548 20.2428 83.2277L23.0676 77.2977C24.3975 74.5059 26.8395 72.4015 29.7972 71.4987C33.9922 70.2183 37.0279 66.5714 37.5263 62.2138L37.964 58.3866Z" fill="#111010" stroke="black"/>
<path d="M64.8375 142.002L56.7684 141.772C53.2862 141.673 51.7402 137.349 54.3704 135.065C54.6484 134.823 54.9598 134.623 55.295 134.471L60.3125 132.19C61.1815 131.795 62.1078 131.541 63.0568 131.437L71.4992 130.512C72.4674 130.405 73.4464 130.457 74.3981 130.665L82.6032 132.455C84.7949 132.933 86.5146 134.632 87.0193 136.818C87.507 138.931 86.7762 141.139 85.1244 142.543L82.6698 144.63C81.7887 145.379 80.7716 145.951 79.6739 146.316L74.199 148.132L69.0731 149.41C64.7323 150.492 61.703 145.194 64.8375 142.002Z" fill="black"/>
<path d="M111.895 152.912L104.161 153.811C100.913 154.189 98.8995 150.372 101.046 147.904C101.272 147.643 101.535 147.417 101.827 147.232L106.181 144.464C106.979 143.956 107.853 143.578 108.77 143.342L116.491 141.36C117.42 141.121 118.381 141.033 119.338 141.097L127.369 141.642C129.451 141.783 131.269 143.103 132.046 145.04C132.815 146.952 132.435 149.135 131.066 150.676L129.141 152.843C128.374 153.708 127.447 154.416 126.411 154.93L121.59 157.321L116.818 159.255C112.917 160.836 109.396 156.299 111.895 152.912Z" fill="black"/>
<path d="M177.761 139.008L186.445 140.393C185.308 141.67 185.459 143.636 186.777 144.726L187.679 145.471L193.173 145.268C195.147 145.194 197.072 144.631 198.774 143.628L200.321 142.717C201.007 142.312 201.58 141.74 201.985 141.053C202.97 139.381 202.826 137.276 201.623 135.753L200.449 134.268L190.87 132.256C189.78 132.027 188.667 131.929 187.555 131.964L179.776 132.207C179.206 132.225 178.644 132.351 178.121 132.58L176.811 133.153C174.654 134.097 174.351 137.033 176.269 138.398C176.713 138.713 177.223 138.922 177.761 139.008Z" fill="black"/>
<path d="M50.9439 109.623C52.1522 109.761 55.7758 109.51 56.0434 111.123C56.6207 114.602 54.1462 113.45 52.8012 115.139C50.5411 117.978 44.3932 108.284 52.1738 109.174" stroke="white" stroke-linecap="round"/>
<circle cx="9" cy="9" r="9" transform="matrix(-0.894743 -0.446581 -0.446581 0.894743 99.3054 102.173)" fill="white"/>
<circle cx="9" cy="9" r="9" transform="matrix(-0.894743 -0.446581 -0.446581 0.894743 99.3054 102.173)" fill="white"/>
<circle cx="9" cy="9" r="9" transform="matrix(-0.894743 -0.446581 -0.446581 0.894743 99.3054 102.173)" fill="white"/>
<circle cx="9" cy="9" r="9" transform="matrix(-0.894743 -0.446581 -0.446581 0.894743 99.3054 102.173)" fill="white"/>
<ellipse cx="4.5287" cy="6.00351" rx="4.5287" ry="6.00351" transform="matrix(-0.984808 -0.173648 -0.173648 0.984808 88.5996 100.373)" fill="black"/>
<path d="M91.1711 118.471C91.3644 117.94 87.2967 115.879 84.6377 114.826C81.6752 113.653 78.8887 112.752 76.0888 111.921" stroke="black" stroke-opacity="0.9" stroke-width="2" stroke-linecap="round"/>
<circle cx="38.9656" cy="91" r="9" fill="white"/>
<circle cx="38.9656" cy="91" r="9" fill="white"/>
<circle cx="38.9656" cy="91" r="9" fill="white"/>
<circle cx="38.9656" cy="91" r="9" fill="white"/>
<ellipse cx="4.87284" cy="5.79863" rx="4.87284" ry="5.79863" transform="matrix(-0.984808 -0.173648 -0.173648 0.984808 41.5771 85.6925)" fill="black"/>
<path d="M29.9656 100.215C30.0298 99.6533 34.5894 99.6264 37.4387 99.8716C40.6134 100.145 43.5092 100.583 46.3854 101.09" stroke="black" stroke-opacity="0.9" stroke-width="2" stroke-linecap="round"/>
<path d="M54 120.621C54.228 120.884 54.5372 120.93 54.8208 121.093C55.2335 121.33 55.7135 121.638 56.0721 121.968C56.6143 122.466 57.6755 122.623 58.3293 122.842C59.5387 123.248 61.2901 122.829 62.3283 122.066C62.8412 121.688 64 120.774 64 120" stroke="#605858" stroke-linecap="round"/>
</g>
<defs>
<clipPath id="clip0_292_123">
<rect width="255" height="192" fill="white"/>
</clipPath>
</defs>
</svg>
