<svg width="1194" height="1131" viewBox="0 0 1194 1131" fill="none" xmlns="http://www.w3.org/2000/svg">
<path d="M350 651.5C350 724.125 291.349 783 219 783C146.651 783 88 724.125 88 651.5C88 578.875 146.651 520 219 520C291.349 520 350 578.875 350 651.5Z" fill="url(#paint0_linear_566_387)" fill-opacity="0.8"/>
<path d="M950.752 1045.6L952.191 1073.49L965.874 1073.62L979.142 1079.57L976.56 1039.27L950.752 1045.6Z" fill="white" stroke="black"/>
<path d="M946.802 937.702L946.511 948.612C946.492 949.333 946.628 950.052 946.91 950.72L955.173 970.318C957.417 975.638 965.3 973.748 964.726 968.028L962.908 949.937C962.847 949.328 962.676 948.733 962.402 948.181L956.246 935.765C953.917 931.067 946.94 932.498 946.802 937.702Z" fill="white" stroke="black"/>
<path d="M946.395 1080.1L957.428 1082.02C955.927 1083.86 956.159 1086.58 957.953 1088.2L959.019 1089.16L966.258 1088.87C968.703 1088.77 971.067 1088.03 973.113 1086.71L973.337 1086.57L975.221 1085.36C976.181 1084.74 976.968 1083.89 977.513 1082.89C978.78 1080.54 978.574 1077.65 976.984 1075.46L975.498 1073.41L962.8 1070.5C961.619 1070.23 960.41 1070.12 959.205 1070.16L949.003 1070.5C948.148 1070.53 947.312 1070.74 946.545 1071.1L944.848 1071.91C942.015 1073.26 941.65 1077.16 944.173 1079.12C944.825 1079.62 945.589 1079.96 946.395 1080.1Z" fill="black" stroke="white" stroke-width="0.5"/>
<path d="M898.651 1068.85L909.683 1070.77C908.182 1072.61 908.414 1075.34 910.208 1076.95L911.274 1077.91L918.514 1077.62C920.958 1077.52 923.322 1076.78 925.368 1075.46L925.592 1075.32L927.476 1074.11C928.436 1073.49 929.224 1072.65 929.768 1071.64C931.035 1069.29 930.829 1066.4 929.239 1064.21L927.754 1062.16L915.055 1059.25C913.874 1058.98 912.665 1058.87 911.46 1058.91L901.258 1059.26C900.403 1059.28 899.567 1059.49 898.8 1059.85L897.103 1060.66C894.27 1062.01 893.905 1065.92 896.428 1067.87C897.08 1068.38 897.844 1068.71 898.651 1068.85Z" fill="black" stroke="white" stroke-width="0.5"/>
<path d="M799.534 1052.7L800.82 1074.21L814.503 1074.34L827.771 1080.29L826.442 1047.25L799.534 1052.7Z" fill="white" stroke="black"/>
<path d="M858.738 1058.97L860.177 1086.86L873.861 1087L887.129 1092.94L884.546 1052.64L858.738 1058.97Z" fill="white" stroke="black"/>
<path d="M969.477 1040.48L966.887 1047.66C966.279 1049.35 965.118 1050.76 963.593 1051.69C962.09 1052.59 960.319 1052.97 958.56 1052.75L954.483 1052.24L955.046 1056.89C955.485 1060.52 953.088 1063.83 949.532 1064.5L945.508 1065.27C945.153 1065.33 944.794 1065.37 944.432 1065.38L940.57 1065.5C937.892 1065.58 935.376 1064.12 934.093 1061.73L933.052 1059.79L932.05 1063.97C931.276 1067.19 929.111 1069.88 926.139 1071.3C920.195 1074.15 913.005 1071.16 910.683 1064.87L908.693 1059.48L908.498 1059.61C901.658 1064.23 892.254 1062.05 887.915 1054.85L871.37 1057.56L893.25 944.436L895.249 943.068C898.356 940.942 901.973 939.67 905.749 939.375L906.554 939.312C908.881 939.131 911.229 939.41 913.466 940.133C917.89 941.564 921.624 944.649 923.884 948.741L925.617 951.877L929.417 950.746C935.345 948.982 941.706 949.12 947.623 951.142L949.041 951.626C952.453 952.792 955.57 954.719 958.155 957.26C960.791 959.852 962.802 963.013 964.03 966.493L967.947 977.596L968.723 977.692C973.118 978.24 976.812 981.368 978.104 985.637C978.536 987.066 978.679 988.562 978.524 990.036L977.912 995.874C981.012 996.694 983.65 998.783 985.178 1001.63L986.329 1003.77C987.098 1005.2 987.661 1006.73 988 1008.31L988.144 1008.99C989.083 1013.37 988.651 1017.92 986.909 1022L985.441 1025.43L987.982 1031.53C989.217 1034.49 989.039 1037.83 987.499 1040.59L987.206 1041.11C986.001 1043.27 983.946 1044.81 981.533 1045.37C979.048 1045.94 976.418 1045.41 974.309 1043.91L969.477 1040.48Z" fill="white" stroke="black"/>
<path d="M791.971 920.23L782.997 919.767C782.154 919.724 781.31 919.757 780.476 919.867L768.671 921.417C767.636 921.553 766.622 921.806 765.647 922.17L753.519 926.707C752.582 927.058 751.687 927.51 750.85 928.055L741 934.477C740.058 935.091 739.197 935.819 738.435 936.645L736.96 938.242C734.658 940.735 733.362 944.006 733.317 947.437L733.289 949.582L745.324 952.426C746.229 952.64 747.152 952.764 748.078 952.795L758.92 953.157C761.648 953.249 764.328 952.536 766.63 951.106L782.869 941.019C785.903 939.135 788.073 936.135 788.929 932.643L791.971 920.23Z" fill="black" stroke="white"/>
<path d="M749.265 975.557L747.121 976.535C739.446 980.037 736.533 989.452 740.823 996.893C742.505 999.812 745.128 1002.08 748.248 1003.31L882.849 1056.35C885.897 1057.55 889.245 1057.67 892.328 1056.68C899.184 1054.48 903.18 1047.4 901.587 1040.28L901.41 1039.49L903.5 1037.51C910.449 1030.91 910.775 1019.84 904.234 1012.59C909.514 1006.5 911.092 997.98 908.37 990.254L895.585 953.963C895.158 952.751 894.825 951.509 894.591 950.248C892.133 937.015 879.533 928.058 866.388 930.197L864.06 930.575L861.843 926.478C852.191 908.637 828.8 903.941 813.597 916.791C803.334 910.983 790.54 916.183 787.417 927.433L785.48 934.412C773.863 931.634 762.938 940.977 764.153 952.88C754.765 951.71 746.963 959.721 748.33 969.127L749.265 975.557Z" fill="white" stroke="black"/>
<path d="M894.956 989.372L894.22 988.918C889.579 986.056 885.648 982.155 882.742 977.529L882.668 977.41C881.027 974.799 879.744 971.982 878.853 969.038C877.896 965.875 877.401 962.599 877.384 959.311L877.366 955.745L877.323 947.222L883.742 949.177C889.516 950.935 894.946 953.719 899.771 957.397L900.415 957.887C904.365 960.897 907.861 964.468 910.791 968.485L912.912 971.393C916.184 975.879 918.707 980.862 920.379 986.142L923.02 994.485L919.9 994.871C911.258 995.939 902.456 993.998 894.956 989.372Z" fill="black" stroke="black"/>
<path d="M784.577 958.34L784.931 957.513L790.383 961.159C796.391 965.178 804.449 962.293 806.414 955.42C810.872 971.002 828.487 978.687 842.57 971.195L846.241 969.242C848.023 977.204 854.637 983.236 862.685 984.239L867.124 984.792C862.22 993.946 864.858 1005.46 873.306 1011.77L878.287 1015.49C874.543 1021.44 876.32 1029.4 882.275 1033.35L886.734 1036.3L883.409 1044.48C882.818 1045.94 882.031 1047.31 881.071 1048.54C863.293 1068.06 835.907 1075.68 810.23 1068.25L772.339 1057.28C767.675 1055.93 763.258 1053.8 759.278 1050.97L755.904 1048.57C741.075 1038.04 735.557 1018.58 742.743 1002.14L746.726 993.029C748.366 989.278 751.503 986.412 755.381 985.122C760.768 983.331 764.584 978.56 765.181 972.871L765.827 966.717C773.382 969.207 781.481 965.589 784.577 958.34Z" fill="#111010" stroke="black"/>
<path d="M805.305 1086.62L797.365 1086.38C793.453 1086.26 791.497 1081.34 794.303 1078.69C794.6 1078.41 794.936 1078.17 795.301 1077.99L800.618 1075.36C801.487 1074.93 802.425 1074.65 803.394 1074.53L812.289 1073.47C813.314 1073.35 814.359 1073.41 815.378 1073.65L823.487 1075.58C826.066 1076.19 828.099 1078.3 828.656 1080.93C829.143 1083.22 828.426 1085.56 826.765 1087.1L823.892 1089.76C823.062 1090.53 822.088 1091.13 821.022 1091.51L815.139 1093.64L810.437 1094.92C805.69 1096.21 802.017 1090.27 805.305 1086.62Z" fill="black" stroke="white" stroke-width="0.5"/>
<path d="M862.438 1098.99L853.494 1100.12C849.187 1100.66 846.327 1095.63 849.024 1092.25C849.309 1091.89 849.644 1091.58 850.019 1091.32L855.656 1087.42C856.458 1086.86 857.346 1086.44 858.288 1086.18L868.355 1083.36C869.344 1083.09 870.376 1082.99 871.406 1083.06L880.994 1083.77C883.891 1083.98 886.42 1085.9 887.434 1088.65C888.334 1091.09 887.894 1093.8 886.277 1095.79L883.407 1099.31C882.683 1100.2 881.793 1100.93 880.786 1101.48L874.417 1104.92L869.276 1107.19C864.245 1109.41 859.352 1103.54 862.438 1098.99Z" fill="black" stroke="white" stroke-width="0.5"/>
<path d="M755.111 1005.54C754.656 1009.88 760.021 1014.78 763.622 1015.85C767.633 1017.04 771.471 1016.7 775.351 1015.81" stroke="white" stroke-linecap="round"/>
<path d="M822.282 1024.7C822.31 1027.6 831.182 1030.45 833.335 1030.72C839.166 1031.44 843.164 1030 845.83 1023.76" stroke="white" stroke-linecap="round"/>
<path d="M782.577 1038.76C784.136 1038.95 788.812 1038.6 789.157 1040.87C789.902 1045.76 786.709 1044.14 784.973 1046.51C782.057 1050.5 774.124 1036.87 784.164 1038.13" stroke="white" stroke-linecap="round"/>
<path d="M784.377 1036.6C785.279 1036.71 786.059 1037.17 786.952 1037.33C787.782 1037.49 788.864 1037.88 788.751 1038.96" stroke="white" stroke-linecap="round"/>
<ellipse cx="767.12" cy="1010.46" rx="11.6136" ry="14.7632" fill="white"/>
<ellipse cx="767.12" cy="1010.46" rx="11.6136" ry="14.7632" fill="white"/>
<ellipse cx="767.12" cy="1010.46" rx="11.6136" ry="14.7632" fill="white"/>
<ellipse cx="767.12" cy="1010.46" rx="11.6136" ry="14.7632" fill="white"/>
<path d="M845.834 1024.52C845.834 1032.68 840.634 1039.29 834.22 1039.29C827.806 1039.29 822.607 1032.68 822.607 1024.52C822.607 1016.37 827.806 1010.46 834.22 1010.46C838.737 1010.46 845.834 1016.37 845.834 1024.52Z" fill="white"/>
<path d="M845.834 1024.52C845.834 1032.68 840.634 1039.29 834.22 1039.29C827.806 1039.29 822.607 1032.68 822.607 1024.52C822.607 1016.37 827.806 1010.46 834.22 1010.46C838.737 1010.46 845.834 1016.37 845.834 1024.52Z" fill="white"/>
<path d="M845.834 1024.52C845.834 1032.68 840.634 1039.29 834.22 1039.29C827.806 1039.29 822.607 1032.68 822.607 1024.52C822.607 1016.37 827.806 1010.46 834.22 1010.46C838.737 1010.46 845.834 1016.37 845.834 1024.52Z" fill="white"/>
<path d="M845.834 1024.52C845.834 1032.68 840.634 1039.29 834.22 1039.29C827.806 1039.29 822.607 1032.68 822.607 1024.52C822.607 1016.37 827.806 1010.46 834.22 1010.46C838.737 1010.46 845.834 1016.37 845.834 1024.52Z" fill="white"/>
<ellipse cx="764.807" cy="1005.73" rx="5.8068" ry="7.7331" fill="black"/>
<ellipse cx="830.807" cy="1020.73" rx="5.8068" ry="7.7331" fill="black"/>
<path d="M547.461 1045.01L547.48 1045.02H547.5C591.586 1045.02 626.798 1038.18 651.009 1025.92C675.232 1013.66 688.5 995.941 688.5 974.208C688.5 963.021 679.934 952.434 665.88 942.993C651.799 933.534 632.075 925.134 609.456 918.352C564.216 904.788 507.278 897.663 460.459 901.56C438.138 903.418 415.173 910.735 397.774 922.999C380.37 935.267 368.5 952.515 368.5 974.208C368.5 983.123 373.783 991.527 383.072 999.209C392.366 1006.9 405.735 1013.92 422.074 1020.07C454.756 1032.38 499.431 1041.26 547.461 1045.01Z" fill="white" stroke="black"/>
<path d="M713.087 1043.61L639.426 998.203L627.471 1031.05L713.087 1043.61Z" fill="white"/>
<path d="M422.41 971.828C422.113 971.016 421.805 970.164 421.484 969.273C421.164 968.383 420.836 967.492 420.5 966.602C420.172 965.703 419.844 964.816 419.516 963.941C419.195 963.066 418.887 962.234 418.59 961.445C418.301 960.648 418.027 959.91 417.77 959.23C417.512 958.551 417.285 957.957 417.09 957.449C416.988 957.191 416.895 956.926 416.809 956.652C416.73 956.379 416.691 956.121 416.691 955.879C416.691 955.027 417.168 954.602 418.121 954.602C418.23 954.602 418.336 954.613 418.438 954.637C418.547 954.652 418.652 954.699 418.754 954.777C418.863 954.855 418.965 954.969 419.059 955.117C419.16 955.258 419.258 955.457 419.352 955.715C419.961 957.418 420.496 958.922 420.957 960.227C421.418 961.531 421.824 962.691 422.176 963.707C422.535 964.723 422.844 965.621 423.102 966.402C423.367 967.184 423.605 967.898 423.816 968.547C424.035 967.906 424.242 967.301 424.438 966.73C424.633 966.16 424.824 965.602 425.012 965.055C425.199 964.5 425.391 963.949 425.586 963.402C425.781 962.848 425.992 962.27 426.219 961.668C426.156 961.551 426.082 961.383 425.996 961.164C425.918 960.945 425.832 960.703 425.738 960.438C425.645 960.172 425.547 959.895 425.445 959.605C425.344 959.316 425.242 959.039 425.141 958.773C425.047 958.5 424.957 958.258 424.871 958.047C424.793 957.828 424.723 957.656 424.66 957.531C424.52 957.281 424.398 957.027 424.297 956.77C424.195 956.512 424.145 956.281 424.145 956.078C424.145 955.57 424.25 955.211 424.461 955C424.672 954.781 425.035 954.672 425.551 954.672C425.723 954.672 425.875 954.711 426.008 954.789C426.148 954.867 426.285 955.02 426.418 955.246C426.551 955.465 426.695 955.77 426.852 956.16C427.016 956.551 427.215 957.059 427.449 957.684C427.504 957.816 427.555 957.988 427.602 958.199C427.656 958.41 427.711 958.586 427.766 958.727C427.844 958.562 427.922 958.367 428 958.141C428.086 957.914 428.168 957.68 428.246 957.438C428.332 957.188 428.41 956.938 428.48 956.688C428.559 956.438 428.629 956.203 428.691 955.984C428.723 955.836 428.766 955.68 428.82 955.516C428.883 955.352 428.965 955.203 429.066 955.07C429.176 954.93 429.312 954.816 429.477 954.73C429.648 954.637 429.867 954.59 430.133 954.59C430.531 954.59 430.848 954.719 431.082 954.977C431.316 955.227 431.434 955.562 431.434 955.984C431.434 956.203 431.387 956.434 431.293 956.676C431.199 956.91 431.09 957.148 430.965 957.391C430.629 958.078 430.32 958.742 430.039 959.383C429.758 960.023 429.48 960.695 429.207 961.398C429.387 961.867 429.562 962.34 429.734 962.816C429.914 963.293 430.102 963.812 430.297 964.375C430.5 964.938 430.723 965.562 430.965 966.25C431.207 966.938 431.484 967.727 431.797 968.617C432.156 967.594 432.5 966.574 432.828 965.559C433.156 964.535 433.484 963.516 433.812 962.5C434.148 961.477 434.488 960.461 434.832 959.453C435.176 958.438 435.543 957.426 435.934 956.418V956.43C435.98 956.195 436.039 955.969 436.109 955.75C436.188 955.531 436.285 955.34 436.402 955.176C436.52 955.012 436.664 954.883 436.836 954.789C437.016 954.688 437.23 954.637 437.48 954.637C437.926 954.637 438.262 954.75 438.488 954.977C438.723 955.203 438.84 955.516 438.84 955.914C438.84 956.055 438.832 956.184 438.816 956.301C438.801 956.418 438.777 956.535 438.746 956.652C438.723 956.762 438.688 956.879 438.641 957.004C438.594 957.121 438.539 957.254 438.477 957.402C437.992 958.613 437.539 959.785 437.117 960.918C436.703 962.043 436.289 963.184 435.875 964.34C435.469 965.488 435.055 966.68 434.633 967.914C434.211 969.148 433.754 970.477 433.262 971.898C433.277 971.938 433.281 971.969 433.273 971.992C433.266 972.016 433.262 972.047 433.262 972.086C433.262 972.258 433.227 972.422 433.156 972.578C433.094 972.727 432.996 972.859 432.863 972.977C432.738 973.094 432.574 973.184 432.371 973.246C432.176 973.316 431.945 973.352 431.68 973.352C431.469 973.352 431.297 973.316 431.164 973.246C431.031 973.184 430.922 973.102 430.836 973C430.758 972.891 430.691 972.77 430.637 972.637C430.59 972.504 430.551 972.371 430.52 972.238V972.25C430.348 971.703 430.176 971.207 430.004 970.762C429.832 970.309 429.656 969.84 429.477 969.355C429.195 968.574 428.91 967.762 428.621 966.918C428.34 966.066 428.051 965.242 427.754 964.445C427.59 964.906 427.41 965.441 427.215 966.051C427.02 966.66 426.812 967.301 426.594 967.973C426.375 968.637 426.148 969.309 425.914 969.988C425.68 970.668 425.449 971.312 425.223 971.922C425.238 971.992 425.246 972.062 425.246 972.133C425.246 972.203 425.246 972.25 425.246 972.273C425.246 972.453 425.203 972.609 425.117 972.742C425.039 972.875 424.93 972.984 424.789 973.07C424.656 973.164 424.5 973.234 424.32 973.281C424.141 973.328 423.957 973.352 423.77 973.352C423.504 973.352 423.289 973.297 423.125 973.188C422.961 973.086 422.828 972.957 422.727 972.801C422.633 972.645 422.562 972.48 422.516 972.309C422.469 972.129 422.434 971.969 422.41 971.828ZM441.875 972.156C441.875 972.016 441.879 971.871 441.887 971.723C441.902 971.574 441.918 971.426 441.934 971.277C441.957 971.074 441.98 970.848 442.004 970.598C442.027 970.348 442.039 970.07 442.039 969.766C442.039 969.305 442.035 968.711 442.027 967.984C442.027 967.258 442.023 966.453 442.016 965.57C442.008 964.68 442 963.746 441.992 962.77C441.984 961.785 441.973 960.809 441.957 959.84C441.949 958.863 441.938 957.926 441.922 957.027C441.914 956.129 441.906 955.32 441.898 954.602C441.781 954.586 441.656 954.594 441.523 954.625C441.391 954.648 441.234 954.66 441.055 954.66C440.914 954.66 440.77 954.637 440.621 954.59C440.48 954.543 440.348 954.473 440.223 954.379C440.105 954.277 440.008 954.145 439.93 953.98C439.859 953.816 439.824 953.617 439.824 953.383C439.824 952.969 439.934 952.656 440.152 952.445C440.371 952.227 440.633 952.117 440.938 952.117C441.062 952.117 441.184 952.133 441.301 952.164C441.418 952.195 441.543 952.211 441.676 952.211C441.832 952.211 441.992 952.207 442.156 952.199C442.32 952.191 442.48 952.18 442.637 952.164C442.809 952.148 442.977 952.137 443.141 952.129C443.312 952.121 443.461 952.117 443.586 952.117C443.914 952.117 444.18 952.227 444.383 952.445C444.594 952.656 444.699 952.949 444.699 953.324C444.699 954.332 444.688 955.359 444.664 956.406C444.648 957.445 444.633 958.566 444.617 959.77L444.594 960.367C444.867 960.125 445.168 959.895 445.496 959.676C445.824 959.457 446.172 959.266 446.539 959.102C446.914 958.938 447.301 958.809 447.699 958.715C448.098 958.613 448.504 958.562 448.918 958.562C449.902 958.562 450.777 958.707 451.543 958.996C452.316 959.285 452.969 959.727 453.5 960.32C454.031 960.914 454.434 961.66 454.707 962.559C454.988 963.457 455.129 964.52 455.129 965.746C455.129 966.105 455.102 966.48 455.047 966.871C455 967.262 454.93 967.652 454.836 968.043C454.742 968.434 454.629 968.82 454.496 969.203C454.363 969.578 454.215 969.93 454.051 970.258C454.223 970.195 454.395 970.141 454.566 970.094C454.738 970.039 454.926 970.012 455.129 970.012C455.387 970.012 455.598 970.062 455.762 970.164C455.926 970.258 456.051 970.371 456.137 970.504C456.23 970.637 456.293 970.773 456.324 970.914C456.355 971.055 456.371 971.164 456.371 971.242C456.371 971.539 456.281 971.793 456.102 972.004C455.93 972.215 455.707 972.367 455.434 972.461C455.207 972.547 454.922 972.641 454.578 972.742C454.234 972.844 453.887 972.938 453.535 973.023C453.191 973.109 452.867 973.184 452.562 973.246C452.258 973.309 452.027 973.34 451.871 973.34C451.363 973.34 451 973.219 450.781 972.977C450.57 972.727 450.465 972.406 450.465 972.016C450.465 971.805 450.523 971.574 450.641 971.324C450.758 971.074 450.898 970.844 451.062 970.633C451.266 970.344 451.453 970.012 451.625 969.637C451.797 969.254 451.945 968.852 452.07 968.43C452.203 968 452.305 967.559 452.375 967.105C452.453 966.645 452.492 966.191 452.492 965.746C452.492 965.012 452.422 964.355 452.281 963.777C452.148 963.199 451.934 962.711 451.637 962.312C451.34 961.914 450.953 961.613 450.477 961.41C450.008 961.199 449.438 961.094 448.766 961.094C448.375 961.094 447.984 961.164 447.594 961.305C447.203 961.445 446.824 961.633 446.457 961.867C446.09 962.094 445.742 962.359 445.414 962.664C445.094 962.961 444.809 963.266 444.559 963.578C444.543 964.742 444.531 965.902 444.523 967.059C444.523 968.207 444.531 969.383 444.547 970.586C444.562 970.586 444.582 970.582 444.605 970.574C444.637 970.566 444.703 970.543 444.805 970.504C444.875 970.473 444.949 970.445 445.027 970.422C445.113 970.398 445.207 970.383 445.309 970.375C445.73 970.359 446.051 970.461 446.27 970.68C446.496 970.891 446.609 971.195 446.609 971.594C446.609 971.734 446.582 971.875 446.527 972.016C446.48 972.148 446.414 972.27 446.328 972.379C446.242 972.488 446.141 972.582 446.023 972.66C445.906 972.738 445.777 972.793 445.637 972.824C445.48 972.855 445.324 972.891 445.168 972.93C445.02 972.961 444.867 972.992 444.711 973.023C444.57 973.055 444.418 973.09 444.254 973.129C444.098 973.168 443.941 973.203 443.785 973.234C443.637 973.266 443.5 973.289 443.375 973.305C443.25 973.328 443.148 973.34 443.07 973.34C442.609 973.34 442.293 973.238 442.121 973.035C441.957 972.832 441.875 972.539 441.875 972.156ZM459.043 965.969C459.043 964.906 459.223 963.918 459.582 963.004C459.941 962.09 460.434 961.297 461.059 960.625C461.691 959.953 462.43 959.426 463.273 959.043C464.125 958.66 465.043 958.469 466.027 958.469C466.527 958.469 467.004 958.527 467.457 958.645C467.918 958.762 468.344 958.918 468.734 959.113C469.133 959.301 469.488 959.516 469.801 959.758C470.121 960 470.395 960.25 470.621 960.508C470.613 960.398 470.609 960.281 470.609 960.156C470.609 960.031 470.609 959.922 470.609 959.828C470.609 959.633 470.637 959.453 470.691 959.289C470.746 959.117 470.832 958.969 470.949 958.844C471.066 958.719 471.215 958.621 471.395 958.551C471.574 958.473 471.793 958.434 472.051 958.434C472.27 958.434 472.465 958.477 472.637 958.562C472.816 958.641 472.969 958.742 473.094 958.867C473.219 958.984 473.316 959.113 473.387 959.254C473.457 959.387 473.492 959.508 473.492 959.617C473.492 959.883 473.477 960.152 473.445 960.426C473.422 960.691 473.402 960.961 473.387 961.234C473.387 962.094 473.379 962.855 473.363 963.52C473.355 964.176 473.344 964.781 473.328 965.336C473.312 965.711 473.301 966.102 473.293 966.508C473.285 966.906 473.281 967.273 473.281 967.609C473.281 968.367 473.281 968.969 473.281 969.414C473.281 969.859 473.301 970.184 473.34 970.387C473.41 970.371 473.512 970.336 473.645 970.281C473.785 970.227 473.914 970.168 474.031 970.105C474.141 970.066 474.25 970.027 474.359 969.988C474.469 969.949 474.605 969.93 474.77 969.93C474.957 969.93 475.121 969.973 475.262 970.059C475.402 970.137 475.52 970.242 475.613 970.375C475.715 970.5 475.789 970.645 475.836 970.809C475.883 970.965 475.906 971.117 475.906 971.266C475.906 971.477 475.855 971.691 475.754 971.91C475.652 972.121 475.465 972.273 475.191 972.367C474.957 972.453 474.719 972.543 474.477 972.637C474.234 972.73 473.988 972.816 473.738 972.895C473.496 972.973 473.25 973.039 473 973.094C472.758 973.148 472.508 973.176 472.25 973.176C471.945 973.176 471.695 973.113 471.5 972.988C471.305 972.863 471.152 972.703 471.043 972.508C470.934 972.305 470.855 972.082 470.809 971.84C470.762 971.598 470.734 971.359 470.727 971.125C470.484 971.43 470.191 971.715 469.848 971.98C469.504 972.246 469.125 972.48 468.711 972.684C468.297 972.887 467.852 973.047 467.375 973.164C466.906 973.281 466.422 973.34 465.922 973.34C464.906 973.34 463.977 973.156 463.133 972.789C462.289 972.414 461.562 971.898 460.953 971.242C460.352 970.578 459.883 969.797 459.547 968.898C459.211 968 459.043 967.023 459.043 965.969ZM461.738 965.969C461.738 966.602 461.832 967.211 462.02 967.797C462.215 968.383 462.492 968.902 462.852 969.355C463.219 969.801 463.668 970.156 464.199 970.422C464.73 970.688 465.332 970.82 466.004 970.82C466.668 970.82 467.27 970.691 467.809 970.434C468.348 970.176 468.816 969.84 469.215 969.426C469.621 969.012 469.953 968.551 470.211 968.043C470.469 967.527 470.645 967.012 470.738 966.496V965.465C470.652 964.988 470.488 964.484 470.246 963.953C470.012 963.422 469.699 962.934 469.309 962.488C468.926 962.035 468.465 961.664 467.926 961.375C467.387 961.078 466.777 960.93 466.098 960.93C465.457 960.93 464.871 961.062 464.34 961.328C463.809 961.586 463.348 961.945 462.957 962.406C462.574 962.859 462.273 963.391 462.055 964C461.844 964.609 461.738 965.266 461.738 965.969ZM479.727 969.602L479.656 961.34L478.238 961.352C478.059 961.352 477.902 961.316 477.77 961.246C477.637 961.168 477.523 961.066 477.43 960.941C477.344 960.809 477.277 960.66 477.23 960.496C477.184 960.332 477.16 960.16 477.16 959.98C477.16 959.676 477.195 959.445 477.266 959.289C477.344 959.125 477.453 959.008 477.594 958.938C477.734 958.859 477.906 958.816 478.109 958.809C478.312 958.793 478.547 958.785 478.812 958.785H479.645V958.352C479.645 958.062 479.641 957.828 479.633 957.648C479.633 957.469 479.633 957.348 479.633 957.285C479.633 957.059 479.609 956.832 479.562 956.605C479.523 956.379 479.504 956.148 479.504 955.914C479.504 955.719 479.527 955.547 479.574 955.398C479.621 955.25 479.699 955.125 479.809 955.023C479.926 954.914 480.078 954.832 480.266 954.777C480.453 954.723 480.684 954.695 480.957 954.695C481.145 954.695 481.32 954.711 481.484 954.742C481.656 954.773 481.805 954.836 481.93 954.93C482.062 955.016 482.168 955.137 482.246 955.293C482.324 955.449 482.363 955.652 482.363 955.902C482.363 956.238 482.332 956.57 482.27 956.898C482.215 957.227 482.191 957.566 482.199 957.918V958.773C482.809 958.758 483.281 958.746 483.617 958.738C483.961 958.73 484.238 958.723 484.449 958.715C484.48 958.715 484.508 958.715 484.531 958.715C484.562 958.707 484.59 958.703 484.613 958.703C484.707 958.695 484.812 958.691 484.93 958.691C485.047 958.691 485.141 958.691 485.211 958.691C485.359 958.691 485.504 958.715 485.645 958.762C485.785 958.809 485.906 958.887 486.008 958.996C486.117 959.105 486.203 959.246 486.266 959.418C486.328 959.59 486.359 959.797 486.359 960.039C486.359 960.227 486.344 960.402 486.312 960.566C486.281 960.73 486.223 960.875 486.137 961C486.051 961.125 485.926 961.227 485.762 961.305C485.598 961.375 485.387 961.41 485.129 961.41C484.887 961.41 484.641 961.398 484.391 961.375C484.148 961.344 483.898 961.324 483.641 961.316L482.223 961.328L482.305 970.574C482.625 970.52 482.906 970.469 483.148 970.422C483.391 970.375 483.617 970.328 483.828 970.281C484.039 970.234 484.246 970.18 484.449 970.117C484.652 970.055 484.875 969.977 485.117 969.883C485.25 969.812 485.406 969.742 485.586 969.672C485.766 969.594 485.953 969.555 486.148 969.555C486.531 969.555 486.832 969.688 487.051 969.953C487.27 970.211 487.379 970.551 487.379 970.973C487.379 971.082 487.352 971.203 487.297 971.336C487.25 971.469 487.176 971.602 487.074 971.734C486.973 971.859 486.84 971.977 486.676 972.086C486.52 972.188 486.332 972.262 486.113 972.309C485.879 972.355 485.609 972.414 485.305 972.484C485 972.555 484.68 972.629 484.344 972.707C484.008 972.785 483.672 972.863 483.336 972.941C483 973.02 482.684 973.086 482.387 973.141C482.09 973.203 481.828 973.254 481.602 973.293C481.375 973.332 481.203 973.348 481.086 973.34C480.945 973.34 480.789 973.32 480.617 973.281C480.453 973.25 480.301 973.188 480.16 973.094C480.02 973.008 479.902 972.887 479.809 972.73C479.723 972.566 479.68 972.359 479.68 972.109L479.727 969.602ZM498.559 969.965C498.559 969.785 498.602 969.621 498.688 969.473C498.773 969.324 498.879 969.199 499.004 969.098C499.137 968.988 499.281 968.906 499.438 968.852C499.594 968.789 499.746 968.758 499.895 968.758C500.074 968.758 500.227 968.777 500.352 968.816C500.477 968.855 500.586 968.91 500.68 968.98C500.773 969.051 500.855 969.133 500.926 969.227C500.996 969.32 501.07 969.422 501.148 969.531C501.461 970 501.918 970.363 502.52 970.621C503.121 970.871 503.906 970.996 504.875 970.996C505.273 970.996 505.648 970.961 506 970.891C506.359 970.82 506.672 970.715 506.938 970.574C507.211 970.434 507.426 970.262 507.582 970.059C507.746 969.855 507.828 969.621 507.828 969.355C507.828 968.996 507.723 968.691 507.512 968.441C507.309 968.191 507.035 967.977 506.691 967.797C506.355 967.617 505.973 967.465 505.543 967.34C505.113 967.215 504.672 967.094 504.219 966.977C503.805 966.875 503.387 966.766 502.965 966.648C502.543 966.523 502.133 966.383 501.734 966.227C501.336 966.062 500.961 965.871 500.609 965.652C500.266 965.426 499.965 965.16 499.707 964.855C499.449 964.551 499.242 964.199 499.086 963.801C498.938 963.395 498.863 962.93 498.863 962.406C498.863 961.703 499.027 961.109 499.355 960.625C499.691 960.133 500.121 959.734 500.645 959.43C501.176 959.125 501.766 958.906 502.414 958.773C503.062 958.633 503.699 958.562 504.324 958.562C504.684 958.562 505.012 958.582 505.309 958.621C505.605 958.66 505.883 958.711 506.141 958.773C506.398 958.836 506.645 958.914 506.879 959.008C507.113 959.094 507.348 959.184 507.582 959.277C507.613 959.16 507.66 959.043 507.723 958.926C507.793 958.801 507.875 958.691 507.969 958.598C508.062 958.496 508.172 958.414 508.297 958.352C508.422 958.289 508.562 958.258 508.719 958.258C509.102 958.258 509.398 958.332 509.609 958.48C509.82 958.629 509.926 958.891 509.926 959.266C509.926 959.562 509.914 959.871 509.891 960.191C509.867 960.512 509.855 960.863 509.855 961.246C509.895 961.34 509.922 961.445 509.938 961.562C509.953 961.672 509.961 961.77 509.961 961.855C509.961 962.043 509.93 962.203 509.867 962.336C509.805 962.461 509.719 962.566 509.609 962.652C509.5 962.73 509.371 962.789 509.223 962.828C509.082 962.867 508.926 962.887 508.754 962.887C508.598 962.887 508.445 962.859 508.297 962.805C508.156 962.75 508.027 962.68 507.91 962.594C507.793 962.5 507.691 962.395 507.605 962.277C507.52 962.16 507.453 962.039 507.406 961.914C507.281 961.812 507.121 961.699 506.926 961.574C506.738 961.441 506.512 961.32 506.246 961.211C505.988 961.102 505.691 961.012 505.355 960.941C505.02 960.863 504.648 960.824 504.242 960.824C503.844 960.824 503.473 960.863 503.129 960.941C502.793 961.012 502.5 961.117 502.25 961.258C502.008 961.398 501.816 961.566 501.676 961.762C501.535 961.957 501.465 962.176 501.465 962.418C501.465 962.73 501.559 963 501.746 963.227C501.941 963.445 502.199 963.641 502.52 963.812C502.84 963.977 503.211 964.125 503.633 964.258C504.062 964.391 504.508 964.52 504.969 964.645C505.602 964.816 506.238 965.008 506.879 965.219C507.527 965.43 508.109 965.703 508.625 966.039C509.148 966.367 509.574 966.785 509.902 967.293C510.23 967.793 510.395 968.422 510.395 969.18C510.395 969.766 510.305 970.273 510.125 970.703C509.945 971.133 509.707 971.504 509.41 971.816C509.113 972.121 508.766 972.375 508.367 972.578C507.977 972.773 507.566 972.926 507.137 973.035C506.715 973.152 506.285 973.23 505.848 973.27C505.41 973.316 504.996 973.34 504.605 973.34C504.059 973.34 503.531 973.289 503.023 973.188C502.516 973.086 502.035 972.949 501.582 972.777C501.137 972.605 500.727 972.406 500.352 972.18C499.984 971.953 499.668 971.715 499.402 971.465C499.137 971.215 498.93 970.961 498.781 970.703C498.633 970.445 498.559 970.199 498.559 969.965ZM514.18 972.156C514.18 972.016 514.184 971.871 514.191 971.723C514.207 971.574 514.223 971.426 514.238 971.277C514.262 971.074 514.285 970.848 514.309 970.598C514.332 970.348 514.344 970.07 514.344 969.766C514.344 969.305 514.34 968.711 514.332 967.984C514.332 967.258 514.328 966.453 514.32 965.57C514.312 964.68 514.305 963.746 514.297 962.77C514.289 961.785 514.277 960.809 514.262 959.84C514.254 958.863 514.242 957.926 514.227 957.027C514.219 956.129 514.211 955.32 514.203 954.602C514.086 954.586 513.961 954.594 513.828 954.625C513.695 954.648 513.539 954.66 513.359 954.66C513.219 954.66 513.074 954.637 512.926 954.59C512.785 954.543 512.652 954.473 512.527 954.379C512.41 954.277 512.312 954.145 512.234 953.98C512.164 953.816 512.129 953.617 512.129 953.383C512.129 952.969 512.238 952.656 512.457 952.445C512.676 952.227 512.938 952.117 513.242 952.117C513.367 952.117 513.488 952.133 513.605 952.164C513.723 952.195 513.848 952.211 513.98 952.211C514.137 952.211 514.297 952.207 514.461 952.199C514.625 952.191 514.785 952.18 514.941 952.164C515.113 952.148 515.281 952.137 515.445 952.129C515.617 952.121 515.766 952.117 515.891 952.117C516.219 952.117 516.484 952.227 516.688 952.445C516.898 952.656 517.004 952.949 517.004 953.324C517.004 954.332 516.992 955.359 516.969 956.406C516.953 957.445 516.938 958.566 516.922 959.77L516.898 960.367C517.172 960.125 517.473 959.895 517.801 959.676C518.129 959.457 518.477 959.266 518.844 959.102C519.219 958.938 519.605 958.809 520.004 958.715C520.402 958.613 520.809 958.562 521.223 958.562C522.207 958.562 523.082 958.707 523.848 958.996C524.621 959.285 525.273 959.727 525.805 960.32C526.336 960.914 526.738 961.66 527.012 962.559C527.293 963.457 527.434 964.52 527.434 965.746C527.434 966.105 527.406 966.48 527.352 966.871C527.305 967.262 527.234 967.652 527.141 968.043C527.047 968.434 526.934 968.82 526.801 969.203C526.668 969.578 526.52 969.93 526.355 970.258C526.527 970.195 526.699 970.141 526.871 970.094C527.043 970.039 527.23 970.012 527.434 970.012C527.691 970.012 527.902 970.062 528.066 970.164C528.23 970.258 528.355 970.371 528.441 970.504C528.535 970.637 528.598 970.773 528.629 970.914C528.66 971.055 528.676 971.164 528.676 971.242C528.676 971.539 528.586 971.793 528.406 972.004C528.234 972.215 528.012 972.367 527.738 972.461C527.512 972.547 527.227 972.641 526.883 972.742C526.539 972.844 526.191 972.938 525.84 973.023C525.496 973.109 525.172 973.184 524.867 973.246C524.562 973.309 524.332 973.34 524.176 973.34C523.668 973.34 523.305 973.219 523.086 972.977C522.875 972.727 522.77 972.406 522.77 972.016C522.77 971.805 522.828 971.574 522.945 971.324C523.062 971.074 523.203 970.844 523.367 970.633C523.57 970.344 523.758 970.012 523.93 969.637C524.102 969.254 524.25 968.852 524.375 968.43C524.508 968 524.609 967.559 524.68 967.105C524.758 966.645 524.797 966.191 524.797 965.746C524.797 965.012 524.727 964.355 524.586 963.777C524.453 963.199 524.238 962.711 523.941 962.312C523.645 961.914 523.258 961.613 522.781 961.41C522.312 961.199 521.742 961.094 521.07 961.094C520.68 961.094 520.289 961.164 519.898 961.305C519.508 961.445 519.129 961.633 518.762 961.867C518.395 962.094 518.047 962.359 517.719 962.664C517.398 962.961 517.113 963.266 516.863 963.578C516.848 964.742 516.836 965.902 516.828 967.059C516.828 968.207 516.836 969.383 516.852 970.586C516.867 970.586 516.887 970.582 516.91 970.574C516.941 970.566 517.008 970.543 517.109 970.504C517.18 970.473 517.254 970.445 517.332 970.422C517.418 970.398 517.512 970.383 517.613 970.375C518.035 970.359 518.355 970.461 518.574 970.68C518.801 970.891 518.914 971.195 518.914 971.594C518.914 971.734 518.887 971.875 518.832 972.016C518.785 972.148 518.719 972.27 518.633 972.379C518.547 972.488 518.445 972.582 518.328 972.66C518.211 972.738 518.082 972.793 517.941 972.824C517.785 972.855 517.629 972.891 517.473 972.93C517.324 972.961 517.172 972.992 517.016 973.023C516.875 973.055 516.723 973.09 516.559 973.129C516.402 973.168 516.246 973.203 516.09 973.234C515.941 973.266 515.805 973.289 515.68 973.305C515.555 973.328 515.453 973.34 515.375 973.34C514.914 973.34 514.598 973.238 514.426 973.035C514.262 972.832 514.18 972.539 514.18 972.156ZM531.289 965.934C531.289 964.918 531.477 963.965 531.852 963.074C532.234 962.176 532.754 961.395 533.41 960.73C534.074 960.059 534.848 959.531 535.73 959.148C536.613 958.758 537.559 958.562 538.566 958.562C539.668 958.562 540.664 958.758 541.555 959.148C542.453 959.531 543.219 960.059 543.852 960.73C544.492 961.395 544.984 962.176 545.328 963.074C545.672 963.965 545.844 964.918 545.844 965.934C545.844 966.676 545.754 967.375 545.574 968.031C545.402 968.688 545.156 969.289 544.836 969.836C544.516 970.383 544.129 970.875 543.676 971.312C543.23 971.742 542.738 972.109 542.199 972.414C541.66 972.711 541.082 972.938 540.465 973.094C539.855 973.258 539.223 973.34 538.566 973.34C537.582 973.34 536.648 973.164 535.766 972.812C534.883 972.453 534.109 971.953 533.445 971.312C532.781 970.664 532.254 969.887 531.863 968.98C531.48 968.066 531.289 967.051 531.289 965.934ZM533.996 965.934C533.996 966.676 534.102 967.348 534.312 967.949C534.523 968.551 534.824 969.066 535.215 969.496C535.613 969.918 536.094 970.246 536.656 970.48C537.219 970.707 537.852 970.82 538.555 970.82C539.18 970.82 539.77 970.715 540.324 970.504C540.879 970.293 541.363 969.984 541.777 969.578C542.199 969.164 542.531 968.652 542.773 968.043C543.023 967.434 543.148 966.73 543.148 965.934C543.148 965.277 543.043 964.656 542.832 964.07C542.629 963.477 542.332 962.961 541.941 962.523C541.551 962.086 541.07 961.738 540.5 961.48C539.93 961.223 539.281 961.094 538.555 961.094C537.828 961.094 537.184 961.223 536.621 961.48C536.059 961.738 535.582 962.086 535.191 962.523C534.801 962.961 534.504 963.477 534.301 964.07C534.098 964.656 533.996 965.277 533.996 965.934ZM548.961 966.602C548.961 965.867 549.039 965.074 549.195 964.223C549.359 963.371 549.621 962.555 549.98 961.773C549.824 961.82 549.68 961.844 549.547 961.844C549.25 961.844 549.02 961.793 548.855 961.691C548.691 961.582 548.57 961.457 548.492 961.316C548.422 961.176 548.379 961.031 548.363 960.883C548.355 960.734 548.352 960.617 548.352 960.531C548.352 960.297 548.391 960.105 548.469 959.957C548.547 959.801 548.656 959.676 548.797 959.582C548.938 959.488 549.109 959.414 549.312 959.359C549.523 959.305 549.758 959.25 550.016 959.195C550.148 959.18 550.293 959.145 550.449 959.09C550.605 959.027 550.758 958.965 550.906 958.902C551.109 958.816 551.324 958.738 551.551 958.668C551.777 958.598 552.012 958.562 552.254 958.562C552.504 958.562 552.715 958.598 552.887 958.668C553.066 958.738 553.211 958.836 553.32 958.961C553.438 959.078 553.52 959.219 553.566 959.383C553.621 959.539 553.648 959.707 553.648 959.887C553.648 960.113 553.598 960.344 553.496 960.578C553.395 960.812 553.25 961.035 553.062 961.246C552.812 961.527 552.594 961.875 552.406 962.289C552.219 962.703 552.059 963.152 551.926 963.637C551.801 964.113 551.703 964.609 551.633 965.125C551.57 965.633 551.539 966.125 551.539 966.602C551.539 968.07 551.84 969.152 552.441 969.848C553.051 970.543 553.945 970.891 555.125 970.891C555.508 970.891 555.891 970.836 556.273 970.727C556.664 970.617 557.043 970.469 557.41 970.281C557.785 970.086 558.141 969.859 558.477 969.602C558.82 969.336 559.141 969.051 559.438 968.746C559.453 968.082 559.465 967.469 559.473 966.906C559.48 966.336 559.484 965.781 559.484 965.242C559.484 964.914 559.484 964.605 559.484 964.316C559.484 964.02 559.48 963.73 559.473 963.449C559.465 963.16 559.457 962.863 559.449 962.559C559.441 962.246 559.43 961.906 559.414 961.539C559.172 961.609 558.941 961.664 558.723 961.703C558.504 961.742 558.34 961.762 558.23 961.762C558.066 961.762 557.91 961.734 557.762 961.68C557.613 961.625 557.48 961.543 557.363 961.434C557.246 961.324 557.152 961.188 557.082 961.023C557.012 960.852 556.977 960.652 556.977 960.426C556.977 960.184 557.02 959.988 557.105 959.84C557.199 959.684 557.328 959.562 557.492 959.477C557.664 959.383 557.867 959.309 558.102 959.254C558.336 959.199 558.598 959.141 558.887 959.078C559.051 959.055 559.207 959.016 559.355 958.961C559.512 958.898 559.668 958.84 559.824 958.785C559.98 958.723 560.141 958.672 560.305 958.633C560.469 958.586 560.641 958.562 560.82 958.562C561.102 958.562 561.316 958.613 561.465 958.715C561.613 958.809 561.723 958.941 561.793 959.113C561.863 959.277 561.902 959.477 561.91 959.711C561.926 959.938 561.934 960.18 561.934 960.438C561.934 960.664 561.934 960.957 561.934 961.316C561.934 961.668 561.938 962.066 561.945 962.512C561.945 963.793 561.957 965.098 561.98 966.426C562.004 967.746 562.016 969.16 562.016 970.668C562.016 970.879 562.027 971.094 562.051 971.312C562.082 971.523 562.098 971.754 562.098 972.004C562.098 972.215 562.082 972.402 562.051 972.566C562.027 972.723 561.961 972.855 561.852 972.965C561.75 973.074 561.594 973.16 561.383 973.223C561.18 973.293 560.895 973.332 560.527 973.34C560.293 973.34 560.094 973.293 559.93 973.199C559.773 973.113 559.645 973.004 559.543 972.871C559.449 972.738 559.379 972.598 559.332 972.449C559.293 972.293 559.273 972.152 559.273 972.027C559.273 971.941 559.277 971.875 559.285 971.828C559.301 971.773 559.316 971.707 559.332 971.629C558.973 971.941 558.602 972.207 558.219 972.426C557.844 972.637 557.473 972.812 557.105 972.953C556.738 973.086 556.379 973.184 556.027 973.246C555.684 973.309 555.363 973.34 555.066 973.34C553.035 973.34 551.508 972.766 550.484 971.617C549.469 970.469 548.961 968.797 548.961 966.602ZM566.949 971.793C566.949 971.309 566.961 970.797 566.984 970.258C567 969.977 567.012 969.66 567.02 969.309C567.027 968.949 567.031 968.594 567.031 968.242C567.031 968.008 567.027 967.637 567.02 967.129C567.02 966.613 567.016 966.004 567.008 965.301C567.008 964.598 567 963.816 566.984 962.957C566.977 962.098 566.965 961.203 566.949 960.273C566.941 959.336 566.93 958.383 566.914 957.414C566.906 956.445 566.895 955.496 566.879 954.566C566.574 954.574 566.266 954.594 565.953 954.625C565.641 954.648 565.32 954.66 564.992 954.66C564.852 954.66 564.707 954.637 564.559 954.59C564.418 954.543 564.289 954.473 564.172 954.379C564.055 954.277 563.957 954.145 563.879 953.98C563.801 953.816 563.762 953.617 563.762 953.383C563.762 952.969 563.871 952.656 564.09 952.445C564.316 952.227 564.578 952.117 564.875 952.117C565.148 952.117 565.418 952.133 565.684 952.164C565.949 952.195 566.23 952.211 566.527 952.211C566.746 952.211 566.938 952.207 567.102 952.199C567.266 952.191 567.422 952.184 567.57 952.176C567.727 952.16 567.891 952.148 568.062 952.141C568.234 952.125 568.441 952.117 568.684 952.117C569.012 952.117 569.277 952.223 569.48 952.434C569.691 952.637 569.797 952.953 569.797 953.383C569.797 953.539 569.781 953.691 569.75 953.84C569.727 953.988 569.695 954.137 569.656 954.285C569.625 954.434 569.594 954.586 569.562 954.742C569.539 954.891 569.523 955.043 569.516 955.199V970.562C569.836 970.469 570.09 970.398 570.277 970.352C570.473 970.305 570.641 970.281 570.781 970.281C571.602 970.281 572.012 970.711 572.012 971.57C572.012 971.922 571.891 972.195 571.648 972.391C571.414 972.578 571.074 972.727 570.629 972.836L569.457 973.141C569.191 973.227 568.984 973.281 568.836 973.305C568.688 973.328 568.527 973.34 568.355 973.34C568.105 973.34 567.891 973.293 567.711 973.199C567.539 973.105 567.395 972.984 567.277 972.836C567.168 972.68 567.086 972.512 567.031 972.332C566.977 972.152 566.949 971.973 566.949 971.793ZM574.625 965.969C574.625 964.906 574.801 963.926 575.152 963.027C575.512 962.121 576.004 961.34 576.629 960.684C577.262 960.02 578.008 959.5 578.867 959.125C579.727 958.75 580.66 958.562 581.668 958.562C582.121 958.562 582.57 958.609 583.016 958.703C583.461 958.789 583.883 958.922 584.281 959.102C584.688 959.273 585.062 959.488 585.406 959.746C585.75 960.004 586.051 960.301 586.309 960.637C586.309 960.434 586.309 960.145 586.309 959.77C586.309 959.395 586.305 958.949 586.297 958.434C586.297 957.918 586.293 957.344 586.285 956.711C586.277 956.078 586.27 955.406 586.262 954.695H585.266C585.086 954.695 584.91 954.715 584.738 954.754C584.566 954.793 584.383 954.812 584.188 954.812C584.047 954.812 583.902 954.781 583.754 954.719C583.613 954.648 583.484 954.555 583.367 954.438C583.258 954.312 583.164 954.164 583.086 953.992C583.016 953.812 582.98 953.609 582.98 953.383C582.98 952.977 583.086 952.664 583.297 952.445C583.508 952.227 583.773 952.117 584.094 952.117C584.172 952.117 584.266 952.121 584.375 952.129C584.484 952.129 584.609 952.148 584.75 952.188C585.266 952.195 585.785 952.191 586.309 952.176C586.832 952.152 587.395 952.137 587.996 952.129C588.324 952.129 588.582 952.242 588.77 952.469C588.957 952.695 589.051 952.996 589.051 953.371C589.051 953.637 589.016 953.844 588.945 953.992C588.93 954.5 588.918 955.129 588.91 955.879C588.902 956.621 588.895 957.414 588.887 958.258C588.879 959.102 588.871 959.961 588.863 960.836C588.863 961.711 588.859 962.531 588.852 963.297C588.852 964.055 588.852 964.727 588.852 965.312C588.852 965.898 588.852 966.324 588.852 966.59C588.852 967.355 588.855 968.047 588.863 968.664C588.879 969.273 588.902 969.754 588.934 970.105L589.145 969.977C589.309 969.883 589.465 969.801 589.613 969.73C589.77 969.66 589.938 969.617 590.117 969.602C590.25 969.586 590.387 969.602 590.527 969.648C590.668 969.688 590.797 969.758 590.914 969.859C591.031 969.953 591.129 970.082 591.207 970.246C591.285 970.41 591.324 970.609 591.324 970.844C591.324 971.172 591.234 971.438 591.055 971.641C590.883 971.836 590.703 971.973 590.516 972.051C590.328 972.137 590.148 972.227 589.977 972.32C589.805 972.406 589.629 972.496 589.449 972.59C589.184 972.73 588.926 972.863 588.676 972.988C588.434 973.113 588.219 973.176 588.031 973.176C587.656 973.176 587.352 973 587.117 972.648C586.891 972.289 586.719 971.812 586.602 971.219C586.289 971.539 585.934 971.828 585.535 972.086C585.137 972.344 584.711 972.566 584.258 972.754C583.805 972.941 583.328 973.086 582.828 973.188C582.336 973.289 581.84 973.34 581.34 973.34C580.324 973.34 579.402 973.148 578.574 972.766C577.754 972.383 577.051 971.859 576.465 971.195C575.879 970.531 575.426 969.754 575.105 968.863C574.785 967.965 574.625 967 574.625 965.969ZM577.238 965.969C577.238 966.586 577.336 967.188 577.531 967.773C577.727 968.352 578.008 968.867 578.375 969.32C578.75 969.773 579.203 970.137 579.734 970.41C580.266 970.684 580.867 970.82 581.539 970.82C582.055 970.82 582.57 970.738 583.086 970.574C583.602 970.402 584.074 970.164 584.504 969.859C584.941 969.547 585.32 969.172 585.641 968.734C585.961 968.289 586.18 967.789 586.297 967.234C586.297 966.914 586.297 966.652 586.297 966.449C586.297 966.246 586.293 966.074 586.285 965.934C586.285 965.785 586.285 965.652 586.285 965.535C586.285 965.41 586.285 965.27 586.285 965.113C586.16 964.551 585.957 964.027 585.676 963.543C585.402 963.051 585.066 962.625 584.668 962.266C584.27 961.906 583.82 961.625 583.32 961.422C582.828 961.211 582.305 961.105 581.75 961.105C581.102 961.105 580.5 961.223 579.945 961.457C579.398 961.691 578.922 962.023 578.516 962.453C578.117 962.875 577.805 963.387 577.578 963.988C577.352 964.582 577.238 965.242 577.238 965.969ZM606.008 971.383C604.875 968.484 603.965 966.203 603.277 964.539C602.59 962.867 602.102 961.773 601.812 961.258V961.27C601.68 961.043 601.562 960.793 601.461 960.52C601.359 960.238 601.309 960.012 601.309 959.84C601.309 959.629 601.352 959.445 601.438 959.289C601.523 959.125 601.633 958.992 601.766 958.891C601.906 958.781 602.059 958.699 602.223 958.645C602.387 958.59 602.547 958.562 602.703 958.562C602.922 958.562 603.098 958.59 603.23 958.645C603.371 958.699 603.484 958.777 603.57 958.879C603.664 958.98 603.742 959.105 603.805 959.254C603.867 959.395 603.934 959.559 604.004 959.746C604.668 961.262 605.301 962.797 605.902 964.352C606.504 965.898 607.141 967.496 607.812 969.145C607.977 968.715 608.133 968.289 608.281 967.867C608.43 967.445 608.59 967 608.762 966.531C608.957 965.992 609.145 965.469 609.324 964.961C609.504 964.445 609.691 963.938 609.887 963.438C609.73 963.062 609.57 962.691 609.406 962.324C609.242 961.949 609.062 961.578 608.867 961.211C608.734 960.977 608.633 960.746 608.562 960.52C608.5 960.285 608.469 960.078 608.469 959.898C608.469 959.688 608.504 959.5 608.574 959.336C608.645 959.172 608.738 959.031 608.855 958.914C608.98 958.797 609.117 958.711 609.266 958.656C609.422 958.594 609.582 958.562 609.746 958.562C609.965 958.562 610.148 958.602 610.297 958.68C610.445 958.75 610.57 958.848 610.672 958.973C610.773 959.09 610.859 959.227 610.93 959.383C611 959.539 611.066 959.699 611.129 959.863C611.145 959.91 611.156 959.949 611.164 959.98C611.18 960.012 611.199 960.055 611.223 960.109L611.281 959.945C611.352 959.781 611.43 959.617 611.516 959.453C611.602 959.281 611.703 959.133 611.82 959.008C611.945 958.875 612.086 958.77 612.242 958.691C612.398 958.605 612.582 958.562 612.793 958.562C612.949 958.562 613.102 958.59 613.25 958.645C613.406 958.699 613.547 958.781 613.672 958.891C613.797 959 613.895 959.133 613.965 959.289C614.043 959.445 614.082 959.621 614.082 959.816C614.082 960.02 614.043 960.203 613.965 960.367C613.895 960.531 613.816 960.688 613.73 960.836L612.57 963.473L614.844 969.145L617.902 960.93C617.957 960.695 618.023 960.441 618.102 960.168C618.18 959.895 618.285 959.641 618.418 959.406C618.551 959.164 618.719 958.965 618.922 958.809C619.133 958.645 619.395 958.562 619.707 958.562C619.918 958.562 620.109 958.602 620.281 958.68C620.453 958.75 620.602 958.844 620.727 958.961C620.852 959.078 620.945 959.215 621.008 959.371C621.078 959.52 621.113 959.668 621.113 959.816C621.113 959.996 621.086 960.16 621.031 960.309C620.977 960.449 620.91 960.59 620.832 960.73C620.762 960.863 620.68 960.996 620.586 961.129C620.5 961.254 620.422 961.391 620.352 961.539C620.305 961.633 620.238 961.785 620.152 961.996C620.074 962.207 619.977 962.461 619.859 962.758C619.742 963.055 619.613 963.383 619.473 963.742C619.34 964.102 619.199 964.473 619.051 964.855C618.871 965.332 618.68 965.824 618.477 966.332C618.281 966.84 618.086 967.344 617.891 967.844C617.695 968.344 617.5 968.828 617.305 969.297C617.117 969.758 616.941 970.18 616.777 970.562C616.668 970.805 616.582 971.023 616.52 971.219C616.457 971.406 616.402 971.59 616.355 971.77C616.277 972.012 616.203 972.23 616.133 972.426C616.062 972.613 615.973 972.777 615.863 972.918C615.762 973.051 615.625 973.152 615.453 973.223C615.289 973.301 615.074 973.34 614.809 973.34C614.48 973.34 614.176 973.172 613.895 972.836C613.613 972.5 613.332 971.992 613.051 971.312C612.746 970.547 612.453 969.777 612.172 969.004C611.891 968.23 611.586 967.441 611.258 966.637C610.93 967.48 610.59 968.316 610.238 969.145C609.895 969.973 609.586 970.844 609.312 971.758C609.242 971.969 609.168 972.172 609.09 972.367C609.02 972.555 608.926 972.723 608.809 972.871C608.699 973.012 608.562 973.125 608.398 973.211C608.242 973.297 608.047 973.34 607.812 973.34C607.625 973.34 607.453 973.305 607.297 973.234C607.141 973.164 606.992 973.051 606.852 972.895C606.711 972.73 606.57 972.527 606.43 972.285C606.297 972.035 606.156 971.734 606.008 971.383ZM625.672 967.715C625.82 968.301 626.039 968.793 626.328 969.191C626.625 969.582 626.957 969.898 627.324 970.141C627.691 970.383 628.078 970.559 628.484 970.668C628.898 970.77 629.301 970.82 629.691 970.82C630.301 970.82 630.844 970.77 631.32 970.668C631.797 970.559 632.203 970.43 632.539 970.281C632.883 970.125 633.16 969.965 633.371 969.801C633.582 969.637 633.73 969.492 633.816 969.367C633.895 969.25 633.98 969.141 634.074 969.039C634.176 968.93 634.281 968.836 634.391 968.758C634.508 968.672 634.621 968.605 634.73 968.559C634.848 968.512 634.957 968.488 635.059 968.488C635.449 968.488 635.75 968.605 635.961 968.84C636.18 969.066 636.289 969.375 636.289 969.766C636.289 969.914 636.234 970.102 636.125 970.328C636.016 970.555 635.812 970.805 635.516 971.078C635.188 971.383 634.82 971.672 634.414 971.945C634.016 972.219 633.574 972.461 633.09 972.672C632.605 972.875 632.078 973.035 631.508 973.152C630.945 973.277 630.336 973.34 629.68 973.34C628.906 973.34 628.199 973.234 627.559 973.023C626.918 972.82 626.344 972.543 625.836 972.191C625.328 971.832 624.887 971.418 624.512 970.949C624.137 970.48 623.824 969.98 623.574 969.449C623.324 968.918 623.137 968.371 623.012 967.809C622.887 967.246 622.824 966.699 622.824 966.168C622.824 965.012 623.012 963.969 623.387 963.039C623.762 962.102 624.277 961.301 624.934 960.637C625.59 959.973 626.367 959.461 627.266 959.102C628.164 958.742 629.137 958.562 630.184 958.562C630.934 958.562 631.637 958.676 632.293 958.902C632.949 959.121 633.531 959.434 634.039 959.84C634.555 960.238 634.984 960.719 635.328 961.281C635.68 961.836 635.926 962.449 636.066 963.121C636.223 963.254 636.336 963.43 636.406 963.648C636.484 963.859 636.523 964.07 636.523 964.281C636.523 964.633 636.402 964.922 636.16 965.148C635.926 965.367 635.629 965.52 635.27 965.605C634.48 965.809 633.691 965.996 632.902 966.168C632.113 966.34 631.32 966.508 630.523 966.672C629.727 966.836 628.922 967.004 628.109 967.176C627.305 967.348 626.492 967.527 625.672 967.715ZM625.473 965.547C626.801 965.234 628.145 964.941 629.504 964.668C630.863 964.395 632.246 964.09 633.652 963.754C633.52 963.395 633.34 963.055 633.113 962.734C632.887 962.406 632.621 962.121 632.316 961.879C632.012 961.637 631.672 961.445 631.297 961.305C630.93 961.164 630.531 961.094 630.102 961.094C629.438 961.094 628.832 961.203 628.285 961.422C627.746 961.633 627.277 961.934 626.879 962.324C626.48 962.707 626.16 963.176 625.918 963.73C625.676 964.277 625.527 964.883 625.473 965.547ZM456.605 995.969C456.605 994.906 456.781 993.926 457.133 993.027C457.492 992.121 457.984 991.34 458.609 990.684C459.242 990.02 459.988 989.5 460.848 989.125C461.707 988.75 462.641 988.562 463.648 988.562C464.102 988.562 464.551 988.609 464.996 988.703C465.441 988.789 465.863 988.922 466.262 989.102C466.668 989.273 467.043 989.488 467.387 989.746C467.73 990.004 468.031 990.301 468.289 990.637C468.289 990.434 468.289 990.145 468.289 989.77C468.289 989.395 468.285 988.949 468.277 988.434C468.277 987.918 468.273 987.344 468.266 986.711C468.258 986.078 468.25 985.406 468.242 984.695H467.246C467.066 984.695 466.891 984.715 466.719 984.754C466.547 984.793 466.363 984.812 466.168 984.812C466.027 984.812 465.883 984.781 465.734 984.719C465.594 984.648 465.465 984.555 465.348 984.438C465.238 984.312 465.145 984.164 465.066 983.992C464.996 983.812 464.961 983.609 464.961 983.383C464.961 982.977 465.066 982.664 465.277 982.445C465.488 982.227 465.754 982.117 466.074 982.117C466.152 982.117 466.246 982.121 466.355 982.129C466.465 982.129 466.59 982.148 466.73 982.188C467.246 982.195 467.766 982.191 468.289 982.176C468.812 982.152 469.375 982.137 469.977 982.129C470.305 982.129 470.562 982.242 470.75 982.469C470.938 982.695 471.031 982.996 471.031 983.371C471.031 983.637 470.996 983.844 470.926 983.992C470.91 984.5 470.898 985.129 470.891 985.879C470.883 986.621 470.875 987.414 470.867 988.258C470.859 989.102 470.852 989.961 470.844 990.836C470.844 991.711 470.84 992.531 470.832 993.297C470.832 994.055 470.832 994.727 470.832 995.312C470.832 995.898 470.832 996.324 470.832 996.59C470.832 997.355 470.836 998.047 470.844 998.664C470.859 999.273 470.883 999.754 470.914 1000.11L471.125 999.977C471.289 999.883 471.445 999.801 471.594 999.73C471.75 999.66 471.918 999.617 472.098 999.602C472.23 999.586 472.367 999.602 472.508 999.648C472.648 999.688 472.777 999.758 472.895 999.859C473.012 999.953 473.109 1000.08 473.188 1000.25C473.266 1000.41 473.305 1000.61 473.305 1000.84C473.305 1001.17 473.215 1001.44 473.035 1001.64C472.863 1001.84 472.684 1001.97 472.496 1002.05C472.309 1002.14 472.129 1002.23 471.957 1002.32C471.785 1002.41 471.609 1002.5 471.43 1002.59C471.164 1002.73 470.906 1002.86 470.656 1002.99C470.414 1003.11 470.199 1003.18 470.012 1003.18C469.637 1003.18 469.332 1003 469.098 1002.65C468.871 1002.29 468.699 1001.81 468.582 1001.22C468.27 1001.54 467.914 1001.83 467.516 1002.09C467.117 1002.34 466.691 1002.57 466.238 1002.75C465.785 1002.94 465.309 1003.09 464.809 1003.19C464.316 1003.29 463.82 1003.34 463.32 1003.34C462.305 1003.34 461.383 1003.15 460.555 1002.77C459.734 1002.38 459.031 1001.86 458.445 1001.2C457.859 1000.53 457.406 999.754 457.086 998.863C456.766 997.965 456.605 997 456.605 995.969ZM459.219 995.969C459.219 996.586 459.316 997.188 459.512 997.773C459.707 998.352 459.988 998.867 460.355 999.32C460.73 999.773 461.184 1000.14 461.715 1000.41C462.246 1000.68 462.848 1000.82 463.52 1000.82C464.035 1000.82 464.551 1000.74 465.066 1000.57C465.582 1000.4 466.055 1000.16 466.484 999.859C466.922 999.547 467.301 999.172 467.621 998.734C467.941 998.289 468.16 997.789 468.277 997.234C468.277 996.914 468.277 996.652 468.277 996.449C468.277 996.246 468.273 996.074 468.266 995.934C468.266 995.785 468.266 995.652 468.266 995.535C468.266 995.41 468.266 995.27 468.266 995.113C468.141 994.551 467.938 994.027 467.656 993.543C467.383 993.051 467.047 992.625 466.648 992.266C466.25 991.906 465.801 991.625 465.301 991.422C464.809 991.211 464.285 991.105 463.73 991.105C463.082 991.105 462.48 991.223 461.926 991.457C461.379 991.691 460.902 992.023 460.496 992.453C460.098 992.875 459.785 993.387 459.559 993.988C459.332 994.582 459.219 995.242 459.219 995.969ZM474.98 995.934C474.98 994.918 475.168 993.965 475.543 993.074C475.926 992.176 476.445 991.395 477.102 990.73C477.766 990.059 478.539 989.531 479.422 989.148C480.305 988.758 481.25 988.562 482.258 988.562C483.359 988.562 484.355 988.758 485.246 989.148C486.145 989.531 486.91 990.059 487.543 990.73C488.184 991.395 488.676 992.176 489.02 993.074C489.363 993.965 489.535 994.918 489.535 995.934C489.535 996.676 489.445 997.375 489.266 998.031C489.094 998.688 488.848 999.289 488.527 999.836C488.207 1000.38 487.82 1000.88 487.367 1001.31C486.922 1001.74 486.43 1002.11 485.891 1002.41C485.352 1002.71 484.773 1002.94 484.156 1003.09C483.547 1003.26 482.914 1003.34 482.258 1003.34C481.273 1003.34 480.34 1003.16 479.457 1002.81C478.574 1002.45 477.801 1001.95 477.137 1001.31C476.473 1000.66 475.945 999.887 475.555 998.98C475.172 998.066 474.98 997.051 474.98 995.934ZM477.688 995.934C477.688 996.676 477.793 997.348 478.004 997.949C478.215 998.551 478.516 999.066 478.906 999.496C479.305 999.918 479.785 1000.25 480.348 1000.48C480.91 1000.71 481.543 1000.82 482.246 1000.82C482.871 1000.82 483.461 1000.71 484.016 1000.5C484.57 1000.29 485.055 999.984 485.469 999.578C485.891 999.164 486.223 998.652 486.465 998.043C486.715 997.434 486.84 996.73 486.84 995.934C486.84 995.277 486.734 994.656 486.523 994.07C486.32 993.477 486.023 992.961 485.633 992.523C485.242 992.086 484.762 991.738 484.191 991.48C483.621 991.223 482.973 991.094 482.246 991.094C481.52 991.094 480.875 991.223 480.312 991.48C479.75 991.738 479.273 992.086 478.883 992.523C478.492 992.961 478.195 993.477 477.992 994.07C477.789 994.656 477.688 995.277 477.688 995.934ZM503.176 999.602L503.105 991.34L501.688 991.352C501.508 991.352 501.352 991.316 501.219 991.246C501.086 991.168 500.973 991.066 500.879 990.941C500.793 990.809 500.727 990.66 500.68 990.496C500.633 990.332 500.609 990.16 500.609 989.98C500.609 989.676 500.645 989.445 500.715 989.289C500.793 989.125 500.902 989.008 501.043 988.938C501.184 988.859 501.355 988.816 501.559 988.809C501.762 988.793 501.996 988.785 502.262 988.785H503.094V988.352C503.094 988.062 503.09 987.828 503.082 987.648C503.082 987.469 503.082 987.348 503.082 987.285C503.082 987.059 503.059 986.832 503.012 986.605C502.973 986.379 502.953 986.148 502.953 985.914C502.953 985.719 502.977 985.547 503.023 985.398C503.07 985.25 503.148 985.125 503.258 985.023C503.375 984.914 503.527 984.832 503.715 984.777C503.902 984.723 504.133 984.695 504.406 984.695C504.594 984.695 504.77 984.711 504.934 984.742C505.105 984.773 505.254 984.836 505.379 984.93C505.512 985.016 505.617 985.137 505.695 985.293C505.773 985.449 505.812 985.652 505.812 985.902C505.812 986.238 505.781 986.57 505.719 986.898C505.664 987.227 505.641 987.566 505.648 987.918V988.773C506.258 988.758 506.73 988.746 507.066 988.738C507.41 988.73 507.688 988.723 507.898 988.715C507.93 988.715 507.957 988.715 507.98 988.715C508.012 988.707 508.039 988.703 508.062 988.703C508.156 988.695 508.262 988.691 508.379 988.691C508.496 988.691 508.59 988.691 508.66 988.691C508.809 988.691 508.953 988.715 509.094 988.762C509.234 988.809 509.355 988.887 509.457 988.996C509.566 989.105 509.652 989.246 509.715 989.418C509.777 989.59 509.809 989.797 509.809 990.039C509.809 990.227 509.793 990.402 509.762 990.566C509.73 990.73 509.672 990.875 509.586 991C509.5 991.125 509.375 991.227 509.211 991.305C509.047 991.375 508.836 991.41 508.578 991.41C508.336 991.41 508.09 991.398 507.84 991.375C507.598 991.344 507.348 991.324 507.09 991.316L505.672 991.328L505.754 1000.57C506.074 1000.52 506.355 1000.47 506.598 1000.42C506.84 1000.38 507.066 1000.33 507.277 1000.28C507.488 1000.23 507.695 1000.18 507.898 1000.12C508.102 1000.05 508.324 999.977 508.566 999.883C508.699 999.812 508.855 999.742 509.035 999.672C509.215 999.594 509.402 999.555 509.598 999.555C509.98 999.555 510.281 999.688 510.5 999.953C510.719 1000.21 510.828 1000.55 510.828 1000.97C510.828 1001.08 510.801 1001.2 510.746 1001.34C510.699 1001.47 510.625 1001.6 510.523 1001.73C510.422 1001.86 510.289 1001.98 510.125 1002.09C509.969 1002.19 509.781 1002.26 509.562 1002.31C509.328 1002.36 509.059 1002.41 508.754 1002.48C508.449 1002.55 508.129 1002.63 507.793 1002.71C507.457 1002.79 507.121 1002.86 506.785 1002.94C506.449 1003.02 506.133 1003.09 505.836 1003.14C505.539 1003.2 505.277 1003.25 505.051 1003.29C504.824 1003.33 504.652 1003.35 504.535 1003.34C504.395 1003.34 504.238 1003.32 504.066 1003.28C503.902 1003.25 503.75 1003.19 503.609 1003.09C503.469 1003.01 503.352 1002.89 503.258 1002.73C503.172 1002.57 503.129 1002.36 503.129 1002.11L503.176 999.602ZM512.832 995.934C512.832 994.918 513.02 993.965 513.395 993.074C513.777 992.176 514.297 991.395 514.953 990.73C515.617 990.059 516.391 989.531 517.273 989.148C518.156 988.758 519.102 988.562 520.109 988.562C521.211 988.562 522.207 988.758 523.098 989.148C523.996 989.531 524.762 990.059 525.395 990.73C526.035 991.395 526.527 992.176 526.871 993.074C527.215 993.965 527.387 994.918 527.387 995.934C527.387 996.676 527.297 997.375 527.117 998.031C526.945 998.688 526.699 999.289 526.379 999.836C526.059 1000.38 525.672 1000.88 525.219 1001.31C524.773 1001.74 524.281 1002.11 523.742 1002.41C523.203 1002.71 522.625 1002.94 522.008 1003.09C521.398 1003.26 520.766 1003.34 520.109 1003.34C519.125 1003.34 518.191 1003.16 517.309 1002.81C516.426 1002.45 515.652 1001.95 514.988 1001.31C514.324 1000.66 513.797 999.887 513.406 998.98C513.023 998.066 512.832 997.051 512.832 995.934ZM515.539 995.934C515.539 996.676 515.645 997.348 515.855 997.949C516.066 998.551 516.367 999.066 516.758 999.496C517.156 999.918 517.637 1000.25 518.199 1000.48C518.762 1000.71 519.395 1000.82 520.098 1000.82C520.723 1000.82 521.312 1000.71 521.867 1000.5C522.422 1000.29 522.906 999.984 523.32 999.578C523.742 999.164 524.074 998.652 524.316 998.043C524.566 997.434 524.691 996.73 524.691 995.934C524.691 995.277 524.586 994.656 524.375 994.07C524.172 993.477 523.875 992.961 523.484 992.523C523.094 992.086 522.613 991.738 522.043 991.48C521.473 991.223 520.824 991.094 520.098 991.094C519.371 991.094 518.727 991.223 518.164 991.48C517.602 991.738 517.125 992.086 516.734 992.523C516.344 992.961 516.047 993.477 515.844 994.07C515.641 994.656 515.539 995.277 515.539 995.934ZM530.059 995.969C530.059 994.906 530.234 993.926 530.586 993.027C530.945 992.121 531.438 991.34 532.062 990.684C532.695 990.02 533.441 989.5 534.301 989.125C535.16 988.75 536.094 988.562 537.102 988.562C537.555 988.562 538.004 988.609 538.449 988.703C538.895 988.789 539.316 988.922 539.715 989.102C540.121 989.273 540.496 989.488 540.84 989.746C541.184 990.004 541.484 990.301 541.742 990.637C541.742 990.434 541.742 990.145 541.742 989.77C541.742 989.395 541.738 988.949 541.73 988.434C541.73 987.918 541.727 987.344 541.719 986.711C541.711 986.078 541.703 985.406 541.695 984.695H540.699C540.52 984.695 540.344 984.715 540.172 984.754C540 984.793 539.816 984.812 539.621 984.812C539.48 984.812 539.336 984.781 539.188 984.719C539.047 984.648 538.918 984.555 538.801 984.438C538.691 984.312 538.598 984.164 538.52 983.992C538.449 983.812 538.414 983.609 538.414 983.383C538.414 982.977 538.52 982.664 538.73 982.445C538.941 982.227 539.207 982.117 539.527 982.117C539.605 982.117 539.699 982.121 539.809 982.129C539.918 982.129 540.043 982.148 540.184 982.188C540.699 982.195 541.219 982.191 541.742 982.176C542.266 982.152 542.828 982.137 543.43 982.129C543.758 982.129 544.016 982.242 544.203 982.469C544.391 982.695 544.484 982.996 544.484 983.371C544.484 983.637 544.449 983.844 544.379 983.992C544.363 984.5 544.352 985.129 544.344 985.879C544.336 986.621 544.328 987.414 544.32 988.258C544.312 989.102 544.305 989.961 544.297 990.836C544.297 991.711 544.293 992.531 544.285 993.297C544.285 994.055 544.285 994.727 544.285 995.312C544.285 995.898 544.285 996.324 544.285 996.59C544.285 997.355 544.289 998.047 544.297 998.664C544.312 999.273 544.336 999.754 544.367 1000.11L544.578 999.977C544.742 999.883 544.898 999.801 545.047 999.73C545.203 999.66 545.371 999.617 545.551 999.602C545.684 999.586 545.82 999.602 545.961 999.648C546.102 999.688 546.23 999.758 546.348 999.859C546.465 999.953 546.562 1000.08 546.641 1000.25C546.719 1000.41 546.758 1000.61 546.758 1000.84C546.758 1001.17 546.668 1001.44 546.488 1001.64C546.316 1001.84 546.137 1001.97 545.949 1002.05C545.762 1002.14 545.582 1002.23 545.41 1002.32C545.238 1002.41 545.062 1002.5 544.883 1002.59C544.617 1002.73 544.359 1002.86 544.109 1002.99C543.867 1003.11 543.652 1003.18 543.465 1003.18C543.09 1003.18 542.785 1003 542.551 1002.65C542.324 1002.29 542.152 1001.81 542.035 1001.22C541.723 1001.54 541.367 1001.83 540.969 1002.09C540.57 1002.34 540.145 1002.57 539.691 1002.75C539.238 1002.94 538.762 1003.09 538.262 1003.19C537.77 1003.29 537.273 1003.34 536.773 1003.34C535.758 1003.34 534.836 1003.15 534.008 1002.77C533.188 1002.38 532.484 1001.86 531.898 1001.2C531.312 1000.53 530.859 999.754 530.539 998.863C530.219 997.965 530.059 997 530.059 995.969ZM532.672 995.969C532.672 996.586 532.77 997.188 532.965 997.773C533.16 998.352 533.441 998.867 533.809 999.32C534.184 999.773 534.637 1000.14 535.168 1000.41C535.699 1000.68 536.301 1000.82 536.973 1000.82C537.488 1000.82 538.004 1000.74 538.52 1000.57C539.035 1000.4 539.508 1000.16 539.938 999.859C540.375 999.547 540.754 999.172 541.074 998.734C541.395 998.289 541.613 997.789 541.73 997.234C541.73 996.914 541.73 996.652 541.73 996.449C541.73 996.246 541.727 996.074 541.719 995.934C541.719 995.785 541.719 995.652 541.719 995.535C541.719 995.41 541.719 995.27 541.719 995.113C541.594 994.551 541.391 994.027 541.109 993.543C540.836 993.051 540.5 992.625 540.102 992.266C539.703 991.906 539.254 991.625 538.754 991.422C538.262 991.211 537.738 991.105 537.184 991.105C536.535 991.105 535.934 991.223 535.379 991.457C534.832 991.691 534.355 992.023 533.949 992.453C533.551 992.875 533.238 993.387 533.012 993.988C532.785 994.582 532.672 995.242 532.672 995.969ZM548.492 995.969C548.492 994.906 548.672 993.918 549.031 993.004C549.391 992.09 549.883 991.297 550.508 990.625C551.141 989.953 551.879 989.426 552.723 989.043C553.574 988.66 554.492 988.469 555.477 988.469C555.977 988.469 556.453 988.527 556.906 988.645C557.367 988.762 557.793 988.918 558.184 989.113C558.582 989.301 558.938 989.516 559.25 989.758C559.57 990 559.844 990.25 560.07 990.508C560.062 990.398 560.059 990.281 560.059 990.156C560.059 990.031 560.059 989.922 560.059 989.828C560.059 989.633 560.086 989.453 560.141 989.289C560.195 989.117 560.281 988.969 560.398 988.844C560.516 988.719 560.664 988.621 560.844 988.551C561.023 988.473 561.242 988.434 561.5 988.434C561.719 988.434 561.914 988.477 562.086 988.562C562.266 988.641 562.418 988.742 562.543 988.867C562.668 988.984 562.766 989.113 562.836 989.254C562.906 989.387 562.941 989.508 562.941 989.617C562.941 989.883 562.926 990.152 562.895 990.426C562.871 990.691 562.852 990.961 562.836 991.234C562.836 992.094 562.828 992.855 562.812 993.52C562.805 994.176 562.793 994.781 562.777 995.336C562.762 995.711 562.75 996.102 562.742 996.508C562.734 996.906 562.73 997.273 562.73 997.609C562.73 998.367 562.73 998.969 562.73 999.414C562.73 999.859 562.75 1000.18 562.789 1000.39C562.859 1000.37 562.961 1000.34 563.094 1000.28C563.234 1000.23 563.363 1000.17 563.48 1000.11C563.59 1000.07 563.699 1000.03 563.809 999.988C563.918 999.949 564.055 999.93 564.219 999.93C564.406 999.93 564.57 999.973 564.711 1000.06C564.852 1000.14 564.969 1000.24 565.062 1000.38C565.164 1000.5 565.238 1000.64 565.285 1000.81C565.332 1000.96 565.355 1001.12 565.355 1001.27C565.355 1001.48 565.305 1001.69 565.203 1001.91C565.102 1002.12 564.914 1002.27 564.641 1002.37C564.406 1002.45 564.168 1002.54 563.926 1002.64C563.684 1002.73 563.438 1002.82 563.188 1002.89C562.945 1002.97 562.699 1003.04 562.449 1003.09C562.207 1003.15 561.957 1003.18 561.699 1003.18C561.395 1003.18 561.145 1003.11 560.949 1002.99C560.754 1002.86 560.602 1002.7 560.492 1002.51C560.383 1002.3 560.305 1002.08 560.258 1001.84C560.211 1001.6 560.184 1001.36 560.176 1001.12C559.934 1001.43 559.641 1001.71 559.297 1001.98C558.953 1002.25 558.574 1002.48 558.16 1002.68C557.746 1002.89 557.301 1003.05 556.824 1003.16C556.355 1003.28 555.871 1003.34 555.371 1003.34C554.355 1003.34 553.426 1003.16 552.582 1002.79C551.738 1002.41 551.012 1001.9 550.402 1001.24C549.801 1000.58 549.332 999.797 548.996 998.898C548.66 998 548.492 997.023 548.492 995.969ZM551.188 995.969C551.188 996.602 551.281 997.211 551.469 997.797C551.664 998.383 551.941 998.902 552.301 999.355C552.668 999.801 553.117 1000.16 553.648 1000.42C554.18 1000.69 554.781 1000.82 555.453 1000.82C556.117 1000.82 556.719 1000.69 557.258 1000.43C557.797 1000.18 558.266 999.84 558.664 999.426C559.07 999.012 559.402 998.551 559.66 998.043C559.918 997.527 560.094 997.012 560.188 996.496V995.465C560.102 994.988 559.938 994.484 559.695 993.953C559.461 993.422 559.148 992.934 558.758 992.488C558.375 992.035 557.914 991.664 557.375 991.375C556.836 991.078 556.227 990.93 555.547 990.93C554.906 990.93 554.32 991.062 553.789 991.328C553.258 991.586 552.797 991.945 552.406 992.406C552.023 992.859 551.723 993.391 551.504 994C551.293 994.609 551.188 995.266 551.188 995.969ZM568.273 1005.6C568.273 1005.48 568.297 1005.34 568.344 1005.18C568.398 1005.02 568.48 1004.88 568.59 1004.73C568.707 1004.6 568.855 1004.49 569.035 1004.39C569.215 1004.3 569.434 1004.25 569.691 1004.25C569.809 1004.25 569.922 1004.28 570.031 1004.32C570.141 1004.38 570.242 1004.45 570.336 1004.52C570.43 1004.61 570.516 1004.7 570.594 1004.79C570.68 1004.89 570.758 1004.97 570.828 1005.05C571.062 1005.34 571.305 1005.57 571.555 1005.74C571.805 1005.91 572.062 1006.04 572.328 1006.13C572.602 1006.22 572.887 1006.28 573.184 1006.3C573.48 1006.34 573.793 1006.35 574.121 1006.35C574.723 1006.35 575.277 1006.28 575.785 1006.14C576.301 1006.01 576.746 1005.77 577.121 1005.44C577.496 1005.11 577.793 1004.66 578.012 1004.1C578.238 1003.55 578.363 1002.85 578.387 1002.02C578.387 1002 578.383 1001.98 578.375 1001.97C578.375 1001.95 578.375 1001.94 578.375 1001.92C578.164 1002.12 577.922 1002.31 577.648 1002.48C577.383 1002.66 577.082 1002.8 576.746 1002.93C576.418 1003.05 576.055 1003.15 575.656 1003.22C575.258 1003.3 574.82 1003.34 574.344 1003.34C573.414 1003.34 572.527 1003.21 571.684 1002.96C570.84 1002.71 570.098 1002.3 569.457 1001.73C568.816 1001.16 568.305 1000.43 567.922 999.52C567.547 998.605 567.359 997.484 567.359 996.156C567.359 995.891 567.383 995.59 567.43 995.254C567.477 994.91 567.547 994.551 567.641 994.176C567.734 993.801 567.852 993.422 567.992 993.039C568.141 992.656 568.316 992.289 568.52 991.938C568.48 991.945 568.441 991.949 568.402 991.949C568.371 991.949 568.336 991.949 568.297 991.949C568.117 991.949 567.949 991.914 567.793 991.844C567.645 991.773 567.512 991.684 567.395 991.574C567.285 991.465 567.199 991.344 567.137 991.211C567.074 991.078 567.043 990.949 567.043 990.824C567.043 990.621 567.074 990.441 567.137 990.285C567.199 990.121 567.305 989.977 567.453 989.852C567.609 989.719 567.812 989.605 568.062 989.512C568.312 989.41 568.625 989.32 569 989.242C569.297 989.18 569.574 989.113 569.832 989.043C570.098 988.965 570.328 988.895 570.523 988.832C570.781 988.754 571.008 988.691 571.203 988.645C571.406 988.59 571.609 988.562 571.812 988.562C572.141 988.562 572.418 988.672 572.645 988.891C572.879 989.102 572.996 989.387 572.996 989.746C572.996 989.926 572.961 990.117 572.891 990.32C572.828 990.516 572.688 990.691 572.469 990.848C572.25 990.934 572.035 991.078 571.824 991.281C571.613 991.484 571.414 991.727 571.227 992.008C571.039 992.289 570.867 992.598 570.711 992.934C570.555 993.27 570.418 993.617 570.301 993.977C570.191 994.328 570.105 994.684 570.043 995.043C569.98 995.402 569.949 995.742 569.949 996.062C569.949 996.953 570.066 997.707 570.301 998.324C570.543 998.934 570.863 999.43 571.262 999.812C571.66 1000.19 572.121 1000.46 572.645 1000.62C573.168 1000.79 573.719 1000.87 574.297 1000.87C575.312 1000.87 576.145 1000.71 576.793 1000.4C577.449 1000.08 577.969 999.594 578.352 998.945V998.676V991.551C578.234 991.59 578.109 991.629 577.977 991.668C577.844 991.707 577.711 991.742 577.578 991.773C577.453 991.805 577.336 991.832 577.227 991.855C577.117 991.871 577.027 991.879 576.957 991.879C576.793 991.879 576.629 991.859 576.465 991.82C576.309 991.781 576.164 991.719 576.031 991.633C575.906 991.539 575.801 991.418 575.715 991.27C575.637 991.121 575.598 990.934 575.598 990.707C575.598 990.332 575.695 990.031 575.891 989.805C576.086 989.57 576.402 989.418 576.84 989.348L578.656 988.832L578.645 988.844C578.809 988.758 578.996 988.691 579.207 988.645C579.418 988.59 579.582 988.562 579.699 988.562C579.785 988.562 579.898 988.57 580.039 988.586C580.188 988.602 580.328 988.652 580.461 988.738C580.602 988.816 580.723 988.949 580.824 989.137C580.926 989.324 580.977 989.586 580.977 989.922C580.977 990.016 580.973 990.109 580.965 990.203C580.957 990.297 580.945 990.379 580.93 990.449C580.93 990.449 580.93 990.465 580.93 990.496C580.93 990.527 580.926 990.633 580.918 990.812C580.918 990.992 580.918 991.273 580.918 991.656C580.918 992.039 580.914 992.582 580.906 993.285C580.906 993.988 580.902 994.883 580.895 995.969C580.887 997.047 580.879 998.375 580.871 999.953C580.871 1000.3 580.883 1000.64 580.906 1001C580.93 1001.34 580.941 1001.73 580.941 1002.16C580.941 1003.46 580.77 1004.54 580.426 1005.4C580.09 1006.27 579.613 1006.96 578.996 1007.46C578.387 1007.97 577.656 1008.33 576.805 1008.53C575.953 1008.74 575.02 1008.85 574.004 1008.85C573.27 1008.85 572.559 1008.77 571.871 1008.6C571.184 1008.45 570.57 1008.22 570.031 1007.93C569.5 1007.64 569.074 1007.3 568.754 1006.9C568.434 1006.5 568.273 1006.07 568.273 1005.6ZM590.48 998.078C589.957 998.078 589.598 997.867 589.402 997.445C589.215 997.016 589.121 996.418 589.121 995.652C589.121 995.207 589.195 994.781 589.344 994.375C589.5 993.969 589.699 993.582 589.941 993.215C590.191 992.848 590.469 992.504 590.773 992.184C591.078 991.855 591.387 991.555 591.699 991.281C592.02 991 592.359 990.719 592.719 990.438C593.078 990.148 593.406 989.852 593.703 989.547C594.008 989.234 594.258 988.91 594.453 988.574C594.656 988.23 594.758 987.859 594.758 987.461C594.758 986.969 594.652 986.547 594.441 986.195C594.238 985.836 593.953 985.543 593.586 985.316C593.227 985.09 592.797 984.926 592.297 984.824C591.797 984.715 591.254 984.66 590.668 984.66C590.082 984.66 589.555 984.699 589.086 984.777C588.617 984.848 588.219 984.961 587.891 985.117C587.562 985.273 587.309 985.473 587.129 985.715C586.957 985.949 586.871 986.234 586.871 986.57C586.871 986.758 586.902 986.922 586.965 987.062C587.027 987.203 587.113 987.363 587.223 987.543C587.309 987.699 587.391 987.855 587.469 988.012C587.555 988.168 587.598 988.348 587.598 988.551C587.598 988.738 587.562 988.906 587.492 989.055C587.43 989.203 587.34 989.328 587.223 989.43C587.105 989.523 586.969 989.598 586.812 989.652C586.664 989.707 586.504 989.734 586.332 989.734C586.027 989.734 585.746 989.629 585.488 989.418C585.23 989.199 585.008 988.934 584.82 988.621C584.641 988.301 584.496 987.961 584.387 987.602C584.285 987.242 584.234 986.914 584.234 986.617C584.234 985.898 584.395 985.262 584.715 984.707C585.035 984.152 585.48 983.688 586.051 983.312C586.621 982.93 587.297 982.641 588.078 982.445C588.867 982.25 589.723 982.152 590.645 982.152C591.582 982.152 592.461 982.266 593.281 982.492C594.102 982.711 594.816 983.043 595.426 983.488C596.035 983.934 596.516 984.488 596.867 985.152C597.219 985.809 597.395 986.57 597.395 987.438C597.395 987.906 597.32 988.363 597.172 988.809C597.023 989.246 596.816 989.668 596.551 990.074C596.293 990.473 595.988 990.855 595.637 991.223C595.285 991.582 594.906 991.914 594.5 992.219C594.219 992.438 593.914 992.664 593.586 992.898C593.266 993.133 592.965 993.387 592.684 993.66C592.41 993.934 592.18 994.23 591.992 994.551C591.812 994.871 591.723 995.23 591.723 995.629C591.723 995.801 591.727 995.977 591.734 996.156C591.75 996.328 591.758 996.523 591.758 996.742C591.758 996.961 591.723 997.156 591.652 997.328C591.582 997.492 591.488 997.629 591.371 997.738C591.254 997.848 591.117 997.934 590.961 997.996C590.805 998.051 590.645 998.078 590.48 998.078ZM588.793 1002C588.801 1001.53 588.828 1001.13 588.875 1000.81C588.93 1000.48 589.016 1000.22 589.133 1000.04C589.258 999.84 589.422 999.703 589.625 999.625C589.828 999.539 590.09 999.496 590.41 999.496C590.676 999.496 590.891 999.543 591.055 999.637C591.219 999.73 591.34 999.848 591.418 999.988C591.504 1000.12 591.559 1000.27 591.582 1000.42C591.613 1000.57 591.629 1000.7 591.629 1000.81C591.629 1001.63 591.484 1002.26 591.195 1002.71C590.906 1003.15 590.539 1003.38 590.094 1003.38C589.883 1003.38 589.695 1003.33 589.531 1003.23C589.367 1003.14 589.23 1003.03 589.121 1002.89C589.012 1002.75 588.93 1002.61 588.875 1002.45C588.82 1002.29 588.793 1002.14 588.793 1002Z" fill="black"/>
<path d="M789.992 269.559C803.776 261.887 822.765 245.265 825.607 232.144C825.898 230.803 826.563 229.565 827.503 228.566C833.241 222.463 831.601 213.883 824.898 211.174C823.635 210.663 822.457 209.895 821.484 208.942C813.013 200.639 779.524 187.398 769.563 183.162C749.479 174.622 730.768 170.058 707.639 170.058C686.83 170.058 647.781 176.205 635.5 160.064C630.039 152.886 614.531 147.931 605.076 143.338C604.715 143.162 604.342 143.029 603.95 142.943C584.914 138.802 561.139 140.075 544.369 140.075C525.452 140.075 521.739 141.69 503.644 145.345C497.998 146.486 473.332 155.625 471.104 155.28C461.455 153.788 439.683 151.642 431.532 148.07C422.688 144.196 410.489 141.096 403.761 135.078C397.748 129.697 385.268 130.08 375.672 130.08C358.396 130.08 337.197 127.577 320.291 130.191C306.024 132.397 294.246 136.15 282.147 142.074C275.399 145.378 271.304 154.067 264.272 154.067C248.263 154.067 231.349 152.948 215.434 154.178C202.023 155.215 192.105 165.091 180.961 166.061C171.124 166.916 144.061 170.755 138.507 178.054C133.8 184.241 136.969 201.18 138.029 207.815C139.753 218.616 153.047 227.197 163.724 234.023C180.99 245.063 204.99 246.295 227.245 242.907C241.645 240.716 266.693 234.241 274.167 246.128C278.366 252.806 278.392 259.857 285.02 266.006C292.113 272.586 301.751 279.425 310.236 285.107C330.879 298.928 356.622 299.987 383.492 299.987C405.299 299.987 424.577 297.402 445.896 294.435C453.783 293.337 474.784 288.923 481.327 290.992C523.162 304.224 570.351 307.983 615.71 307.983C647.919 307.983 682.945 308.692 713.704 300.987C742.767 293.707 766.199 282.804 789.992 269.559Z" fill="white" fill-opacity="0.3" stroke="white" stroke-opacity="0.73" stroke-linecap="round"/>
<path d="M293.399 59.8414L293.864 75.1354C293.888 75.9321 293.721 76.721 293.376 77.4363L280.212 104.754C277.775 109.812 270.08 107.525 270.722 101.933L273.631 76.6017C273.706 75.9421 273.913 75.3056 274.24 74.7295L284.031 57.4487C286.516 53.0634 293.245 54.7821 293.399 59.8414Z" fill="white" stroke="black"/>
<path d="M241.979 222.554L302.573 187.249L258.538 161.146L222.126 185.72L241.979 222.554Z" fill="white" stroke="black"/>
<path d="M243.197 195.272L236.382 195.204L236.841 191.886C237.342 188.266 236.398 184.58 234.212 181.618L233.662 180.874C232.764 179.657 231.108 179.283 229.79 180.001L226.592 181.742C223.601 183.37 221.322 186.039 220.185 189.247L219.644 190.774L218.027 195.335C217.569 196.625 217.306 197.977 217.244 199.348L216.873 207.631C216.764 210.055 217.29 212.473 218.4 214.645L222.759 223.179L233.21 224.619C236.11 225.018 239.053 224.504 241.627 223.149L246.009 220.842C248.61 219.473 250.701 217.315 251.986 214.677L253.856 210.838C255.656 207.141 255.072 202.708 252.369 199.555C250.068 196.871 246.72 195.307 243.197 195.272Z" fill="black" stroke="white" stroke-width="0.5"/>
<path d="M349.653 187.267L369.091 201.336L359.907 214.846L356.491 231.407L326.191 210.429L349.653 187.267Z" fill="white" stroke="black"/>
<path d="M265.525 174.366L268.535 181.666C269.403 183.773 270.987 185.514 273.006 186.581C274.727 187.492 276.678 187.866 278.604 187.656L284.028 187.065L283.314 192.223C282.793 195.995 285.402 199.52 289.179 200.146L295.761 201.238L302.586 201.42C305.073 201.487 307.395 200.234 308.687 198.128L310.474 195.218L311.369 198.481C312.535 202.731 315.605 206.222 319.682 207.93C326.9 210.956 335.152 207.634 338.167 200.49L340.533 194.884L341.185 195.269C349.711 200.302 360.617 197.95 366.173 189.88L386.59 192.805L359.589 70.6576L357.528 69.4233C353.418 66.9618 348.789 65.5081 344.025 65.1829L342.97 65.1108C340.226 64.9236 337.476 65.2092 334.84 65.9553C329.232 67.5425 324.422 71.1312 321.322 76.0426L319.649 78.692L314.926 77.4621C307.594 75.5527 299.898 75.6844 292.678 77.8428L290.155 78.5973C286.324 79.7426 282.784 81.6772 279.762 84.2768C276.337 87.2239 273.669 90.9468 271.979 95.1399L267.413 106.463L265.202 106.704C260.498 107.217 256.531 110.372 254.991 114.825C254.386 116.575 254.186 118.443 254.408 120.289L255.117 126.2C251.271 127.09 247.954 129.474 245.896 132.824L244.882 134.477C243.833 136.185 243.056 138.047 242.579 139.997L242.521 140.233C241.351 145.018 241.901 150.079 244.077 154.537L245.826 158.118L242.822 164.42C241.238 167.742 241.489 171.663 243.486 174.795C245.078 177.291 247.622 179.035 250.521 179.618L250.923 179.699C253.844 180.286 256.868 179.744 259.381 178.183L265.525 174.366Z" fill="white" stroke="black"/>
<path d="M484.569 44.5203L496.084 44.0008C496.831 43.9671 497.58 43.9932 498.324 44.0787L513.822 45.8599C514.767 45.9685 515.7 46.1726 516.605 46.4691L532.391 51.6365C533.301 51.934 534.178 52.3231 535.009 52.7975L547.726 60.0517C548.716 60.6165 549.635 61.2985 550.462 62.0828L552.533 64.0456C555.3 66.6677 556.894 70.2861 556.951 74.0733L556.983 76.2146L541.65 79.3853C540.853 79.5503 540.041 79.6452 539.225 79.6691L523.998 80.1149C521.507 80.1879 519.034 79.5962 516.834 78.4008L495.245 66.6669C491.874 64.8349 489.385 61.7171 488.354 58.0355L484.569 44.5203Z" fill="black" stroke="white"/>
<path d="M537.269 104.262L540.059 105.376C549.068 108.973 552.568 119.891 547.283 127.913C545.462 130.677 542.777 132.759 539.638 133.842L371.498 191.825C368.315 192.923 364.861 193.021 361.599 192.105L360.241 191.723C352.254 189.481 347.481 181.278 349.521 173.3L347.244 171.408C338.84 164.423 338.277 151.778 346.036 144.246C339.644 137.801 337.676 128.216 341.034 119.877L356.594 81.2292C357.197 79.7316 357.669 78.1837 358.005 76.6025C361.06 62.2163 374.728 52.7178 389.374 54.8032L395.611 55.6913L397.898 51.9926C410.592 31.461 438.268 26.3 457.882 40.8068C470.864 34.3777 486.651 41.1465 491.055 55.0301L492.579 59.8341L496.199 59.0766C508.803 56.4388 520.387 67.0032 518.896 79.7753C530.326 78.5289 539.873 88.5868 537.994 99.8964L537.269 104.262Z" fill="white" stroke="black"/>
<path d="M356.782 119.559L359.144 118.284C364.382 115.457 368.902 111.482 372.368 106.654L372.831 106.009C374.733 103.359 376.241 100.447 377.308 97.3609C378.52 93.8591 379.148 90.1777 379.17 86.4616L379.191 82.8693L379.245 73.6655L368.472 76.536C363.225 77.9344 358.25 80.18 353.744 83.1845L349.339 86.1219C345.398 88.7496 341.859 91.9289 338.83 95.5635L334.763 100.442C331.101 104.835 328.233 109.834 326.285 115.217L322.853 124.7L327.726 125.227C337.794 126.316 347.924 124.34 356.782 119.559Z" fill="black" stroke="black"/>
<path d="M516.83 94.7166L516.025 94.9487C507.022 97.5452 497.389 93.2421 493.257 84.778L485.088 89.5583C478.187 93.5971 469.245 90.165 466.746 82.5181C461.029 100.003 441.27 108.463 424.444 100.63L417.599 97.443C415.383 106.109 408.036 112.467 399.111 113.44L391.829 114.234C397.721 123.857 394.969 136.326 385.602 142.445L378.054 147.377C382.531 153.605 380.717 162.267 374.138 166.08L367.63 169.853L371.703 178.623C372.452 180.238 373.435 181.737 374.618 183.071C396.842 204.425 428.464 212.855 458.139 205.338L510.308 192.122C515.069 190.916 519.609 188.987 523.769 186.403L530.988 181.917C547.793 171.477 553.803 149.952 544.893 132.119L540.636 123.597C538.464 119.252 534.568 116.001 529.902 114.643C523.202 112.693 518.295 106.923 517.467 100.021L516.83 94.7166Z" fill="#111010" stroke="black"/>
<path d="M387.571 207.414L395.272 203.772C402.237 200.478 409.842 207.185 407.433 214.498C407.195 215.222 406.862 215.911 406.443 216.547L400.135 226.121C399.542 227.02 398.792 227.803 397.918 228.433L385.258 237.563C384.174 238.345 382.927 238.873 381.607 239.109L368.702 241.413C364.957 242.082 361.17 240.323 359.246 237.021L356.4 232.138C355.085 229.88 354.807 227.175 355.64 224.72L359.418 213.582C359.822 212.39 360.474 211.299 361.332 210.38L369.853 201.252L372.421 198.66C378.873 192.148 389.875 198.526 387.571 207.414Z" fill="black" stroke="white" stroke-width="0.5"/>
<path d="M530.054 136.64C530.615 141.319 523.995 146.614 519.552 147.771C514.601 149.059 509.866 148.686 505.078 147.723" stroke="white" stroke-linecap="round"/>
<path d="M496.162 172.505C494.237 172.715 488.467 172.333 488.041 174.782C487.122 180.064 491.062 178.315 493.204 180.88C496.803 185.189 506.593 170.473 494.203 171.824" stroke="white" stroke-linecap="round"/>
<path d="M493.939 170.176C492.827 170.298 491.864 170.789 490.763 170.968C489.739 171.135 488.403 171.559 488.543 172.726" stroke="white" stroke-linecap="round"/>
<path d="M428.502 157.45C428.502 167.758 434.919 176.113 442.834 176.113C450.749 176.113 457.165 167.758 457.165 157.45C457.165 147.143 450.749 139.676 442.834 139.676C437.26 139.676 428.502 147.143 428.502 157.45Z" fill="white"/>
<path d="M428.502 157.45C428.502 167.758 434.919 176.113 442.834 176.113C450.749 176.113 457.165 167.758 457.165 157.45C457.165 147.143 450.749 139.676 442.834 139.676C437.26 139.676 428.502 147.143 428.502 157.45Z" fill="white"/>
<path d="M428.502 157.45C428.502 167.758 434.919 176.113 442.834 176.113C450.749 176.113 457.165 167.758 457.165 157.45C457.165 147.143 450.749 139.676 442.834 139.676C437.26 139.676 428.502 147.143 428.502 157.45Z" fill="white"/>
<path d="M428.502 157.45C428.502 167.758 434.919 176.113 442.834 176.113C450.749 176.113 457.165 167.758 457.165 157.45C457.165 147.143 450.749 139.676 442.834 139.676C437.26 139.676 428.502 147.143 428.502 157.45Z" fill="white"/>
<ellipse cx="7.16563" cy="9.77582" rx="7.16563" ry="9.77582" transform="matrix(-1 0 0 1 453.98 156.376)" fill="black"/>
<path d="M460.192 138.816C460.059 142.707 447.446 143.897 443.573 144.319C433.086 145.463 422.559 146.523 417.951 138.255" stroke="black" stroke-width="12" stroke-linecap="round"/>
<path d="M232.241 578.568V570.455H270.469V578.568H256.219V617H246.491V578.568H232.241ZM276.582 617V582.091H286.264V617H276.582ZM281.446 577.591C280.007 577.591 278.772 577.114 277.741 576.159C276.726 575.189 276.219 574.03 276.219 572.682C276.219 571.348 276.726 570.205 277.741 569.25C278.772 568.28 280.007 567.795 281.446 567.795C282.885 567.795 284.113 568.28 285.128 569.25C286.158 570.205 286.673 571.348 286.673 572.682C286.673 574.03 286.158 575.189 285.128 576.159C284.113 577.114 282.885 577.591 281.446 577.591ZM294.02 617V582.091H303.247V588.25H303.656C304.384 586.205 305.596 584.591 307.293 583.409C308.99 582.227 311.02 581.636 313.384 581.636C315.777 581.636 317.815 582.235 319.497 583.432C321.179 584.614 322.3 586.22 322.861 588.25H323.224C323.937 586.25 325.224 584.652 327.088 583.455C328.967 582.242 331.187 581.636 333.747 581.636C337.005 581.636 339.649 582.674 341.679 584.75C343.724 586.811 344.747 589.735 344.747 593.523V617H335.088V595.432C335.088 593.492 334.573 592.038 333.543 591.068C332.512 590.098 331.224 589.614 329.679 589.614C327.921 589.614 326.55 590.174 325.565 591.295C324.58 592.402 324.088 593.864 324.088 595.682V617H314.702V595.227C314.702 593.515 314.209 592.152 313.224 591.136C312.255 590.121 310.974 589.614 309.384 589.614C308.308 589.614 307.338 589.886 306.474 590.432C305.626 590.962 304.952 591.712 304.452 592.682C303.952 593.636 303.702 594.758 303.702 596.045V617H294.02ZM368.304 617.682C364.713 617.682 361.622 616.955 359.031 615.5C356.455 614.03 354.471 611.955 353.077 609.273C351.683 606.576 350.986 603.386 350.986 599.705C350.986 596.114 351.683 592.962 353.077 590.25C354.471 587.538 356.433 585.424 358.963 583.909C361.509 582.394 364.493 581.636 367.918 581.636C370.221 581.636 372.365 582.008 374.349 582.75C376.349 583.477 378.092 584.576 379.577 586.045C381.077 587.515 382.243 589.364 383.077 591.591C383.91 593.803 384.327 596.394 384.327 599.364V602.023H354.849V596.023H375.213C375.213 594.629 374.91 593.394 374.304 592.318C373.698 591.242 372.857 590.402 371.781 589.795C370.721 589.174 369.486 588.864 368.077 588.864C366.607 588.864 365.304 589.205 364.168 589.886C363.046 590.553 362.168 591.455 361.531 592.591C360.895 593.712 360.569 594.962 360.554 596.341V602.045C360.554 603.773 360.872 605.265 361.509 606.523C362.16 607.78 363.077 608.75 364.259 609.432C365.44 610.114 366.842 610.455 368.463 610.455C369.539 610.455 370.524 610.303 371.418 610C372.312 609.697 373.077 609.242 373.713 608.636C374.349 608.03 374.834 607.288 375.168 606.409L384.122 607C383.668 609.152 382.736 611.03 381.327 612.636C379.933 614.227 378.13 615.47 375.918 616.364C373.721 617.242 371.183 617.682 368.304 617.682ZM424.026 582.091V589.364H403.003V582.091H424.026ZM407.776 573.727H417.457V606.273C417.457 607.167 417.594 607.864 417.866 608.364C418.139 608.848 418.518 609.189 419.003 609.386C419.503 609.583 420.079 609.682 420.73 609.682C421.185 609.682 421.639 609.644 422.094 609.568C422.548 609.477 422.897 609.409 423.139 609.364L424.662 616.568C424.177 616.72 423.495 616.894 422.616 617.091C421.738 617.303 420.67 617.432 419.412 617.477C417.079 617.568 415.033 617.258 413.276 616.545C411.533 615.833 410.177 614.727 409.207 613.227C408.238 611.727 407.76 609.833 407.776 607.545V573.727ZM445.73 617.682C442.2 617.682 439.147 616.932 436.571 615.432C434.01 613.917 432.033 611.811 430.639 609.114C429.245 606.402 428.548 603.258 428.548 599.682C428.548 596.076 429.245 592.924 430.639 590.227C432.033 587.515 434.01 585.409 436.571 583.909C439.147 582.394 442.2 581.636 445.73 581.636C449.26 581.636 452.306 582.394 454.866 583.909C457.442 585.409 459.427 587.515 460.821 590.227C462.215 592.924 462.912 596.076 462.912 599.682C462.912 603.258 462.215 606.402 460.821 609.114C459.427 611.811 457.442 613.917 454.866 615.432C452.306 616.932 449.26 617.682 445.73 617.682ZM445.776 610.182C447.382 610.182 448.723 609.727 449.798 608.818C450.874 607.894 451.685 606.636 452.23 605.045C452.791 603.455 453.071 601.644 453.071 599.614C453.071 597.583 452.791 595.773 452.23 594.182C451.685 592.591 450.874 591.333 449.798 590.409C448.723 589.485 447.382 589.023 445.776 589.023C444.154 589.023 442.791 589.485 441.685 590.409C440.594 591.333 439.768 592.591 439.207 594.182C438.662 595.773 438.389 597.583 438.389 599.614C438.389 601.644 438.662 603.455 439.207 605.045C439.768 606.636 440.594 607.894 441.685 608.818C442.791 609.727 444.154 610.182 445.776 610.182ZM490.906 617L481.406 582.091H491.202L496.611 605.545H496.929L502.565 582.091H512.179L517.906 605.409H518.202L523.52 582.091H533.293L523.815 617H513.565L507.565 595.045H507.134L501.134 617H490.906ZM548.412 617.659C546.185 617.659 544.2 617.273 542.457 616.5C540.715 615.712 539.336 614.553 538.321 613.023C537.321 611.477 536.821 609.553 536.821 607.25C536.821 605.311 537.177 603.682 537.889 602.364C538.601 601.045 539.571 599.985 540.798 599.182C542.026 598.379 543.42 597.773 544.98 597.364C546.556 596.955 548.207 596.667 549.935 596.5C551.965 596.288 553.601 596.091 554.844 595.909C556.086 595.712 556.988 595.424 557.548 595.045C558.109 594.667 558.389 594.106 558.389 593.364V593.227C558.389 591.788 557.935 590.674 557.026 589.886C556.132 589.098 554.859 588.705 553.207 588.705C551.465 588.705 550.079 589.091 549.048 589.864C548.018 590.621 547.336 591.576 547.003 592.727L538.048 592C538.503 589.879 539.397 588.045 540.73 586.5C542.063 584.939 543.783 583.742 545.889 582.909C548.01 582.061 550.465 581.636 553.253 581.636C555.192 581.636 557.048 581.864 558.821 582.318C560.609 582.773 562.192 583.477 563.571 584.432C564.965 585.386 566.063 586.614 566.866 588.114C567.67 589.598 568.071 591.379 568.071 593.455V617H558.889V612.159H558.616C558.056 613.25 557.306 614.212 556.366 615.045C555.427 615.864 554.298 616.508 552.98 616.977C551.662 617.432 550.139 617.659 548.412 617.659ZM551.185 610.977C552.609 610.977 553.866 610.697 554.957 610.136C556.048 609.561 556.904 608.788 557.526 607.818C558.147 606.848 558.457 605.75 558.457 604.523V600.818C558.154 601.015 557.738 601.197 557.207 601.364C556.692 601.515 556.109 601.659 555.457 601.795C554.806 601.917 554.154 602.03 553.503 602.136C552.851 602.227 552.26 602.311 551.73 602.386C550.594 602.553 549.601 602.818 548.753 603.182C547.904 603.545 547.245 604.038 546.776 604.659C546.306 605.265 546.071 606.023 546.071 606.932C546.071 608.25 546.548 609.258 547.503 609.955C548.473 610.636 549.7 610.977 551.185 610.977ZM584.355 606.955L584.378 595.341H585.787L596.969 582.091H608.082L593.06 599.636H590.764L584.355 606.955ZM575.582 617V570.455H585.264V617H575.582ZM597.401 617L587.128 601.795L593.582 594.955L608.741 617H597.401ZM627.304 617.682C623.713 617.682 620.622 616.955 618.031 615.5C615.455 614.03 613.471 611.955 612.077 609.273C610.683 606.576 609.986 603.386 609.986 599.705C609.986 596.114 610.683 592.962 612.077 590.25C613.471 587.538 615.433 585.424 617.963 583.909C620.509 582.394 623.493 581.636 626.918 581.636C629.221 581.636 631.365 582.008 633.349 582.75C635.349 583.477 637.092 584.576 638.577 586.045C640.077 587.515 641.243 589.364 642.077 591.591C642.91 593.803 643.327 596.394 643.327 599.364V602.023H613.849V596.023H634.213C634.213 594.629 633.91 593.394 633.304 592.318C632.698 591.242 631.857 590.402 630.781 589.795C629.721 589.174 628.486 588.864 627.077 588.864C625.607 588.864 624.304 589.205 623.168 589.886C622.046 590.553 621.168 591.455 620.531 592.591C619.895 593.712 619.569 594.962 619.554 596.341V602.045C619.554 603.773 619.872 605.265 620.509 606.523C621.16 607.78 622.077 608.75 623.259 609.432C624.44 610.114 625.842 610.455 627.463 610.455C628.539 610.455 629.524 610.303 630.418 610C631.312 609.697 632.077 609.242 632.713 608.636C633.349 608.03 633.834 607.288 634.168 606.409L643.122 607C642.668 609.152 641.736 611.03 640.327 612.636C638.933 614.227 637.13 615.47 634.918 616.364C632.721 617.242 630.183 617.682 627.304 617.682ZM686.844 602.136V582.091H696.526V617H687.23V610.659H686.866C686.079 612.705 684.768 614.348 682.935 615.591C681.116 616.833 678.897 617.455 676.276 617.455C673.942 617.455 671.889 616.924 670.116 615.864C668.344 614.803 666.957 613.295 665.957 611.341C664.973 609.386 664.473 607.045 664.457 604.318V582.091H674.139V602.591C674.154 604.652 674.707 606.28 675.798 607.477C676.889 608.674 678.351 609.273 680.185 609.273C681.351 609.273 682.442 609.008 683.457 608.477C684.473 607.932 685.291 607.129 685.912 606.068C686.548 605.008 686.859 603.697 686.844 602.136ZM704.27 630.091V582.091H713.815V587.955H714.247C714.671 587.015 715.285 586.061 716.088 585.091C716.906 584.106 717.967 583.288 719.27 582.636C720.588 581.97 722.224 581.636 724.179 581.636C726.724 581.636 729.073 582.303 731.224 583.636C733.376 584.955 735.096 586.947 736.384 589.614C737.671 592.265 738.315 595.591 738.315 599.591C738.315 603.485 737.687 606.773 736.429 609.455C735.187 612.121 733.49 614.144 731.338 615.523C729.202 616.886 726.808 617.568 724.156 617.568C722.277 617.568 720.679 617.258 719.361 616.636C718.058 616.015 716.99 615.235 716.156 614.295C715.323 613.341 714.687 612.379 714.247 611.409H713.952V630.091H704.27ZM713.747 599.545C713.747 601.621 714.035 603.432 714.611 604.977C715.187 606.523 716.02 607.727 717.111 608.591C718.202 609.439 719.527 609.864 721.088 609.864C722.664 609.864 723.997 609.432 725.088 608.568C726.179 607.689 727.005 606.477 727.565 604.932C728.141 603.371 728.429 601.576 728.429 599.545C728.429 597.53 728.149 595.758 727.588 594.227C727.027 592.697 726.202 591.5 725.111 590.636C724.02 589.773 722.679 589.341 721.088 589.341C719.512 589.341 718.179 589.758 717.088 590.591C716.012 591.424 715.187 592.606 714.611 594.136C714.035 595.667 713.747 597.47 713.747 599.545ZM755.293 610.636L755.043 613.136C754.846 615.136 754.467 617.129 753.906 619.114C753.361 621.114 752.785 622.924 752.179 624.545C751.588 626.167 751.111 627.439 750.747 628.364H744.474C744.702 627.47 745.012 626.22 745.406 624.614C745.8 623.023 746.171 621.235 746.52 619.25C746.868 617.265 747.088 615.242 747.179 613.182L747.293 610.636H755.293ZM776.952 617V570.455H795.588C799.012 570.455 801.868 570.962 804.156 571.977C806.444 572.992 808.164 574.402 809.315 576.205C810.467 577.992 811.043 580.053 811.043 582.386C811.043 584.205 810.679 585.803 809.952 587.182C809.224 588.545 808.224 589.667 806.952 590.545C805.694 591.409 804.255 592.023 802.634 592.386V592.841C804.406 592.917 806.065 593.417 807.611 594.341C809.171 595.265 810.437 596.561 811.406 598.227C812.376 599.879 812.861 601.848 812.861 604.136C812.861 606.606 812.247 608.811 811.02 610.75C809.808 612.674 808.012 614.197 805.634 615.318C803.255 616.439 800.323 617 796.838 617H776.952ZM786.793 608.955H794.815C797.558 608.955 799.558 608.432 800.815 607.386C802.073 606.326 802.702 604.917 802.702 603.159C802.702 601.871 802.391 600.735 801.77 599.75C801.149 598.765 800.262 597.992 799.111 597.432C797.974 596.871 796.618 596.591 795.043 596.591H786.793V608.955ZM786.793 589.932H794.088C795.437 589.932 796.634 589.697 797.679 589.227C798.74 588.742 799.573 588.061 800.179 587.182C800.8 586.303 801.111 585.25 801.111 584.023C801.111 582.341 800.512 580.985 799.315 579.955C798.134 578.924 796.452 578.409 794.27 578.409H786.793V589.932ZM829.037 617.659C826.81 617.659 824.825 617.273 823.082 616.5C821.34 615.712 819.961 614.553 818.946 613.023C817.946 611.477 817.446 609.553 817.446 607.25C817.446 605.311 817.802 603.682 818.514 602.364C819.226 601.045 820.196 599.985 821.423 599.182C822.651 598.379 824.045 597.773 825.605 597.364C827.181 596.955 828.832 596.667 830.56 596.5C832.59 596.288 834.226 596.091 835.469 595.909C836.711 595.712 837.613 595.424 838.173 595.045C838.734 594.667 839.014 594.106 839.014 593.364V593.227C839.014 591.788 838.56 590.674 837.651 589.886C836.757 589.098 835.484 588.705 833.832 588.705C832.09 588.705 830.704 589.091 829.673 589.864C828.643 590.621 827.961 591.576 827.628 592.727L818.673 592C819.128 589.879 820.022 588.045 821.355 586.5C822.688 584.939 824.408 583.742 826.514 582.909C828.635 582.061 831.09 581.636 833.878 581.636C835.817 581.636 837.673 581.864 839.446 582.318C841.234 582.773 842.817 583.477 844.196 584.432C845.59 585.386 846.688 586.614 847.491 588.114C848.295 589.598 848.696 591.379 848.696 593.455V617H839.514V612.159H839.241C838.681 613.25 837.931 614.212 836.991 615.045C836.052 615.864 834.923 616.508 833.605 616.977C832.287 617.432 830.764 617.659 829.037 617.659ZM831.81 610.977C833.234 610.977 834.491 610.697 835.582 610.136C836.673 609.561 837.529 608.788 838.151 607.818C838.772 606.848 839.082 605.75 839.082 604.523V600.818C838.779 601.015 838.363 601.197 837.832 601.364C837.317 601.515 836.734 601.659 836.082 601.795C835.431 601.917 834.779 602.03 834.128 602.136C833.476 602.227 832.885 602.311 832.355 602.386C831.219 602.553 830.226 602.818 829.378 603.182C828.529 603.545 827.87 604.038 827.401 604.659C826.931 605.265 826.696 606.023 826.696 606.932C826.696 608.25 827.173 609.258 828.128 609.955C829.098 610.636 830.325 610.977 831.81 610.977ZM856.207 617V582.091H865.594V588.182H865.957C866.594 586.015 867.662 584.379 869.162 583.273C870.662 582.152 872.389 581.591 874.344 581.591C874.829 581.591 875.351 581.621 875.912 581.682C876.473 581.742 876.965 581.826 877.389 581.932V590.523C876.935 590.386 876.306 590.265 875.503 590.159C874.7 590.053 873.965 590 873.298 590C871.874 590 870.601 590.311 869.48 590.932C868.374 591.538 867.495 592.386 866.844 593.477C866.207 594.568 865.889 595.826 865.889 597.25V617H856.207ZM882.395 617V582.091H891.781V588.182H892.145C892.781 586.015 893.849 584.379 895.349 583.273C896.849 582.152 898.577 581.591 900.531 581.591C901.016 581.591 901.539 581.621 902.099 581.682C902.66 581.742 903.152 581.826 903.577 581.932V590.523C903.122 590.386 902.493 590.265 901.69 590.159C900.887 590.053 900.152 590 899.486 590C898.062 590 896.789 590.311 895.668 590.932C894.562 591.538 893.683 592.386 893.031 593.477C892.395 594.568 892.077 595.826 892.077 597.25V617H882.395ZM915.622 630.091C914.395 630.091 913.243 629.992 912.168 629.795C911.107 629.614 910.228 629.379 909.531 629.091L911.713 621.864C912.849 622.212 913.872 622.402 914.781 622.432C915.705 622.462 916.501 622.25 917.168 621.795C917.849 621.341 918.402 620.568 918.827 619.477L919.395 618L906.872 582.091H917.054L924.281 607.727H924.645L931.94 582.091H942.19L928.622 620.773C927.971 622.652 927.084 624.288 925.963 625.682C924.857 627.091 923.455 628.174 921.759 628.932C920.062 629.705 918.016 630.091 915.622 630.091ZM958.713 570.455L957.827 603.045H949.509L948.599 570.455H958.713ZM953.668 617.591C952.168 617.591 950.88 617.061 949.804 616C948.728 614.924 948.198 613.636 948.213 612.136C948.198 610.652 948.728 609.379 949.804 608.318C950.88 607.258 952.168 606.727 953.668 606.727C955.107 606.727 956.372 607.258 957.463 608.318C958.554 609.379 959.107 610.652 959.122 612.136C959.107 613.136 958.842 614.053 958.327 614.886C957.827 615.705 957.168 616.364 956.349 616.864C955.531 617.348 954.637 617.591 953.668 617.591Z" fill="white"/>
<defs>
<linearGradient id="paint0_linear_566_387" x1="68.6895" y1="199.164" x2="351.962" y2="1109.83" gradientUnits="userSpaceOnUse">
<stop stop-color="#FFD466"/>
<stop offset="1" stop-color="#FF4D00"/>
</linearGradient>
</defs>
</svg>
