<svg width="1062" height="662" viewBox="0 0 1062 662" fill="none" xmlns="http://www.w3.org/2000/svg">
<path d="M63.5443 573.167C41.765 555.004 11.4665 514.897 8.85387 484.471C8.76224 483.404 8.3607 482.396 7.72316 481.536C-2.94166 467.139 -0.2888 445.043 11.2433 439.242C12.5724 438.574 13.7322 437.581 14.4798 436.294C25.4173 417.474 79.0654 385.717 94.7018 375.756C125.335 356.242 153.872 345.815 189.148 345.815C220.886 345.815 280.442 359.86 299.173 322.978C307.538 306.508 331.358 295.159 345.761 284.624C346.186 284.313 346.648 284.07 347.149 283.906C376.207 274.387 412.545 277.305 438.164 277.305C467.016 277.305 472.679 280.995 500.276 289.347C508.888 291.954 546.508 312.835 549.906 312.048C564.622 308.639 597.828 303.734 610.261 295.574C623.749 286.722 642.355 279.638 652.616 265.887C661.788 253.594 680.821 254.468 695.457 254.468C721.806 254.468 754.139 248.749 779.923 254.722C801.682 259.763 819.647 268.336 838.1 281.872C848.392 289.422 854.637 309.276 865.362 309.276C889.779 309.276 915.575 306.719 939.848 309.53C960.304 311.899 975.43 334.466 992.427 336.68C1007.43 338.635 1048.71 347.407 1057.18 364.084C1064.36 378.222 1059.52 416.924 1057.91 432.087C1055.28 456.765 1035 476.371 1018.72 491.97C992.382 517.194 955.778 520.009 921.836 512.269C899.873 507.261 861.67 492.467 850.271 519.627C843.866 534.886 843.826 550.998 833.718 565.047C822.9 580.083 808.201 595.708 795.258 608.69C763.775 640.271 724.511 642.692 683.53 642.692C650.27 642.692 620.868 636.783 588.353 630.005C576.324 627.497 544.293 617.41 534.314 622.139C470.509 652.371 398.537 660.961 329.357 660.961C280.231 660.961 226.811 662.58 179.898 644.975C135.572 628.341 99.8338 603.429 63.5443 573.167Z" fill="white" fill-opacity="0.3" stroke="white" stroke-opacity="0.73" stroke-linecap="round"/>
<path d="M408.755 14.0373C413.858 14.3082 455.697 11.5006 453.966 15.6578C446.233 34.2381 425.766 44.7871 413.104 59.8263C400.762 74.4845 435.123 61.2891 441.268 60.0868C458.766 56.6638 476.414 57.4429 494.216 54.2542" stroke="black" stroke-width="3" stroke-linecap="round"/>
<path d="M328 151.742C340.872 149.917 352.944 142.449 366.178 142.449C366.429 142.449 363.767 146.126 363.577 146.476C360.948 151.322 359.019 156.326 356.087 161.034C350.969 169.252 346.864 178.438 342.148 186.949C339.777 191.227 329.253 218.103 338.195 212.245C351.984 203.212 366.497 190.769 384.174 190.769" stroke="black" stroke-width="3" stroke-linecap="round"/>
<path d="M772.773 186.558L771.878 215.987C771.854 216.784 772.021 217.574 772.366 218.289L796.453 268.224C798.891 273.28 806.584 270.989 805.942 265.398L800.397 217.149C800.321 216.489 800.114 215.853 799.787 215.276L782.141 184.162C779.655 179.779 772.927 181.5 772.773 186.558Z" fill="white" stroke="black"/>
<path d="M845.107 423.304L759.604 373.535L821.741 336.738L873.122 371.379L845.107 423.304Z" fill="white" stroke="black"/>
<path d="M841.98 384.86L853.005 384.75L852.038 377.764C851.536 374.141 852.482 370.452 854.671 367.488L859.058 361.551L868.727 366.81C871.718 368.436 873.998 371.105 875.136 374.312L876.624 378.506L879.188 385.73C879.646 387.021 879.911 388.375 879.972 389.747L880.602 403.78C880.711 406.207 880.184 408.627 879.072 410.801L872.228 424.187L855.644 426.468C852.747 426.867 849.806 426.354 847.234 425.001L837.775 420.027C835.175 418.659 833.083 416.503 831.797 413.866L827.602 405.259C825.515 400.977 826.193 395.84 829.326 392.188L831.362 389.815C834.027 386.71 837.903 384.901 841.98 384.86Z" fill="black" stroke="white" stroke-width="0.5"/>
<path d="M693.17 373.561L665.741 393.393L678.701 412.439L683.521 435.785L726.277 406.211L693.17 373.561Z" fill="white" stroke="black"/>
<path d="M811.881 355.375L807.637 365.661C806.41 368.634 804.174 371.091 801.324 372.596C798.896 373.879 796.145 374.406 793.43 374.111L785.773 373.277L787.165 383.33C787.687 387.103 785.076 390.629 781.298 391.255L769.217 393.256L757.933 393.557C755.447 393.624 753.127 392.373 751.834 390.269L748.455 384.771L747.196 389.356C745.549 395.356 741.211 400.283 735.455 402.694C725.271 406.958 713.633 402.275 709.376 392.2L706.039 384.299L705.115 384.844C693.084 391.94 677.7 388.625 669.859 377.246L641.049 381.369L679.149 209.179L682.053 207.441C687.856 203.969 694.389 201.919 701.113 201.461L702.603 201.359C706.473 201.095 710.352 201.498 714.07 202.549C721.986 204.787 728.774 209.849 733.153 216.777L735.508 220.505L742.173 218.771C752.519 216.079 763.378 216.264 773.565 219.307L777.133 220.373C782.535 221.986 787.527 224.712 791.789 228.375C796.625 232.531 800.391 237.783 802.778 243.698L809.218 259.653L812.35 259.994C818.981 260.717 824.572 265.162 826.745 271.437C827.6 273.906 827.881 276.542 827.569 279.148L826.569 287.476C831.996 288.731 836.678 292.092 839.583 296.819L841.01 299.141C842.491 301.551 843.588 304.178 844.262 306.93L844.342 307.256C845.994 314.003 845.217 321.139 842.146 327.424L839.679 332.471L843.916 341.351C846.152 346.037 845.797 351.566 842.978 355.983C840.733 359.499 837.148 361.956 833.062 362.777L832.484 362.893C828.363 363.721 824.098 362.957 820.554 360.758L811.881 355.375Z" fill="white" stroke="black"/>
<path d="M502.792 172.332L486.081 171.579C485.335 171.546 484.586 171.572 483.843 171.657L460.928 174.288C459.984 174.396 459.052 174.6 458.146 174.896L434.748 182.548C433.839 182.845 432.962 183.234 432.13 183.708L413.06 194.576C412.069 195.14 411.15 195.822 410.322 196.606L405.115 201.536C402.344 204.159 400.748 207.78 400.691 211.57L400.61 217.012L422.739 221.583C423.536 221.748 424.347 221.843 425.162 221.867L448.721 222.556C451.211 222.628 453.682 222.038 455.881 220.844L489.892 202.377C493.265 200.545 495.757 197.427 496.79 193.744L502.792 172.332Z" fill="black" stroke="white"/>
<path d="M428.428 256.55L424.489 258.121C411.781 263.19 406.844 278.589 414.302 289.897C416.868 293.789 420.652 296.721 425.074 298.244L662.354 379.99C666.84 381.536 671.707 381.673 676.304 380.384L678.244 379.84C689.505 376.681 696.235 365.117 693.357 353.872L696.566 351.207C708.423 341.363 709.219 323.529 698.275 312.915C707.293 303.83 710.069 290.314 705.331 278.559L683.376 224.084C682.525 221.971 681.858 219.786 681.384 217.555C677.073 197.274 657.805 183.886 637.154 186.823L628.319 188.08L625.097 182.874C607.177 153.918 568.135 146.641 540.449 167.098C522.128 158.033 499.851 167.588 493.63 187.179L491.489 193.92L486.349 192.846C468.581 189.131 452.25 204.027 454.353 222.031C438.226 220.274 424.756 234.469 427.409 250.424L428.428 256.55Z" fill="white" stroke="black"/>
<path d="M688.712 281.133L678.551 275.654C671.967 272.104 666.284 267.111 661.925 261.045L660.461 259.008C657.779 255.275 655.652 251.171 654.146 246.822C652.437 241.884 651.549 236.693 651.519 231.453L651.489 226.391L651.414 213.417L669.878 218.332C675.122 219.728 680.093 221.97 684.596 224.97L696.057 232.604C699.997 235.229 703.536 238.405 706.566 242.037L716.452 253.885C720.116 258.277 722.987 263.275 724.937 268.659L730.987 285.361L717.743 286.791C707.684 287.878 697.563 285.905 688.712 281.133Z" fill="black" stroke="black"/>
<path d="M457.268 243.093L458.422 243.426C471.118 247.083 484.701 241.016 490.533 229.083L502.074 235.83C511.807 241.52 524.415 236.679 527.942 225.897C536.012 250.552 563.874 262.479 587.61 251.44L597.292 246.937C600.419 259.154 610.779 268.115 623.363 269.485L633.655 270.607C625.344 284.169 629.222 301.747 642.428 310.367L653.093 317.328C646.779 326.105 649.334 338.317 658.61 343.688L667.802 349.012L662.057 361.375C660.998 363.652 659.612 365.765 657.942 367.646C626.579 397.75 581.979 409.636 540.124 399.044L466.457 380.402C459.749 378.704 453.352 375.989 447.489 372.349L437.271 366.008C413.574 351.299 405.101 320.95 417.674 295.81L423.675 283.811C426.74 277.682 432.239 273.098 438.821 271.184C448.277 268.435 455.203 260.294 456.372 250.555L457.268 243.093Z" fill="#111010" stroke="black"/>
<path d="M636.182 388.543L639.665 401.961L621.665 393.458C614.509 390.078 606.698 396.971 609.175 404.481L611.775 412.365C612.02 413.109 612.362 413.816 612.793 414.47L622.304 428.891C622.896 429.789 623.647 430.572 624.521 431.201L643.606 444.951C644.689 445.732 645.935 446.259 647.255 446.494L668.464 450.278C672.399 450.98 676.354 449.002 678.172 445.423L683.367 435.193C684.468 433.026 684.651 430.518 683.876 428.235L677.574 409.671C677.223 408.638 676.685 407.679 675.987 406.842L664.667 393.275L651.346 379.846C644.892 373.339 633.876 379.657 636.182 388.543Z" fill="black" stroke="white" stroke-width="0.5"/>
<path d="M438.609 302.191C437.816 308.788 447.159 316.252 453.428 317.883C460.414 319.699 467.096 319.173 473.852 317.816" stroke="white" stroke-linecap="round"/>
<path d="M555.573 331.346C555.622 335.774 571.07 340.105 574.819 340.514C584.973 341.62 591.935 339.417 596.576 329.92" stroke="white" stroke-linecap="round"/>
<path d="M486.434 352.75C489.149 353.045 497.291 352.508 497.892 355.96C499.189 363.406 493.629 360.94 490.607 364.555C485.529 370.63 471.715 349.885 489.197 351.789" stroke="white" stroke-linecap="round"/>
<path d="M489.569 349.466C491.14 349.637 492.498 350.329 494.052 350.582C495.497 350.818 497.382 351.415 497.185 353.06" stroke="white" stroke-linecap="round"/>
<path d="M558.056 184.41L558.081 184.421L558.107 184.431L578.029 191.962L578.088 191.984L578.149 191.999L594.501 196.026L594.528 196.033L594.555 196.038L610.862 199.14L613.909 230.476L594.817 229.431L576.736 226.827L558.064 222.515L539.81 215.631L526.564 208.544C519.129 204.566 512.106 199.867 505.602 194.52L492.372 183.642L513.067 161.962L533.189 173.464L533.236 173.491L533.287 173.513L558.056 184.41Z" fill="#F5C18D" stroke="black" stroke-width="2"/>
<path d="M610.484 192.68L610.471 192.562L610.431 192.45L603.489 172.987C601.085 166.248 597.679 159.875 593.383 154.079L592.665 153.111C588.856 147.97 584.595 143.163 579.933 138.745C574.175 133.288 567.838 128.457 561.035 124.337L560.308 123.896L573.661 119.337L582.93 116.822C587.149 115.678 591.462 114.864 595.827 114.389L605.74 113.31L614.847 113.076L624.607 113.722L633.171 114.925C637.601 115.548 641.973 116.57 646.23 117.979L648.305 118.665C652.279 119.98 656.094 121.741 659.675 123.911L660.204 124.232L660.696 123.43L660.204 124.232C662.619 125.696 664.9 127.367 667.02 129.225C670.541 132.311 673.585 135.883 676.053 139.826L676.072 139.856C677.755 143.387 678.976 147.105 679.704 150.919L680.098 152.982L680.937 160.855L681.239 169.978L680.364 179.499L679.143 188.032L664.189 240.78L664.181 240.809L664.175 240.838L661.284 254.107L661.278 254.137L661.273 254.168L659.396 266.561L659.386 266.625L659.385 266.69L659.291 272.361C659.179 279.092 658.008 285.742 655.82 292.075L653.926 297.554L643.716 294.723L638.034 288.64C634.675 284.699 631.733 280.437 629.253 275.922L628.331 274.242L623.177 262.564L620.489 255.027C618.395 249.157 616.766 243.146 615.617 237.049L614.396 230.567L611.497 202.494L611.423 201.776L610.484 192.68ZM557.97 124.785L560.005 126.017C566.681 130.06 572.9 134.801 578.55 140.156C583.124 144.491 587.305 149.208 591.044 154.252L591.761 155.22C595.937 160.855 599.249 167.051 601.586 173.603L608.488 192.953L609.349 201.288L594.516 197.802L578.39 194.011L565.477 189.203L533.951 175.895L515.281 165.021L524.017 152.217L532.15 142.797L537.353 138.14L542.246 134.387L549.925 129.183L557.97 124.785Z" fill="#E19999" stroke="black" stroke-width="2"/>
<path d="M696.323 302.12L698.327 302.086L698.376 302.085L698.425 302.089L699.952 302.209C701.708 302.346 703.454 302.606 705.178 302.986L705.213 302.994L705.247 303.004L707.042 303.53C707.434 303.646 707.806 303.825 708.14 304.061L708.463 304.29C709.112 304.749 709.533 305.458 709.615 306.233C709.676 306.806 709.548 307.38 709.249 307.868L709.188 307.968C708.917 308.409 708.534 308.771 708.075 309.021L706.925 309.645C706.26 310.006 705.546 310.272 704.801 310.434L702.594 310.917C701.18 311.226 699.738 311.409 698.284 311.463L692.128 311.691L694.98 312.979L698.802 314.464L698.861 314.487L698.917 314.517L700.366 315.294C701.481 315.892 702.378 316.823 702.922 317.949C703.371 318.877 703.563 319.901 703.478 320.914L703.455 321.186C703.406 321.764 703.257 322.327 703.013 322.85C702.643 323.645 702.068 324.326 701.342 324.828L700.128 325.668C698.952 326.482 697.615 327.051 696.198 327.342L694.73 327.644C693.873 327.82 693.002 327.934 692.125 327.987L685.444 328.385L687.795 330.353L687.815 330.369L687.833 330.386L689.483 331.911C689.75 332.157 689.992 332.429 690.206 332.721C690.519 333.15 690.769 333.621 690.946 334.117L690.991 334.244L691.404 335.402L690.174 335.536C689.191 335.643 688.192 335.544 687.242 335.246L678.34 332.45L679.787 333.827L679.795 333.835L679.795 333.835L680.255 334.282C681.717 335.703 682.909 337.369 683.773 339.196C684.133 339.956 683.61 340.816 682.765 340.853L681.158 340.923M696.323 302.12L681.158 340.923M696.323 302.12C698.744 300.819 701.056 299.337 703.241 297.686C703.982 297.126 704.56 296.386 704.922 295.536L705.011 295.325L705.66 293.802L703.973 293.937L702.588 294.049C701.931 294.102 701.285 294.23 700.663 294.432C699.941 294.666 699.257 294.995 698.63 295.412L696.256 296.99L693.426 298.778L696.345 293.548L696.396 293.456L696.426 293.355L698.081 287.814C698.563 286.202 698.055 284.439 696.775 283.277C696.081 282.648 695.21 282.242 694.283 282.117L692.96 281.938C691.655 281.761 690.334 281.877 689.096 282.278L687.489 282.798L687.435 282.816L687.384 282.839C683.136 284.77 679.202 287.288 675.698 290.317L673.397 292.306L673.866 291.135C675.235 287.711 676.134 284.113 676.538 280.436L676.741 278.584C676.889 277.236 675.221 276.419 674.246 277.361C671.681 279.843 669.481 282.665 667.706 285.749L666.633 287.612L661.805 295.743M696.323 302.12L661.805 295.743M681.158 340.923C680.988 340.931 680.819 340.907 680.66 340.855M681.158 340.923L680.66 340.855M680.66 340.855C678.405 340.12 676.21 339.12 674.176 337.893L670.871 335.898L671.934 338.435L671.959 338.495L671.976 338.557L672.699 341.193C672.984 342.232 673.071 343.31 672.954 344.371L672.729 346.423L671.238 344.927C670.501 344.187 669.844 343.375 669.279 342.504L669.21 342.397C668.777 341.731 668.395 341.035 668.067 340.315L667.004 337.984L666.965 337.898L666.942 337.806L666.344 335.346L665.349 338.253L665.324 338.326L665.288 338.393L664.181 340.471C663.823 341.142 663.382 341.766 662.866 342.327L662.559 342.661L661.803 341.988L662.559 342.661C661.693 343.605 660.59 344.31 659.355 344.71L659.327 344.719C658.779 344.896 658.209 345.009 657.631 345.056C656.487 345.148 655.331 344.978 654.254 344.559L653.871 344.41C653.203 344.151 652.567 343.817 651.975 343.415L651.27 342.937L651.831 342.126L651.27 342.937C650.769 342.596 650.293 342.218 649.848 341.808C648.859 340.894 648.033 339.825 647.403 338.646L646.276 336.536L646.221 336.433L646.192 336.322L644.207 328.893M680.66 340.855L644.207 328.893M644.207 328.893L643.338 332.14L642.613 335.638L640.615 335.409L640.476 325.08L634.088 330.726C633.718 331.053 633.226 331.215 632.723 331.176C632.268 331.14 631.838 330.942 631.515 330.618L632.228 329.933L631.515 330.618L631.097 330.198C630.736 329.836 630.461 329.402 630.292 328.926L630.232 328.759C629.986 328.07 629.928 327.333 630.065 326.624L631.647 318.387L631.664 318.301L631.695 318.22L634.913 309.957L628.778 312.934L628.75 312.947L628.721 312.959L625.888 314.12C625.163 314.417 624.319 314.04 624.055 313.3C623.935 312.963 623.954 312.596 624.109 312.28L625.007 310.453C625.695 309.052 626.645 307.794 627.809 306.743L628.419 306.193C629.845 304.906 631.487 303.871 633.277 303.13L634.215 302.742C636.005 302 637.888 301.485 639.82 301.207L642.228 300.861L640.638 300.298C640.139 300.122 639.653 299.911 639.184 299.668L639.639 298.794L639.184 299.668L637.891 298.997C636.858 298.461 635.994 297.65 635.403 296.659C634.97 295.934 635.503 295.042 636.351 295.075L636.711 295.089C638.481 295.158 640.241 295.458 641.942 295.981L647.326 297.636L647.402 297.659L647.473 297.694L653.116 300.413L655.055 291.064L655.067 291.005L655.087 290.948L657.194 284.793L657.197 284.784L657.387 284.21C658.035 282.248 659.056 280.431 660.395 278.854L661.175 279.498L660.395 278.854L660.481 278.753M644.207 328.893L660.481 278.753M660.481 278.753C661.243 277.855 662.74 278.212 663.043 279.363C663.539 281.251 663.65 283.209 663.369 285.121L661.805 295.743M660.481 278.753L661.805 295.743" fill="#E9E4E4" stroke="black" stroke-width="2"/>
<path d="M421.85 209.038C377.66 209.038 335.456 210.586 295.374 237.873C303.95 232.034 262.41 206.77 256.991 205.634C220.224 197.933 155.71 201.381 132.574 246.883C117.195 277.128 124.638 324.517 125.956 356.814C126.914 380.283 151.568 415.061 163.604 428.9C186.023 454.677 183.586 480.145 214.129 479.36C232.013 478.901 303.127 498.301 318.541 486.496C329.012 478.477 345.703 475.362 358.919 479.36C374.488 484.071 388.469 469.49 402.968 479.36C445.798 508.518 471.764 441.958 511.265 426.898C527.175 420.833 544.367 421.051 559.797 412.881C568.428 408.311 571.804 415.011 579.209 418.888C588.191 423.592 598.993 436.77 606.416 445.12C619.646 460.001 634.748 468.682 650.094 478.56C681.324 498.661 724.464 499.286 758.04 490.974C768.208 488.457 778.81 491.188 789.07 489.973C803.403 488.276 813.886 479.499 826.866 472.953C836.628 468.03 852.138 475.756 863.338 475.756C884.417 475.756 909.207 480.599 929.37 472.152C942.419 466.685 953.141 454.027 961.136 439.513C973.265 417.495 975.499 403.329 973.195 378.24C971.455 359.285 966.598 329.524 956.577 314.364C950.608 305.334 942.188 300.379 935.988 291.937C927.244 280.032 921.137 264.508 912.164 252.29C899.572 235.146 883.336 221.579 867.75 209.839C845.732 193.255 808.801 180.204 783.482 180.204C758.236 180.204 732.068 177.401 707.155 183.808C697.298 186.343 663.653 208.958 655.536 203.432C647.075 197.672 638.725 190.295 630.388 183.808C617.596 173.856 591.293 179.089 577.15 182.006C560.622 185.416 542.935 183.687 526.707 189.415C506.614 196.508 489.252 209.251 469.793 218.249C456.002 224.627 436.756 209.038 421.85 209.038Z" fill="white" fill-opacity="0.1" stroke="white" stroke-opacity="0.38" stroke-linecap="round"/>
</svg>
