<svg width="995" height="434" viewBox="0 0 995 434" fill="none" xmlns="http://www.w3.org/2000/svg">
<path d="M604.755 129.654C691.291 175.473 646.832 226.205 628.827 246.663C625.344 250.62 617.517 259.214 612.645 261.225C608.913 262.765 605.204 264.088 603.181 264.776C596.915 266.907 578.425 268.859 572.101 267.621C553.737 264.026 546.862 256.435 529.615 247.312C525.848 245.319 526.076 242.857 522.431 245.795C517.536 249.741 513.167 254.374 508.303 258.417C502.35 263.366 494.901 266.566 488.523 270.755C481.249 275.532 475.232 277.398 467.096 277.398C455.067 277.398 443.861 273.76 432.325 269.711C429.173 268.604 421.914 263.074 418.747 264.776C415.823 266.347 413.099 268.219 410.113 269.711C392.527 278.493 371.762 287.917 352.904 287.917C336.318 287.917 323.065 290.117 309.215 277.398C303.172 271.848 293.007 250.651 293.007 240.481V232.984C293.007 230.082 291.814 230.733 290.574 228.523C286.762 221.73 280.831 215.56 279.036 207.36C277.64 200.982 277.67 187.739 279.036 181.544C282.266 166.898 289.657 145.864 313.088 145.864C321.345 145.032 327.256 147.881 335.461 148.521C347.129 149.431 356.017 157.198 366.556 162.709C369.834 164.423 370.365 163.155 373.615 161.19C379.69 157.517 385.136 153.058 390.765 148.521C416.06 128.131 446.453 129.685 474.945 136.895C484.628 139.346 493.759 142.648 502.809 147.572C508.7 150.777 518.671 155.231 521.764 162.709C521.872 162.97 522.579 161.053 523.294 160.573C524.442 159.802 524.983 159.087 525.806 157.821C528.645 153.453 531.861 149.566 535.264 145.864C542.15 138.369 551.234 133.241 559.674 128.829C566.814 125.095 591.642 128.376 601.476 128.787C602.598 128.834 603.763 129.128 604.755 129.654Z" fill="white" fill-opacity="0.3" stroke="white" stroke-opacity="0.5" stroke-width="3" stroke-linecap="round"/>
<circle cx="10.5" cy="10.5" r="10.5" transform="matrix(-1 0 0 1 282 238.062)" fill="white" fill-opacity="0.3"/>
<circle cx="10.5" cy="10.5" r="10" transform="matrix(-1 0 0 1 282 238.062)" stroke="white" stroke-opacity="0.5"/>
<circle cx="5.5" cy="5.5" r="5.5" transform="matrix(-1 0 0 1 235 253.062)" fill="white" fill-opacity="0.3"/>
<circle cx="5.5" cy="5.5" r="5" transform="matrix(-1 0 0 1 235 253.062)" stroke="white" stroke-opacity="0.5"/>
<path d="M906.242 30.8952C909.022 31.6012 912.211 33.0412 915.557 34.8514C931.474 43.4606 942.863 58.9665 948.986 75.9952C954.812 92.1975 954.804 109.925 948.963 126.122L947.378 130.519C942.206 144.859 932.5 156.365 919.772 164.755C912.524 169.532 906.528 171.398 898.421 171.398C886.435 171.398 875.269 167.76 863.775 163.711C860.634 162.604 853.4 157.074 850.244 158.776C847.331 160.347 844.617 162.219 841.641 163.711C824.119 172.493 803.428 181.917 784.637 181.917C768.11 181.917 754.904 184.117 741.104 171.398C735.082 165.848 724.954 144.651 724.954 134.481V126.984C724.954 124.082 723.765 124.733 722.529 122.523C718.73 115.73 712.821 109.559 711.032 101.36C709.641 94.9817 709.671 81.7388 711.032 75.544C714.251 60.8978 721.615 39.8634 744.962 39.8634C753.19 39.0314 759.081 41.8807 767.256 42.5207C778.882 43.4309 787.738 51.1982 798.24 56.7086C801.506 58.4227 802.035 57.1552 805.274 55.1901C811.328 51.5174 816.754 47.0584 822.363 42.5207C847.567 22.1314 877.852 23.6849 906.242 30.8952Z" fill="#D9D9D9" fill-opacity="0.3" stroke="white" stroke-opacity="0.5" stroke-width="3" stroke-linecap="round"/>
<circle cx="10.5" cy="10.5" r="10.5" transform="matrix(-1 0 0 1 714 132.062)" fill="white" fill-opacity="0.3"/>
<circle cx="10.5" cy="10.5" r="10" transform="matrix(-1 0 0 1 714 132.062)" stroke="white" stroke-opacity="0.5"/>
<circle cx="5.5" cy="5.5" r="5.5" transform="matrix(-1 0 0 1 667 147.062)" fill="white" fill-opacity="0.3"/>
<circle cx="5.5" cy="5.5" r="5" transform="matrix(-1 0 0 1 667 147.062)" stroke="white" stroke-opacity="0.5"/>
<path d="M853.713 131.202L858.486 126.436L860.964 127.513L855.994 133.315C855.423 133.982 854.413 134.044 853.764 133.452C853.109 132.854 853.085 131.829 853.713 131.202Z" fill="black" fill-opacity="0.7"/>
<path d="M889.384 127.375L887.498 126.064L887.137 123.306L889.588 122.985L891.178 124.413L892.005 124.933C892.92 125.508 893.222 126.701 892.691 127.643C892.126 128.564 890.861 128.739 890.067 128.006L889.384 127.375Z" fill="black" fill-opacity="0.7"/>
<path d="M895.187 123.287L891.282 121.049L890.306 119.541L891.447 118.145L896.86 119.617C897.647 119.911 898.078 120.758 897.85 121.566L897.615 122.401C897.255 123.385 896.096 123.808 895.187 123.287Z" fill="black" fill-opacity="0.7"/>
<path d="M853.713 131.202L858.486 126.436L860.964 127.513L855.994 133.315C855.423 133.982 854.413 134.044 853.764 133.452C853.109 132.854 853.085 131.829 853.713 131.202Z" stroke="white" stroke-opacity="0.7"/>
<path d="M889.384 127.375L887.498 126.064L887.137 123.306L889.588 122.985L891.178 124.413L892.005 124.933C892.92 125.508 893.222 126.701 892.691 127.643C892.126 128.564 890.861 128.739 890.067 128.006L889.384 127.375Z" stroke="white" stroke-opacity="0.7"/>
<path d="M895.187 123.287L891.282 121.049L890.306 119.541L891.447 118.145L896.86 119.617C897.647 119.911 898.078 120.758 897.85 121.566L897.615 122.401C897.255 123.385 896.096 123.808 895.187 123.287Z" stroke="white" stroke-opacity="0.7"/>
<path d="M848.669 125.429L854.494 122.128L856.24 124.159L855.734 124.459L850.643 128.779C849.797 129.497 848.505 129.255 847.976 128.28C847.342 127.307 847.659 126.001 848.669 125.429Z" fill="black" fill-opacity="0.7" stroke="white" stroke-opacity="0.7"/>
<path d="M855.63 123.458L855.105 122.85C854.528 122.183 854.159 121.361 854.045 120.486C853.945 119.724 854.042 118.949 854.325 118.235L854.654 117.407L854.038 117.458C853.742 117.482 853.448 117.387 853.222 117.193C852.948 116.959 852.804 116.607 852.836 116.248L852.876 115.794C852.899 115.535 852.98 115.285 853.113 115.062L853.333 114.691C853.507 114.398 853.514 114.035 853.353 113.734C853.062 113.194 853.338 112.523 853.925 112.345L856.528 111.553C857.025 111.401 857.478 111.131 857.848 110.765L859.632 108.997C860.175 108.459 860.588 107.804 860.838 107.082L860.967 106.711L862.976 105.717C863.629 105.394 864.203 104.933 864.658 104.365L864.8 104.189C865.309 103.555 865.655 102.808 865.81 102.01L865.946 101.306L866.745 101.615C867.408 101.871 868.119 101.983 868.83 101.943L868.962 101.936C869.543 101.903 870.114 101.769 870.648 101.541L871.976 100.972C872.123 100.909 872.253 100.81 872.354 100.685L873.85 98.8175C873.859 98.8064 873.85 98.7901 873.836 98.792C873.822 98.7938 873.813 98.7779 873.822 98.7667L874.196 98.2793C874.24 98.2224 874.304 98.1853 874.375 98.1759L874.78 98.1229C875.299 98.0549 875.806 98.3161 876.052 98.7782L876.263 99.1753L876.889 98.7196C877.505 98.2706 878.224 97.9835 878.98 97.8845C879.634 97.7988 880.299 97.8561 880.928 98.0523L881.079 98.0992C881.742 98.306 882.355 98.6488 882.879 99.1057L884.724 100.716L885.604 100.601C886.482 100.486 887.374 100.61 888.188 100.96L888.314 101.014C889.396 101.479 890.257 102.344 890.719 103.428C891.128 104.389 891.196 105.46 890.913 106.465L890.393 108.31L891.068 108.685C892.094 109.255 892.871 110.187 893.249 111.298L893.264 111.342C893.452 111.897 893.531 112.483 893.494 113.067C893.418 114.307 892.832 115.459 891.876 116.252L891.477 116.583L891.261 119.956C891.219 120.628 890.993 121.275 890.609 121.827C890.139 122.502 889.458 123.001 888.673 123.244L887.713 123.542L887.745 123.786C887.86 124.664 887.643 125.553 887.136 126.279C886.751 126.831 886.217 127.261 885.597 127.521L885.342 127.628C884.537 127.964 883.652 128.06 882.794 127.903L881.874 127.735L881.613 128.19C881.122 129.046 880.381 129.73 879.488 130.152C879.035 130.366 878.551 130.508 878.055 130.573L876.954 130.717C876.012 130.84 875.053 130.693 874.191 130.291L872.772 129.629L872.043 130.394C871.363 131.108 870.458 131.568 869.48 131.696C868.666 131.803 867.839 131.675 867.095 131.328L866.964 131.267C866.011 130.822 865.23 130.078 864.74 129.148L864.459 128.614L863.685 129.158C863.242 129.47 862.659 129.502 862.184 129.241C861.874 129.07 861.638 128.789 861.524 128.453L861.466 128.284C861.293 127.775 860.91 127.364 860.415 127.156L858.774 126.466C858.427 126.32 858.163 126.027 858.053 125.667C857.987 125.451 857.98 125.221 858.033 125.001L858.205 124.291L857.916 124.329C857.311 124.408 856.698 124.27 856.185 123.94C855.978 123.807 855.791 123.645 855.63 123.458Z" fill="white" fill-opacity="0.7" stroke="white" stroke-opacity="0.7"/>
<path d="M855.797 94.61L858.242 94.8352L858.81 95.6756C859.09 96.0907 859.641 96.2217 860.078 95.9768L861.165 95.3682C861.338 95.271 861.558 95.338 861.647 95.5156L861.815 95.8485C862.076 96.3655 862.518 96.7678 863.058 96.9779L863.351 97.092C864.182 97.4156 864.686 98.2636 864.572 99.1483L865.97 98.1342C866.691 97.6115 867.511 97.2423 868.38 97.0496L868.51 97.0209C869.254 96.8558 870.024 96.8383 870.775 96.9692C871.703 97.1312 872.579 97.5158 873.327 98.0902L873.921 98.5471L873.728 98.9131C873.163 99.9812 872.261 100.852 871.179 101.389C870.461 101.744 869.665 101.947 868.865 101.974L867.971 102.004C867.776 102.011 867.581 101.976 867.4 101.903L867.249 101.842C866.496 101.538 865.656 102.009 865.523 102.809C865.493 102.988 865.424 103.159 865.323 103.31L864.781 104.111C864.255 104.89 863.52 105.505 862.66 105.883L862.5 105.954C861.504 106.393 860.7 107.176 860.236 108.159C859.987 108.688 859.637 109.163 859.206 109.558L858.744 109.983C857.787 110.861 856.624 111.485 855.362 111.794L855.247 111.823L853.572 112.343C853.242 112.445 852.903 112.519 852.56 112.564L852.37 112.589C851.624 112.687 850.865 112.621 850.147 112.397L849.768 112.279C849.344 112.147 848.952 111.93 848.614 111.642C848.429 111.483 848.227 111.346 848.011 111.233L847.845 111.145C847.235 110.824 846.722 110.345 846.36 109.759C846.137 109.397 845.975 109.002 845.881 108.588L845.798 108.222C845.584 107.284 845.609 106.307 845.87 105.381C846.029 104.815 846.275 104.277 846.597 103.785L847.924 101.762C848.313 101.168 848.815 100.655 849.4 100.253L851.757 98.6347C852.004 98.4655 852.135 98.1722 852.096 97.8757C852.055 97.564 851.834 97.3056 851.533 97.2163L850.46 96.8984C850.053 96.778 849.684 96.5568 849.385 96.2553L848.875 95.7393C848.386 95.2449 847.998 94.6596 847.733 94.0164L847.22 92.7728L848.528 92.4326C848.86 92.346 849.202 92.3032 849.546 92.305C850.327 92.3091 851.089 92.5441 851.737 92.9804L852.423 93.4421C853.23 93.9862 854.147 94.3474 855.109 94.5005L855.797 94.61Z" fill="black" fill-opacity="0.7" stroke="white" stroke-opacity="0.7"/>
<path d="M856.349 89.7968L856.618 90.7625L855.329 90.4681C854.772 90.341 854.188 90.4697 853.737 90.8188L853.702 90.8455C853.125 91.2922 852.866 92.038 853.042 92.7466L853.166 93.244C853.307 93.8114 853.831 94.1988 854.415 94.1676L855.334 94.0472L855.634 94.3241C855.729 94.4116 855.805 94.5169 855.859 94.6341C856.062 95.079 856.564 95.3036 857.031 95.1586L857.562 94.9938C858.02 94.8519 858.506 95.102 858.657 95.5564C858.842 96.1158 859.515 96.3375 859.997 95.9982L860.582 95.5862C861.218 95.1383 862.105 95.4522 862.318 96.2002C862.408 96.5162 862.631 96.7773 862.929 96.9155L864.232 97.5198C864.698 97.736 865.22 97.802 865.725 97.7086L866.098 97.6398C866.292 97.6039 866.472 97.5165 866.621 97.3867C866.984 97.0689 867.098 96.5508 866.9 96.1102L866.573 95.3801L866.879 95.3399C867.471 95.2624 867.888 94.7193 867.811 94.1271C867.73 93.5118 867.325 92.9875 866.749 92.7549L865.788 92.3663C866.943 91.2704 865.986 89.3404 864.415 89.597L862.353 89.9335L862.477 89.4933C862.501 89.4094 862.518 89.3237 862.528 89.237C862.587 88.7218 862.399 88.209 862.02 87.8549L861.903 87.7463C861.571 87.436 861.118 87.2904 860.668 87.3494C860.156 87.4164 859.713 87.7381 859.492 88.204L859.175 88.8694L858.642 88.3838C858.361 88.1283 857.988 87.9976 857.609 88.0218C856.721 88.0784 856.109 88.939 856.349 89.7968Z" fill="white" fill-opacity="0.7" stroke="white" stroke-opacity="0.7"/>
<circle cx="790.746" cy="101.353" r="17.3412" fill="#FFE49E" fill-opacity="0.8"/>
<path d="M796.872 70.0625V76.8416" stroke="#FFE49E" stroke-opacity="0.8" stroke-width="3" stroke-linecap="round"/>
<path d="M815.215 100.37H825.982" stroke="#FFE49E" stroke-opacity="0.8" stroke-width="3" stroke-linecap="round"/>
<path d="M809.233 87.2102C811.572 84.8712 813.921 82.4804 816.81 80.8298" stroke="#FFE49E" stroke-opacity="0.8" stroke-width="3" stroke-linecap="round"/>
<path d="M774.141 78.0378C772.438 76.335 770.798 73.7497 768.558 72.8538" stroke="#FFE49E" stroke-opacity="0.8" stroke-width="3" stroke-linecap="round"/>
<path d="M755 95.1857H765.767" stroke="#FFE49E" stroke-opacity="0.8" stroke-width="3" stroke-linecap="round"/>
<path d="M768.957 113.528C767.491 113.821 766.401 116.085 765.368 117.117" stroke="#FFE49E" stroke-opacity="0.8" stroke-width="3" stroke-linecap="round"/>
<path d="M786.902 127.087V135.062" stroke="#FFE49E" stroke-opacity="0.8" stroke-width="3" stroke-linecap="round"/>
<path d="M808.037 116.32C809.342 116.392 811.851 117.567 812.423 118.712" stroke="#FFE49E" stroke-opacity="0.8" stroke-width="3" stroke-linecap="round"/>
<path d="M297 209.68C297.147 208.472 298.595 206.673 299.447 205.799C300.156 205.072 300.972 201.938 301.548 203.643C302.3 205.873 302.688 207.895 303.92 209.882C304.469 210.766 305.806 212.875 306.787 212.875C310.267 212.875 309.884 208.089 313.559 211.861C314.882 213.218 315.024 210.405 315.907 209.68C317.363 208.485 317.099 209.065 318.577 209.908C319.992 210.715 321.11 210.85 321.815 209.223C322.039 208.704 322.49 205.622 323.05 205.622C324.148 205.622 325.109 208.213 325.818 208.868C326.882 209.851 328.442 210.115 329.822 209.223C331.449 208.172 332.214 207.923 333.703 209.451C334.782 210.559 334.625 212.41 336.051 210.948C337.832 209.12 342.16 202.163 343.688 207.651C344.988 212.319 346.952 207.248 349.719 207.879C351.509 208.287 353.775 214.068 356.268 210.846C357.67 209.034 365.067 198.275 365.067 205.571C365.067 206.834 364.744 208.467 365.512 209.451C365.891 209.938 366.426 210.162 366.846 210.593C366.987 210.737 367.703 211.899 367.761 211.632C368.294 209.173 369.693 206.677 369.961 204.201C370.135 202.595 372.132 205.468 372.383 205.799C373.052 206.682 373.132 207.854 374.409 207.854C376.263 207.854 376.983 205.995 378.067 204.759C378.654 204.09 379.171 201.737 379.97 203.542C380.485 204.703 381.121 208.661 382.862 208.767C384.397 208.859 385.731 208.284 387.113 207.879C388.294 207.533 389.033 206.332 389.511 208.538C389.966 210.641 390.298 208.49 390.771 207.397C391.305 206.165 391.545 204.727 392.205 203.542C392.607 202.82 394.074 207.298 394.33 207.854C394.906 209.102 395.033 210.281 395.665 211.506C396.769 213.646 398.46 206.94 400.657 206.94C402.36 206.94 402.12 216.328 403.772 210.821C404.025 209.975 404.364 206.556 405.551 206.484C406.73 206.413 408.551 207.965 409.11 208.969C409.381 209.456 409.555 205.044 409.555 204.201C409.555 201.912 411.72 206.182 411.78 207.042C411.901 208.784 412.224 210.406 412.224 212.19C412.224 214.445 413.659 210.335 413.905 209.578C414.238 208.553 415.816 205.157 417.316 205.596C418.336 205.896 419.519 209.286 419.812 210.339C420.907 214.27 422.877 208.571 423.594 207.625C426.469 203.831 426.387 212.697 428.784 210.238C431.18 207.779 431.633 209.712 433.48 211.607C435.163 213.335 435.238 210.871 436.248 209.02C437.428 206.858 438.775 204.955 440.252 203.06C442.148 200.629 446.273 207.184 447.593 208.538C447.948 208.903 449.082 211.303 449.496 211.303C450.181 211.303 450.128 207.965 450.583 207.498C451.533 206.524 454.674 214.615 456.614 210.136C456.811 209.68 457.211 206.841 458.245 207.448C459.518 208.194 458.479 211.128 460.939 210.567C462.227 210.274 462.078 208.661 463.831 208.767C465.037 208.839 465.223 211.62 466.302 211.937C467.994 212.433 466.696 214.806 467.934 211.861C468.955 209.429 470.518 206.955 472.086 204.886C475.144 200.851 475.808 207.44 479.154 206.459C480.586 206.039 480.167 202.82 481.28 202.02C481.79 201.654 482.708 206.388 483.059 206.839C484.279 208.404 484.115 208.858 485.828 207.854C486.773 207.299 488.206 207.136 488.299 208.767C488.318 209.096 489.496 211.046 489.659 210.796C490.046 210.199 491.057 206.686 491.661 206.509C492.711 206.201 493.558 207.914 494.528 208.411C496.289 209.315 496.401 206.34 497.197 204.911C499.43 200.901 500.806 207.702 501.992 209.325C502.441 209.939 502.71 210.823 503.079 211.506C503.468 212.224 504.406 212.494 504.76 213.129C506.453 216.169 506.465 210.373 506.885 209.122C507.139 208.368 508.28 206.01 509.431 206.535C510.637 207.085 510.341 209.262 511.68 209.654C513.035 210.051 512.887 207.47 514.102 207.397C515.559 207.309 516.142 208.983 517.019 209.882C519.977 212.918 520.05 208.395 522.011 206.383C523.937 204.406 524.993 211.876 525.224 208.665C525.348 206.951 526.336 206.104 527.671 205.343C529.379 204.369 529.1 205.982 529.673 207.6C529.869 208.154 531.045 211.157 531.354 210.593C532.094 209.242 533.432 208.383 534.122 207.143C535.141 205.313 536.076 207.322 536.692 207.955C538.203 209.505 541.808 206.721 543.366 206.129C546.132 205.078 547.695 201.52 550.583 204.658C552.45 206.687 553.419 208.12 556.144 208.741C556.622 208.85 558.442 206.839 558.937 206.383C560.36 205.068 561.152 207.093 562.372 207.372C563.591 207.65 564.58 207.977 565.709 207.296C566.654 206.725 567.83 204.435 569.268 205.216C571.161 206.245 572.165 209.88 573.815 211.404C575.406 212.873 577.043 210.659 578.19 209.629C580.636 207.433 582.737 205.811 585.481 204.201C585.819 204.003 588.105 202.734 588.299 202.933C588.792 203.439 588.689 206.752 588.867 207.575C589.055 208.441 589.785 209.648 590.523 210.238C590.583 210.285 592.298 205.558 592.402 204.658C592.635 202.618 593.706 203.789 594.181 204.886C594.646 205.959 595.072 207.145 595.862 207.955C596.501 208.611 597.417 206.484 598.407 206.484C599.999 206.484 600.229 207.844 601.101 208.995C601.528 209.557 603.204 211.365 603.622 210.593C604.334 209.279 605.26 207.432 606.415 206.484C607.111 205.913 607.985 207.099 608.862 207.498C610.841 208.401 611.41 207.716 612.421 206.129C613.535 204.381 614.25 205.407 614.621 206.738C614.919 207.807 616.513 209.68 617.76 209.68C618.729 209.68 622.045 204.39 623.098 206.281C624.274 208.392 624.495 206.253 625.768 205.672C627.439 204.91 627.704 205.584 629.129 206.002C629.794 206.197 630.006 205.257 630.439 204.911C630.965 204.491 631.813 204.658 632.441 204.658C633.658 204.658 634.955 206.226 636 206.94" stroke="black" stroke-width="3" stroke-linecap="round"/>
<path d="M233.699 284.211L233.615 287.118C233.593 287.888 233.748 288.651 234.069 289.351L237.401 296.601C239.769 301.756 247.531 299.608 246.914 293.97L246.345 288.769C246.275 288.127 246.081 287.505 245.774 286.936L243.096 281.98C240.666 277.48 233.847 279.1 233.699 284.211Z" fill="white" stroke="black"/>
<path d="M266.187 384.589L228.135 361.335L255.789 344.142L278.656 360.328L266.187 384.589Z" fill="white" stroke="black"/>
<path d="M265.668 366.617L269.703 366.575L269.638 366.088C269.179 362.604 270.047 359.074 272.069 356.2L272.396 355.735L274.837 357.129C277.368 358.574 279.281 360.896 280.214 363.657L281.024 366.052C281.448 367.306 281.692 368.614 281.748 369.937L281.907 373.656C282.006 375.98 281.525 378.292 280.507 380.383L278.258 385.001L273.335 385.712C270.454 386.128 267.515 385.592 264.967 384.185L264.507 383.931C262.322 382.725 260.578 380.854 259.527 378.591L258.671 376.747C257.568 374.371 257.92 371.573 259.578 369.544C261.074 367.714 263.305 366.642 265.668 366.617Z" fill="black" stroke="white"/>
<path d="M198.569 361.347L186.362 370.613L192.13 379.512L194.275 390.421L213.303 376.603L198.569 361.347Z" fill="white" stroke="black"/>
<path d="M104.393 355.258L92.1854 364.525L97.953 373.424L100.098 384.332L119.127 370.514L104.393 355.258Z" fill="white" stroke="black"/>
<path d="M251.401 352.849L249.467 357.768C248.95 359.086 247.989 360.182 246.752 360.868C245.641 361.484 244.366 361.738 243.104 361.593L239.781 361.213L239.941 362.426C240.432 366.148 237.899 369.595 234.201 370.238L232.911 370.462C232.579 370.52 232.244 370.554 231.908 370.563L229.749 370.624C227.194 370.695 224.803 369.369 223.512 367.163L223.173 366.584L222.53 369.043C221.848 371.651 220.011 373.805 217.543 374.89C212.98 376.896 207.662 374.729 205.801 370.105L204.296 366.364L203.978 366.561C198.64 369.866 191.64 368.317 188.194 363.068L175.373 364.994L192.329 284.54L193.711 283.672C196.232 282.088 199.104 281.149 202.073 280.936L202.723 280.889C204.473 280.764 206.231 280.956 207.913 281.455C211.403 282.491 214.379 284.795 216.257 287.914L217.411 289.832L220.37 289.024C224.971 287.767 229.837 287.858 234.388 289.285L235.809 289.73C238.295 290.51 240.584 291.817 242.518 293.563C244.631 295.47 246.265 297.848 247.287 300.505L250.215 308.124L251.335 308.252C254.444 308.607 257.062 310.738 258.042 313.709C258.406 314.812 258.526 315.98 258.394 317.133L257.937 321.124C260.348 321.709 262.418 323.249 263.671 325.39L264.4 326.635C265.036 327.721 265.504 328.897 265.79 330.122L265.855 330.398C266.587 333.538 266.246 336.833 264.885 339.756L263.772 342.147L265.688 346.364C266.67 348.523 266.52 351.029 265.287 353.056C264.259 354.747 262.572 355.94 260.635 356.348C258.769 356.742 256.818 356.379 255.22 355.337L251.401 352.849Z" fill="white" stroke="black"/>
<path d="M113.842 267.324L107.078 267.004C106.298 266.967 105.516 266.995 104.741 267.089L96.0485 268.137C95.0712 268.254 94.109 268.475 93.1779 268.795L84.336 271.83C83.415 272.146 82.5296 272.558 81.694 273.058L74.5832 277.312C73.6932 277.845 72.8714 278.484 72.1358 279.215C69.7677 281.569 68.4151 284.756 68.3676 288.095L68.3661 288.2L77.493 290.18C78.3277 290.361 79.1772 290.465 80.0308 290.491L87.5307 290.721C90.1068 290.8 92.6547 290.167 94.8937 288.891L105.368 282.92C108.62 281.066 110.995 277.986 111.961 274.369L113.842 267.324Z" fill="black" stroke="white"/>
<path d="M80.7464 306.674L79.0279 307.394C73.2637 309.808 71.044 316.818 74.3681 322.11C75.5684 324.021 77.373 325.475 79.495 326.243L184.651 364.277C186.775 365.046 189.089 365.116 191.255 364.478L191.608 364.374C196.844 362.832 199.944 357.45 198.652 352.147L200.15 350.841C205.469 346.205 205.785 338.045 200.84 333.011C204.884 328.734 206.115 322.516 204.005 317.022L194.183 291.435C193.822 290.494 193.54 289.524 193.34 288.536C191.426 279.08 182.44 272.781 172.898 274.206L169.707 274.682L168.169 272.072C160.372 258.845 142.733 255.467 130.601 264.878C122.518 260.68 112.608 264.857 109.971 273.576L108.811 277.411L107.258 277.07C98.9698 275.251 91.3458 282.112 92.2844 290.545C85.07 289.72 79.0559 296 80.1917 303.172L80.7464 306.674Z" fill="white" stroke="black"/>
<path d="M193.866 316.622L192.771 316.002C189.376 314.08 186.465 311.407 184.261 308.187L184.055 307.886C182.832 306.1 181.868 304.15 181.19 302.094C180.436 299.809 180.046 297.42 180.033 295.014L180.019 292.583L179.985 286.521L184.897 287.894C189.418 289.157 193.692 291.177 197.538 293.867C200.827 296.167 203.766 298.931 206.263 302.073L206.584 302.477C209.768 306.484 212.248 311.002 213.917 315.84L215.399 320.136L212.641 320.449C206.136 321.187 199.564 319.847 193.866 316.622Z" fill="black" stroke="black"/>
<path d="M93.5817 300.387L93.6853 300.418C99.5395 302.189 105.805 299.385 108.386 293.84L113.199 296.795C117.649 299.526 123.481 297.337 125.035 292.352C128.578 303.718 141.416 309.254 152.114 304.031L155.899 302.182C157.286 307.874 162.075 312.098 167.895 312.763L172.082 313.242C168.345 319.644 170.186 327.845 176.301 332.035L180.733 335.072C177.888 339.223 179.112 344.911 183.411 347.525L187.279 349.876L184.714 355.67C184.248 356.723 183.634 357.704 182.89 358.583C168.996 372.585 148.678 378.095 129.613 373.03L97.9987 364.63C94.7976 363.78 91.7524 362.425 88.9774 360.617L85.1119 358.098C74.2289 351.006 70.2742 336.955 75.8604 325.228L78.6852 319.298C80.0151 316.506 82.4572 314.402 85.4149 313.499C89.6098 312.218 92.6456 308.572 93.144 304.214L93.5817 300.387Z" fill="#111010" stroke="black"/>
<path d="M174.757 374.617L170.327 372.42C165.789 370.169 160.768 374.461 162.286 379.294C162.434 379.764 162.641 380.213 162.903 380.629L166.552 386.438C167.132 387.361 167.874 388.171 168.744 388.829L175.553 393.979C176.664 394.82 177.955 395.391 179.325 395.648L183.952 396.514C187.834 397.242 191.722 395.279 193.442 391.723C194.424 389.694 194.585 387.364 193.891 385.219L191.894 379.042C191.562 378.015 191.048 377.056 190.376 376.211L185.883 370.558L184.627 369.229C180.523 364.885 173.322 368.815 174.757 374.617Z" fill="black" stroke="black"/>
<path d="M82.6818 364.542L78.252 362.344C73.714 360.094 68.6937 364.386 70.2117 369.219C70.3592 369.688 70.5665 370.137 70.8283 370.554L74.4772 376.363C75.057 377.286 75.7996 378.096 76.669 378.753L83.4781 383.904C84.5894 384.744 85.8808 385.316 87.2503 385.572L91.8774 386.439C95.7595 387.166 99.6477 385.203 101.368 381.648C102.349 379.618 102.51 377.288 101.816 375.144L99.819 368.966C99.4869 367.939 98.9729 366.981 98.3014 366.136L93.8088 360.483L92.5526 359.153C88.4483 354.809 81.2477 358.74 82.6818 364.542Z" fill="black" stroke="black"/>
<path d="M85.2771 328C84.9246 331.082 89.0823 334.57 91.8725 335.332C94.9814 336.18 97.9553 335.935 100.962 335.301" stroke="white" stroke-linecap="round"/>
<path d="M137.332 341.622C137.353 343.691 144.229 345.715 145.897 345.906C150.416 346.422 153.514 345.393 155.58 340.956" stroke="white" stroke-linecap="round"/>
<path d="M106.562 351.623C107.77 351.761 111.393 351.51 111.661 353.123C112.238 356.602 109.764 355.45 108.419 357.139C106.159 359.978 100.011 350.284 107.791 351.174" stroke="white" stroke-linecap="round"/>
<path d="M107.957 350.089C108.656 350.169 109.26 350.493 109.952 350.611C110.595 350.721 111.434 351 111.346 351.768" stroke="white" stroke-linecap="round"/>
</svg>
