<svg width="846" height="345" viewBox="0 0 846 345" fill="none" xmlns="http://www.w3.org/2000/svg">
<path d="M754.755 34.5911C841.291 80.41 796.832 131.142 778.827 151.6C775.344 155.557 767.517 164.152 762.645 166.162C758.913 167.702 755.204 169.025 753.181 169.713C746.915 171.844 728.425 173.796 722.101 172.558C703.737 168.963 696.862 161.373 679.615 152.249C675.848 150.256 676.076 147.794 672.431 150.733C667.536 154.679 663.167 159.312 658.303 163.355C652.35 168.303 644.901 171.504 638.523 175.692C631.249 180.47 625.232 182.335 617.096 182.335C605.067 182.335 593.861 178.698 582.325 174.648C579.173 173.542 571.914 168.011 568.747 169.713C565.823 171.285 563.099 173.157 560.113 174.648C542.527 183.431 521.762 192.855 502.904 192.855C486.318 192.855 473.065 195.054 459.215 182.335C453.172 176.786 443.007 155.589 443.007 145.418V137.921C443.007 135.02 441.814 135.67 440.574 133.461C436.762 126.668 430.831 120.497 429.036 112.298C427.64 105.919 427.67 92.6764 429.036 86.4816C432.266 71.8354 439.657 50.801 463.088 50.801C471.345 49.969 477.256 52.8183 485.461 53.4583C497.129 54.3685 506.017 62.1358 516.556 67.6462C519.834 69.3603 520.365 68.0928 523.615 66.1277C529.69 62.455 535.136 57.996 540.765 53.4583C566.06 33.069 596.453 34.6225 624.945 41.8328C634.628 44.2834 643.759 47.5854 652.809 52.5093C658.7 55.7146 668.671 60.1686 671.764 67.6462C671.872 67.9075 672.579 65.991 673.294 65.5109C674.442 64.7399 674.983 64.0245 675.806 62.7587C678.645 58.39 681.861 54.5035 685.264 50.801C692.15 43.3068 701.234 38.1789 709.674 33.7661C716.814 30.033 741.642 33.314 751.476 33.7249C752.598 33.7718 753.763 34.0656 754.755 34.5911Z" fill="white" fill-opacity="0.3" stroke="white" stroke-opacity="0.5" stroke-width="3" stroke-linecap="round"/>
<circle cx="10.5" cy="10.5" r="10.5" transform="matrix(-1 0 0 1 432 143)" fill="white" fill-opacity="0.3"/>
<circle cx="10.5" cy="10.5" r="10" transform="matrix(-1 0 0 1 432 143)" stroke="white" stroke-opacity="0.5"/>
<circle cx="5.5" cy="5.5" r="5.5" transform="matrix(-1 0 0 1 385 158)" fill="white" fill-opacity="0.3"/>
<circle cx="5.5" cy="5.5" r="5" transform="matrix(-1 0 0 1 385 158)" stroke="white" stroke-opacity="0.5"/>
<circle cx="156.5" cy="275.786" r="12" fill="#ADCBE1" stroke="black"/>
<rect x="150.527" y="99" width="13.8701" height="174.6" rx="6.93504" fill="#D9D9D9"/>
<rect x="150.527" y="204.249" width="13.8701" height="73.4298" fill="#ADCBE1"/>
<path d="M127.907 282.217C127.957 282.435 127.966 282.661 127.935 282.883C127.904 283.105 127.832 283.318 127.724 283.51C127.617 283.702 127.475 283.869 127.308 284.002C127.141 284.134 126.951 284.23 126.749 284.284L121.879 285.565L123.156 290.713C123.209 290.93 123.223 291.156 123.196 291.379C123.169 291.601 123.101 291.816 122.998 292.01C122.894 292.204 122.755 292.375 122.59 292.511C122.426 292.648 122.237 292.748 122.037 292.806C121.904 292.847 121.766 292.87 121.628 292.874C121.28 292.874 120.942 292.75 120.666 292.521C120.39 292.292 120.192 291.971 120.102 291.608L118.576 285.458L110.559 280.46V290.459L114.84 295.082C114.987 295.241 115.103 295.429 115.183 295.637C115.263 295.844 115.303 296.066 115.303 296.291C115.303 296.515 115.263 296.738 115.183 296.945C115.103 297.152 114.987 297.341 114.84 297.499C114.693 297.658 114.519 297.784 114.327 297.87C114.135 297.956 113.929 298 113.721 298C113.514 298 113.308 297.956 113.116 297.87C112.924 297.784 112.749 297.658 112.603 297.499L108.977 293.581L105.352 297.499C105.206 297.658 105.031 297.784 104.839 297.87C104.647 297.956 104.441 298 104.234 298C104.026 298 103.82 297.956 103.628 297.87C103.436 297.784 103.262 297.658 103.115 297.499C102.968 297.341 102.851 297.152 102.772 296.945C102.692 296.738 102.652 296.515 102.652 296.291C102.652 296.066 102.692 295.844 102.772 295.637C102.851 295.429 102.968 295.241 103.115 295.082L107.396 290.459V280.46L99.3811 285.458L97.8552 291.608C97.7651 291.971 97.5665 292.292 97.2903 292.521C97.014 292.75 96.6755 292.874 96.3273 292.874C96.1886 292.874 96.0504 292.855 95.9162 292.817C95.7155 292.759 95.5274 292.659 95.3625 292.522C95.1977 292.385 95.0594 292.215 94.9555 292.021C94.8516 291.826 94.7841 291.612 94.757 291.389C94.7299 291.167 94.7436 290.941 94.7974 290.724L96.0743 285.576L91.204 284.295C90.7967 284.186 90.4458 283.908 90.2286 283.52C90.0114 283.133 89.9456 282.668 90.0457 282.228C90.1459 281.788 90.4037 281.409 90.7625 281.174C91.1213 280.939 91.5517 280.868 91.9591 280.976L97.7801 282.52L105.815 277.5L97.7821 272.491L91.961 274.034C91.8375 274.067 91.7107 274.084 91.5835 274.083C91.1969 274.084 90.8235 273.931 90.5341 273.654C90.2446 273.377 90.0591 272.995 90.0126 272.581C89.9661 272.166 90.0619 271.747 90.2818 271.404C90.5017 271.06 90.8305 270.816 91.206 270.716L96.0763 269.435L94.7994 264.276C94.6909 263.838 94.7478 263.372 94.9576 262.979C95.1674 262.587 95.5129 262.301 95.9182 262.183C96.3234 262.066 96.7551 262.128 97.1184 262.354C97.4817 262.581 97.7467 262.954 97.8552 263.392L99.3811 269.542L107.396 274.54V264.541L103.115 259.918C102.818 259.597 102.652 259.163 102.652 258.709C102.652 258.485 102.692 258.262 102.772 258.055C102.851 257.848 102.968 257.659 103.115 257.501C103.262 257.342 103.436 257.216 103.628 257.13C103.82 257.044 104.026 257 104.234 257C104.653 257 105.056 257.18 105.352 257.501L108.977 261.419L112.603 257.501C112.899 257.18 113.302 257 113.721 257C114.141 257 114.543 257.18 114.84 257.501C115.137 257.821 115.303 258.256 115.303 258.709C115.303 259.163 115.137 259.597 114.84 259.918L110.559 264.541V274.54L118.574 269.542L120.1 263.392C120.208 262.954 120.473 262.581 120.837 262.354C121.2 262.128 121.632 262.066 122.037 262.183C122.442 262.301 122.788 262.587 122.997 262.979C123.207 263.372 123.264 263.838 123.156 264.276L121.879 269.424L126.749 270.705C127.135 270.794 127.476 271.036 127.706 271.383C127.935 271.73 128.036 272.157 127.989 272.581C127.941 273.004 127.749 273.393 127.45 273.671C127.151 273.949 126.766 274.096 126.371 274.083C126.244 274.084 126.117 274.067 125.994 274.034L120.173 272.491L112.14 277.5L120.173 282.509L125.994 280.966C126.196 280.912 126.405 280.902 126.61 280.936C126.816 280.97 127.013 281.047 127.191 281.163C127.368 281.279 127.523 281.432 127.646 281.613C127.769 281.794 127.858 281.999 127.907 282.217Z" fill="#699BF7"/>
<path d="M468 109.732C469.768 111.511 469.619 114.334 471.171 116.341C471.535 116.813 471.945 118.215 472.151 117.075C472.405 115.669 473.049 114.149 473.799 112.963C474.455 111.926 474.646 110.789 475.322 109.732C475.766 109.037 475.885 106.493 475.885 107.319C475.885 108.775 476.656 108.447 477.574 108.242C478.525 108.03 478.23 106.95 478.534 106.186C478.809 105.493 479.435 107.373 479.931 107.927C480.484 108.545 481.166 108.99 481.6 109.732C482.384 111.072 484.218 113.541 485.647 114.18C487.102 114.83 487.188 108.006 489.402 110.109C490.11 110.782 490.53 111.664 491.279 112.375C492.136 113.19 492.476 111.729 493.156 111.326C494.819 110.343 496.755 109.788 498.6 109.375C499.937 109.076 499.439 110.392 499.56 111.242C499.618 111.649 500.548 113.715 500.645 113.278C501.17 110.9 501.62 108.455 502.522 106.186C502.747 105.619 503.029 107.295 503.294 107.843C503.532 108.337 503.905 109.005 504.024 109.543C504.21 110.388 504.061 111.452 504.629 112.187C507.286 115.623 506.917 109.127 509.093 109.753C510.195 110.07 509.843 115.159 511.366 111.788C511.589 111.296 512.224 109.396 512.868 109.396C513.576 109.396 514.291 111.319 514.558 111.788C515.985 114.301 517.559 111.622 518.5 110.676C519.065 110.107 519.36 108.572 519.898 110.193C520.239 111.225 520.565 112.425 520.565 113.508C520.565 116.783 525.908 110.865 527.699 110.865C529.285 110.865 530.314 111.657 531.37 112.837C532.227 113.794 531.462 114.518 531.913 113.047C532.318 111.722 532.958 110.869 533.623 109.732C535.276 106.905 536.551 110.229 537.294 111.83C537.551 112.384 539.979 118.597 540.298 117.956C540.855 116.836 543.353 109.725 544.762 110.13C545.821 110.435 546.047 115.335 547.786 112.187C548.191 111.454 549.505 107.466 550.227 107.466C550.85 107.466 551.397 108.977 552.104 109.27C552.471 109.422 552.778 107.83 552.939 107.466C553.829 105.451 556.471 109.97 557.361 110.865C559.195 112.709 560.827 114.59 561.95 111.326C562.136 110.785 562.366 109.019 562.701 108.683C563.057 108.324 563.742 110.316 563.827 110.487C564.013 110.861 564.302 111.114 564.495 111.452C564.718 111.846 565.044 112.991 565.245 112.585C566.124 110.817 566.402 108.737 567.957 107.172C570.094 105.023 570.846 105.725 572.087 108.221C572.252 108.553 572.692 111.027 572.755 109.438C572.808 108.089 573.383 106.434 573.965 105.2C574.718 103.6 575.333 107.447 575.758 108.41C577.14 111.535 577.282 107.885 578.95 107.885C579.747 107.885 580.163 109.747 580.285 110.298C580.596 111.707 581.554 112.862 582.308 114.054C583.086 115.283 586.42 110.018 587.398 108.788C588.539 107.352 590.895 112.429 591.236 112.124C592.635 110.873 592.648 105.491 595.658 107.004C597.434 107.897 598.286 109.252 598.286 111.242C598.286 113.621 599.071 116.152 599.496 118.502C599.747 119.89 599.83 123.399 600.727 124.481C601.218 125.074 601.427 126.521 601.853 127.293C602.26 128.03 603.046 124.7 603.188 123.915C603.887 120.05 602.46 114.716 604.106 111.075C604.539 110.116 604.294 108.743 604.294 107.697C604.294 106.136 604.725 110.904 605.608 112.187C605.978 112.725 607.298 115.551 607.298 113.676C607.298 111.742 607.025 109.573 607.318 107.655C607.387 107.206 607.836 104.573 608.048 105.053C609.097 107.426 609.113 110.434 609.759 112.942C610.1 114.267 611.255 118.195 611.031 116.844C610.6 114.238 609.55 111.887 609.55 109.165C609.55 108.426 609.136 104.233 610.009 105.955C611.255 108.412 611.088 111.226 612.262 113.718C612.627 114.493 612.554 113.672 612.554 113.278C612.554 111.522 612.554 109.767 612.554 108.011C612.554 104.504 612.81 101.044 612.93 97.5627C612.965 96.5144 613.137 96.7601 613.305 97.6886C613.634 99.5101 614.03 101.32 614.348 103.144C614.654 104.901 615.053 106.619 615.85 108.221C616.058 108.64 616.052 107.22 616.121 106.899C616.511 105.093 616.309 103.134 616.309 101.297C616.309 98.0211 616.768 93.1147 616.768 90.0934C616.768 89.4239 617.06 92.5545 617.06 93.1147C617.06 96.1862 617.368 99.2241 617.435 102.262C617.48 104.275 617.713 106.252 617.811 108.221C617.881 109.636 618.481 110.992 618.561 112.375C618.797 116.405 619.077 104.32 619.312 100.29C619.539 96.4142 620.063 108.031 620.063 111.914C620.063 114.376 620.063 121.761 620.063 119.299C620.063 113.589 620.471 108.025 620.793 102.346C620.977 99.1219 620.814 95.8413 620.814 92.6111C620.814 86.6819 622.692 104.369 622.692 110.298C622.692 114.426 623.067 126.805 623.067 122.677C623.067 119.883 623.852 117.372 624.193 114.62C624.513 112.051 624.61 109.229 625.132 106.71C625.515 104.863 625.407 102.932 625.716 101.067C626.013 99.2752 626.198 103.543 626.259 103.899C626.816 107.151 627.145 110.591 627.552 113.865C627.627 114.47 627.69 116.611 627.969 114.788C628.504 111.288 628.699 107.911 628.699 104.361C628.699 102.382 628.858 100.554 629.075 103.605C629.149 104.659 629.45 107.581 629.45 104.738C629.45 101.717 629.45 98.6957 629.45 95.6744C629.45 95.2781 629.775 93.2614 629.805 93.3665C630.031 94.1649 629.825 95.3144 629.825 96.136C629.825 99.2691 629.825 102.402 629.825 105.536C629.825 110.081 629.825 114.627 629.825 119.173C629.825 121.21 629.45 123.253 629.45 125.363C629.45 130.353 629.812 115.296 631.14 110.487C632.034 107.247 631.703 109.427 631.703 111.788C631.703 115.124 631.703 118.46 631.703 121.796C631.703 125.896 631.703 119.529 631.703 118.565C631.703 114.637 631.101 110.283 632.454 106.543C633.145 104.63 633.886 107.156 634.039 107.927C634.575 110.623 634.78 113.232 634.706 115.984C634.641 118.431 634.706 125.775 634.706 123.328C634.706 120.612 635.776 118 635.833 115.313C635.864 113.857 635.282 111.078 635.916 109.732C637.027 107.373 636.584 109.781 636.584 111.242C636.584 114.012 636.584 116.781 636.584 119.551C636.584 122.717 636.343 125.912 637.043 128.992C637.432 130.707 637.141 133.099 637.794 134.657C638.348 135.981 638.574 133.09 638.753 132.391C639.502 129.464 638.753 126.398 638.753 123.328C638.753 119.226 638.086 115.464 638.086 111.242C638.086 106.483 637.522 99.1551 638.795 94.6739C639.182 93.3094 640.878 99.9278 640.971 100.122C642.039 102.36 641.535 105.362 642.464 107.655C643.787 111.054 643.075 109.749 643.687 113.127C644.299 116.505 645.522 118.902 645.522 120.509C645.522 123.684 646.745 117.924 646.805 117.201C647.091 113.751 647.097 110.339 647.097 106.878C647.097 104.431 647.097 101.983 647.097 99.5349C647.097 97.7501 647.747 98.4904 648.14 99.9126C648.721 102.017 649.572 104.109 650.017 106.249C650.194 107.1 650.63 112.217 651.978 109.165C653.03 106.785 654.061 107.907 654.627 109.9C654.75 110.334 655.914 110.929 656.296 110.844C656.499 110.798 657.829 108.339 657.964 109.018C658.181 110.108 657.985 111.417 657.985 112.522C657.985 113.656 658.405 110.29 658.736 109.207C659.678 106.128 660.263 109.827 661.552 110.865C661.929 111.168 663.185 112.548 663.617 111.788C663.972 111.163 665.292 109.803 665.474 111.263C665.619 112.429 665.495 115.963 665.495 114.788C665.495 113.248 665.309 111.589 665.682 110.088C666.211 107.961 666.769 104.349 668.874 108.053C669.313 108.826 670.082 109.538 670.668 110.193C671.7 111.348 671.574 112.171 673.004 110.403C673.962 109.22 679.011 102.624 679.011 107.55C679.011 109.742 679.037 111.972 681.264 109.732C682.342 108.648 682.764 113.213 683.6 113.802C684.519 114.449 686.58 107.591 687.272 108.809C688.041 110.163 688.805 114.249 690.088 111.41C690.278 110.989 690.814 108.741 691.235 108.62C692.581 108.233 693.203 109.822 693.863 110.676C694.31 111.254 694.859 112.485 695.344 111.41C695.842 110.309 696.379 108.824 696.637 107.655C696.943 106.272 697.501 108.187 697.868 108.515C697.918 108.559 698.519 106.987 698.536 106.71C698.617 105.317 699.751 108.552 700.037 109.144C700.611 110.33 701.035 111.571 701.623 112.753C701.833 113.176 702.445 115.528 702.582 115.145C703.205 113.406 703.111 111.44 703.876 109.732C704.084 109.265 704.614 107.096 704.835 107.466C705.197 108.072 705.453 108.549 705.961 109.06C707.388 110.495 708.439 106.641 709.716 109.354C710.737 111.522 710.831 118.842 710.926 116.446C710.971 115.321 713.794 108.976 715.056 108.976C716.536 108.976 717.339 111.931 718.894 110.193C719.885 109.086 722.081 110.713 722.565 111.809C724.179 115.462 725.01 111.305 726.111 109.564C727.527 107.327 728.393 110.786 729.908 111.221C730.804 111.479 730.91 110.035 731.201 109.522C731.975 108.159 732.94 109.923 733.642 110.487C734.263 110.987 734.713 111.699 735.331 112.166C735.538 112.321 737.1 109.323 737.396 108.788C738.434 106.909 740.904 108.047 741.318 109.921C741.46 110.566 741.629 111.83 742.277 111.033C742.856 110.321 743.51 109.193 743.967 108.389C745.128 106.345 746.703 109.818 747.534 110.487C748.837 111.536 750.548 111.742 751.852 113.131C754.384 115.828 753.835 110.345 755.523 111.704C757.051 112.934 757.127 113.478 758.527 111.914C758.98 111.407 759.721 110.559 760.028 109.942C760.91 108.167 760.671 108.931 761.53 110.487C762.711 112.625 765.018 105.873 766.036 106.794C766.921 107.596 766.421 109.044 767.621 109.648C768.997 110.34 770.613 110.487 772.127 110.487C774.654 110.487 775.059 110.254 775.798 112.669C776.197 113.975 775.881 113.595 775.881 112.375C775.881 111.368 775.881 110.361 775.881 109.354" stroke="black" stroke-width="3" stroke-linecap="round"/>
<path d="M387.699 189.211L387.615 192.118C387.593 192.888 387.748 193.652 388.069 194.351L391.401 201.601C393.769 206.756 401.531 204.608 400.914 198.97L400.345 193.769C400.275 193.127 400.081 192.505 399.774 191.936L397.096 186.98C394.666 182.48 387.847 184.1 387.699 189.211Z" fill="white" stroke="black"/>
<path d="M420.187 289.589L382.135 266.335L409.789 249.142L432.656 265.328L420.187 289.589Z" fill="white" stroke="black"/>
<path d="M419.668 271.617L423.703 271.575L423.638 271.088C423.179 267.604 424.047 264.074 426.069 261.2L426.396 260.735L428.837 262.129C431.368 263.574 433.281 265.897 434.214 268.657L435.024 271.052C435.448 272.306 435.692 273.614 435.748 274.937L435.907 278.656C436.006 280.98 435.525 283.292 434.507 285.383L432.258 290.001L427.335 290.712C424.454 291.128 421.515 290.592 418.967 289.185L418.507 288.931C416.322 287.725 414.578 285.854 413.527 283.591L412.671 281.747C411.568 279.371 411.92 276.573 413.578 274.544C415.074 272.714 417.305 271.642 419.668 271.617Z" fill="black" stroke="white"/>
<path d="M352.569 266.347L340.362 275.613L346.13 284.512L348.275 295.421L367.303 281.603L352.569 266.347Z" fill="white" stroke="black"/>
<path d="M258.393 260.258L246.185 269.525L251.953 278.424L254.098 289.332L273.127 275.514L258.393 260.258Z" fill="white" stroke="black"/>
<path d="M405.401 257.849L403.467 262.769C402.95 264.086 401.989 265.182 400.752 265.868C399.641 266.484 398.366 266.738 397.104 266.594L393.781 266.214L393.941 267.426C394.432 271.148 391.899 274.595 388.201 275.238L386.911 275.462C386.579 275.52 386.244 275.554 385.908 275.563L383.749 275.624C381.194 275.695 378.803 274.369 377.512 272.163L377.173 271.584L376.53 274.043C375.848 276.651 374.011 278.805 371.543 279.89C366.98 281.896 361.662 279.729 359.801 275.105L358.296 271.364L357.978 271.561C352.64 274.866 345.64 273.317 342.194 268.068L329.373 269.994L346.329 189.54L347.711 188.672C350.232 187.088 353.104 186.149 356.073 185.936L356.723 185.889C358.473 185.764 360.231 185.956 361.913 186.455C365.403 187.491 368.379 189.795 370.257 192.914L371.411 194.832L374.37 194.024C378.971 192.767 383.837 192.858 388.388 194.285L389.809 194.73C392.295 195.51 394.584 196.817 396.518 198.563C398.631 200.47 400.265 202.848 401.287 205.505L404.215 213.124L405.335 213.252C408.444 213.607 411.062 215.738 412.042 218.71C412.406 219.812 412.526 220.98 412.394 222.133L411.937 226.124C414.348 226.709 416.418 228.249 417.671 230.39L418.4 231.635C419.036 232.721 419.504 233.897 419.79 235.122L419.855 235.398C420.587 238.538 420.246 241.833 418.885 244.756L417.772 247.147L419.688 251.364C420.67 253.523 420.52 256.029 419.287 258.056C418.259 259.747 416.572 260.94 414.635 261.348C412.769 261.742 410.818 261.379 409.22 260.337L405.401 257.849Z" fill="white" stroke="black"/>
<path d="M267.842 172.324L261.078 172.004C260.298 171.967 259.516 171.995 258.741 172.089L250.048 173.137C249.071 173.254 248.109 173.475 247.178 173.795L238.336 176.83C237.415 177.146 236.53 177.558 235.694 178.058L228.583 182.312C227.693 182.845 226.871 183.484 226.136 184.215C223.768 186.569 222.415 189.756 222.368 193.095L222.366 193.2L231.493 195.179C232.328 195.361 233.177 195.465 234.031 195.491L241.531 195.721C244.107 195.8 246.655 195.167 248.894 193.891L259.368 187.92C262.62 186.066 264.995 182.986 265.961 179.369L267.842 172.324Z" fill="black" stroke="white"/>
<path d="M234.746 211.674L233.028 212.394C227.264 214.808 225.044 221.818 228.368 227.11C229.568 229.021 231.373 230.475 233.495 231.243L338.651 269.277C340.775 270.046 343.089 270.116 345.255 269.478L345.608 269.374C350.844 267.832 353.944 262.45 352.652 257.147L354.15 255.841C359.469 251.205 359.785 243.045 354.84 238.011C358.884 233.734 360.115 227.516 358.005 222.022L348.183 196.435C347.822 195.494 347.54 194.524 347.34 193.536C345.426 184.08 336.44 177.781 326.898 179.206L323.707 179.682L322.169 177.072C314.372 163.845 296.733 160.467 284.601 169.878C276.518 165.68 266.608 169.857 263.971 178.576L262.811 182.411L261.258 182.07C252.97 180.251 245.346 187.112 246.284 195.545C239.07 194.72 233.056 201 234.192 208.172L234.746 211.674Z" fill="white" stroke="black"/>
<path d="M347.866 221.622L346.771 221.002C343.376 219.08 340.465 216.407 338.261 213.187L338.055 212.886C336.832 211.099 335.868 209.15 335.19 207.094C334.436 204.809 334.046 202.42 334.033 200.014L334.019 197.583L333.985 191.521L338.897 192.894C343.418 194.157 347.692 196.177 351.538 198.867C354.827 201.167 357.766 203.931 360.263 207.073L360.584 207.477C363.768 211.484 366.248 216.002 367.917 220.84L369.399 225.136L366.641 225.449C360.136 226.186 353.564 224.847 347.866 221.622Z" fill="black" stroke="black"/>
<path d="M247.582 205.387L247.685 205.418C253.54 207.189 259.805 204.385 262.386 198.84L267.199 201.795C271.649 204.526 277.481 202.337 279.035 197.352C282.578 208.718 295.416 214.254 306.114 209.031L309.899 207.182C311.286 212.874 316.075 217.098 321.895 217.763L326.082 218.242C322.345 224.644 324.186 232.845 330.301 237.035L334.733 240.072C331.888 244.223 333.112 249.911 337.411 252.525L341.279 254.876L338.714 260.67C338.248 261.723 337.634 262.704 336.89 263.583C322.996 277.585 302.678 283.095 283.613 278.029L251.999 269.63C248.798 268.78 245.752 267.425 242.977 265.616L239.112 263.098C228.229 256.006 224.274 241.955 229.86 230.228L232.685 224.298C234.015 221.506 236.457 219.402 239.415 218.499C243.61 217.218 246.646 213.571 247.144 209.214L247.582 205.387Z" fill="#111010" stroke="black"/>
<path d="M328.757 279.617L324.327 277.42C319.789 275.169 314.768 279.461 316.286 284.294C316.434 284.764 316.641 285.213 316.903 285.629L320.552 291.438C321.132 292.361 321.874 293.171 322.744 293.829L329.553 298.979C330.664 299.82 331.955 300.391 333.325 300.647L337.952 301.514C341.834 302.242 345.722 300.279 347.442 296.723C348.424 294.694 348.585 292.364 347.891 290.219L345.894 284.042C345.562 283.015 345.048 282.056 344.376 281.211L339.883 275.558L338.627 274.229C334.523 269.885 327.322 273.815 328.757 279.617Z" fill="black" stroke="black"/>
<path d="M236.682 269.542L232.252 267.344C227.714 265.094 222.694 269.386 224.212 274.219C224.359 274.688 224.566 275.137 224.828 275.554L228.477 281.363C229.057 282.286 229.8 283.096 230.669 283.753L237.478 288.904C238.589 289.744 239.881 290.316 241.25 290.572L245.877 291.439C249.76 292.166 253.648 290.203 255.368 286.648C256.349 284.618 256.51 282.288 255.816 280.144L253.819 273.966C253.487 272.939 252.973 271.981 252.301 271.136L247.809 265.483L246.553 264.153C242.448 259.809 235.248 263.74 236.682 269.542Z" fill="black" stroke="black"/>
<path d="M239.277 233C238.925 236.082 243.082 239.57 245.873 240.332C248.981 241.18 251.955 240.935 254.962 240.301" stroke="white" stroke-linecap="round"/>
<path d="M291.332 246.622C291.353 248.691 298.229 250.715 299.897 250.906C304.416 251.422 307.514 250.393 309.58 245.956" stroke="white" stroke-linecap="round"/>
<path d="M260.562 256.623C261.77 256.761 265.393 256.51 265.661 258.123C266.238 261.602 263.764 260.45 262.419 262.139C260.159 264.978 254.011 255.284 261.791 256.174" stroke="white" stroke-linecap="round"/>
<path d="M261.957 255.089C262.656 255.169 263.26 255.493 263.952 255.611C264.595 255.721 265.434 256 265.346 256.768" stroke="white" stroke-linecap="round"/>
</svg>
