<svg width="846" height="345" viewBox="0 0 846 345" fill="none" xmlns="http://www.w3.org/2000/svg">
<g clip-path="url(#clip0_298_194)">
<path d="M654.925 6.23809C778.779 71.4753 707.784 144.091 685.579 169.635C682.121 173.613 675.002 182.5 670.189 184.651C663.945 187.442 656.824 189.997 653.347 191.18C644.785 194.091 619.519 196.759 610.877 195.067C585.783 190.155 576.39 179.783 552.822 167.316C547.674 164.593 547.986 161.228 543.005 165.244C536.316 170.636 530.345 176.966 523.699 182.491C515.565 189.253 505.386 193.626 496.672 199.35C486.732 205.878 478.509 208.427 467.392 208.427C450.954 208.427 435.642 203.456 419.879 197.923C415.572 196.411 405.652 188.854 401.324 191.18C397.329 193.327 393.607 195.885 389.527 197.923C365.497 209.924 337.122 222.802 311.353 222.802C288.69 222.802 270.58 225.807 251.654 208.427C243.396 200.844 229.507 171.879 229.507 157.982V147.737C229.507 143.772 227.876 144.661 226.182 141.642C220.972 132.359 212.869 123.928 210.416 112.723C208.508 104.008 208.549 85.9118 210.416 77.4469C214.83 57.4335 224.929 28.6909 256.946 28.6909C268.229 27.5539 276.307 31.4473 287.518 32.3219C303.462 33.5656 315.607 44.1793 330.008 51.709C334.488 54.0514 335.213 52.3194 339.654 49.6342C347.956 44.6155 355.397 38.5224 363.089 32.3219C397.653 4.4607 439.185 6.58353 478.117 16.4361C491.349 19.7848 503.826 24.2969 516.192 31.0251C524.242 35.4051 537.868 41.4913 542.093 51.709C542.241 52.0661 543.208 49.4473 544.184 48.7912C545.753 47.7378 546.492 46.7601 547.616 45.0305C551.496 39.0609 555.891 33.7502 560.54 28.6909C569.951 18.4502 582.363 11.4432 593.896 5.41333C603.811 0.229201 638.688 4.9439 651.656 5.38127C652.778 5.41913 653.931 5.71475 654.925 6.23809Z" fill="white" fill-opacity="0.3" stroke="white" stroke-opacity="0.5" stroke-width="3" stroke-linecap="round"/>
<circle cx="10.5" cy="10.5" r="10.5" transform="matrix(-1 0 0 1 211 164)" fill="white" fill-opacity="0.3"/>
<circle cx="10.5" cy="10.5" r="10" transform="matrix(-1 0 0 1 211 164)" stroke="white" stroke-opacity="0.5"/>
<circle cx="5.5" cy="5.5" r="5.5" transform="matrix(-1 0 0 1 164 179)" fill="white" fill-opacity="0.3"/>
<circle cx="5.5" cy="5.5" r="5" transform="matrix(-1 0 0 1 164 179)" stroke="white" stroke-opacity="0.5"/>
<path d="M246 115.777C250.521 115.777 257.115 117.568 258.681 112.034C259.194 110.22 259.224 115.517 259.224 116.357C259.224 118.742 260.776 113.119 261.076 112.422C261.54 111.345 262.782 107.647 264.111 107.647C265.615 107.647 264.973 111.668 264.973 112.873C264.973 116.39 268.678 112.086 269.285 111.131C271.286 107.988 271.058 110.388 272 112.293C272.952 114.216 274.816 114.702 275.897 116.067C277.156 117.656 279.484 117.058 280.624 115.906C282.652 113.858 279.276 111.856 283.052 114.035C284.873 115.086 285.661 115.196 287.971 115.196C290.657 115.196 291.279 114.011 292.826 112.002C294.364 110.005 295.284 107.081 297.298 105.453C298.121 104.788 299.868 110.18 300.013 110.841C300.803 114.434 303.702 108.447 304.197 107.195C304.298 106.94 305.873 105.339 306.241 105.711C307.113 106.592 307.39 111.732 307.519 112.841C307.891 116.035 310.055 118.228 310.969 121.229C311.522 123.044 312.328 125.03 313.013 126.81C313.443 127.926 314.418 129.298 314.418 130.52C314.418 132.926 314.305 125.629 314.993 123.326C316.118 119.562 317.781 115.827 318.475 111.97C318.674 110.862 319.711 106.281 320.296 106.937C322.723 109.661 321.893 114.987 321.893 118.39C321.893 120.209 321.695 119.144 322.212 118.099C322.99 116.528 323.851 115.047 324.64 113.454C325.601 111.511 326.916 108.143 329.654 109.679C331.275 110.589 332.54 111.691 333.839 113.002C336.179 115.366 337.5 113.22 338.885 111.422C340.011 109.96 340.552 111.3 340.834 112.583C341.224 114.355 340.748 114.825 343.038 114.164C344.307 113.797 345.553 114.408 346.615 113.454C347.382 112.765 347.88 111.736 348.628 111.131C349.941 110.07 350.42 115.036 350.768 115.777C351.162 116.617 352.913 120.803 354.345 120.39C356.879 119.659 357.635 111.493 358.242 109.518C358.845 107.555 359.664 105.667 360.286 103.711C360.706 102.393 360.448 101.117 361.276 103.292C362.404 106.253 362.714 109.711 362.714 112.873C362.714 114.977 363.237 119.196 364.566 120.874C366.252 123.002 365.739 124.155 367.345 120.1C368.582 116.976 369.367 112.283 371.785 109.841C373.261 108.35 374.572 111.131 376.225 111.131C378.678 111.131 380.747 111.33 382.134 108.808C383.76 105.853 385.5 107.434 387.149 109.099C388.401 110.364 389.148 112.022 390.439 113.325C391.989 114.89 393.429 111.221 393.729 112.583C394.1 114.27 395.971 115.988 396.06 117.519C396.177 119.527 396.66 116.119 397.083 115.196C398.513 112.075 399.178 108.574 400.373 105.357C401.097 103.406 401.736 101.043 402.704 99.2271C403.175 98.344 404.279 95.5395 404.812 95.001C404.91 94.9023 407.903 102.151 408.102 103.26C409.247 109.616 408.709 116.477 408.709 123.035C408.709 126.405 410.919 116.565 411.009 113.196C411.032 112.351 411.624 104.227 413.021 104.227C415.032 104.227 414.745 118.175 418.483 109.679C419.337 107.739 420.962 105.992 421.358 109.389C421.717 112.468 424.752 109.627 425.67 109.421C427.205 109.077 428.988 107.066 430.557 107.066C431.567 107.066 434.332 109.636 435.444 110.26C437.585 111.461 438.074 113.787 439.884 115.067C440.11 115.227 446.699 107.403 447.231 106.195C447.954 104.552 450.777 102.356 452.405 101.389C455.059 99.8117 455.28 99.9792 455.28 103.26C455.28 105.676 456.43 108.126 456.43 110.551C456.43 112.3 455.601 115.401 457.292 114.035C458.246 113.264 460.253 109.217 460.454 112.873C460.572 115.018 461.061 117.46 462.467 114.906C463.928 112.249 465.216 114.375 467.354 114.615C469.817 114.892 471.468 116.146 474.253 115.744C478.359 115.152 478.905 107.066 484.027 107.066C485.999 107.066 487.731 107.647 489.489 107.647C490.932 107.647 490.926 112.588 490.926 114.035C490.926 115.116 491.501 119.526 491.501 118.39C491.501 115.911 492.733 113.848 493.673 111.712C494.123 110.69 497.083 101.922 497.953 103.582C499.457 106.45 501.46 111.712 505.3 111.712C506.45 111.712 510.986 111.052 511.592 111.97C512.06 112.678 512.356 110.451 512.774 109.712C513.227 108.912 514.714 109.447 515.202 109.841C518.173 112.241 519.011 101.537 522.42 104.292C526.108 107.272 528.157 110.199 532.195 106.937C537.388 102.741 535.741 111.131 540.084 111.131C541.108 111.131 544.29 108.481 544.396 109.389C544.53 110.537 546.706 113.564 547.303 111.454C547.778 109.773 550.411 108.022 551.168 106.034C551.787 104.407 552.66 102.269 553.915 101.001C554.64 100.269 555.32 107.552 555.32 108.808C555.32 111.615 555.32 114.422 555.32 117.228C555.32 119.454 555.32 121.68 555.32 123.906C555.32 128.034 556.87 123.578 557.62 121.874C559.71 117.125 562.033 112.22 562.762 107.066C562.896 106.123 563.356 100.988 565.222 102.873C566.532 104.196 567.415 105.905 569.406 105.905C570.978 105.905 573.001 102.968 573.591 103.711C574.586 104.969 573.254 108.898 574.581 109.97C575.376 110.612 574.352 112.238 575.188 110.551C575.883 109.146 577.424 108.131 578.861 107.647C580.227 107.187 582.499 104.034 584.067 104.873C585.527 105.653 586.453 108.917 587.517 110.26C587.684 110.471 588.46 105.092 589.242 104.163C591.289 101.731 591.61 99.8961 593.841 103.84C594.637 105.247 595.902 107.49 596.844 108.679C598.757 111.094 598.577 108.228 601.028 108.228C602.609 108.228 602.786 111.777 603.743 112.744C604.014 113.018 605.268 108.228 606.203 108.228C607.42 108.228 609.584 110.735 610.068 111.712C611.312 114.225 613.725 113.696 615.402 112.002C617.369 110.015 617.511 109.6 620.289 111.002C623.47 112.609 623.352 109.844 625.208 107.97C626.084 107.084 628.2 104.703 628.338 107.066C628.385 107.876 631.367 109.724 632.107 109.938C633.667 110.388 636.323 107.832 636.834 108.808C637.528 110.131 637.594 114.489 638.144 113.099C638.995 110.95 640.294 109.024 641.434 107.066C642.477 105.275 644.254 109.285 644.468 110.26C645.064 112.968 648.732 108.879 649.611 108.357C650.755 107.677 653.075 104.955 653.604 107.357C654.02 109.249 653.34 112.592 656.063 109.841C658.102 107.782 660.065 105.863 662.004 103.905C663.171 102.726 664.512 108.52 664.56 109.389C664.665 111.298 665.264 113.607 665.677 115.486C665.76 115.863 667.045 113.199 668.584 112.422C670.773 111.316 672.609 112.582 672.609 109.679C672.609 106.57 675.456 108.676 676.633 108.808C677.654 108.923 678.482 109.97 679.508 109.97C680.833 109.97 681.305 108.327 682.127 107.615C684.136 105.875 685.922 103.66 687.11 101.26C688.829 97.787 689.062 103.874 689.57 105.002C690.324 106.678 689.857 109.298 689.857 111.131" stroke="black" stroke-width="3" stroke-linecap="round"/>
<path d="M199.699 221.211L199.615 224.118C199.593 224.888 199.748 225.651 200.069 226.351L203.401 233.601C205.769 238.756 213.531 236.608 212.914 230.97L212.345 225.769C212.275 225.127 212.081 224.505 211.774 223.936L209.096 218.98C206.666 214.48 199.847 216.1 199.699 221.211Z" fill="white" stroke="black"/>
<path d="M232.187 321.589L194.135 298.335L221.789 281.142L244.656 297.328L232.187 321.589Z" fill="white" stroke="black"/>
<path d="M231.668 303.617L235.703 303.575L235.638 303.088C235.179 299.604 236.047 296.074 238.069 293.2L238.396 292.735L240.837 294.129C243.368 295.574 245.281 297.897 246.214 300.657L247.024 303.052C247.448 304.306 247.692 305.614 247.748 306.937L247.907 310.656C248.006 312.98 247.525 315.292 246.507 317.383L244.258 322.001L239.335 322.712C236.454 323.128 233.515 322.592 230.967 321.185L230.507 320.931C228.322 319.725 226.578 317.854 225.527 315.591L224.671 313.747C223.568 311.371 223.92 308.573 225.578 306.544C227.074 304.714 229.305 303.642 231.668 303.617Z" fill="black" stroke="white"/>
<path d="M164.569 298.347L152.362 307.613L158.13 316.512L160.275 327.421L179.303 313.603L164.569 298.347Z" fill="white" stroke="black"/>
<path d="M70.3926 292.258L58.1854 301.525L63.953 310.424L66.0981 321.332L85.1266 307.514L70.3926 292.258Z" fill="white" stroke="black"/>
<path d="M217.401 289.849L215.467 294.769C214.95 296.086 213.989 297.182 212.752 297.868C211.641 298.484 210.366 298.738 209.104 298.594L205.781 298.214L205.941 299.426C206.432 303.148 203.899 306.595 200.201 307.238L198.911 307.462C198.579 307.52 198.244 307.554 197.908 307.563L195.749 307.624C193.194 307.695 190.803 306.369 189.512 304.163L189.173 303.584L188.53 306.043C187.848 308.651 186.011 310.805 183.543 311.89C178.98 313.896 173.662 311.729 171.801 307.105L170.296 303.364L169.978 303.561C164.64 306.866 157.64 305.317 154.194 300.068L141.373 301.995L158.329 221.54L159.711 220.672C162.232 219.088 165.104 218.149 168.073 217.936L168.723 217.889C170.473 217.764 172.231 217.956 173.913 218.455C177.403 219.491 180.379 221.795 182.257 224.914L183.411 226.832L186.37 226.024C190.971 224.767 195.837 224.858 200.388 226.285L201.809 226.73C204.295 227.51 206.584 228.817 208.518 230.563C210.631 232.47 212.265 234.848 213.287 237.505L216.215 245.124L217.335 245.252C220.444 245.607 223.062 247.738 224.042 250.71C224.406 251.812 224.526 252.98 224.394 254.133L223.937 258.124C226.348 258.709 228.418 260.249 229.671 262.39L230.4 263.635C231.036 264.721 231.504 265.897 231.79 267.122L231.855 267.398C232.587 270.538 232.246 273.833 230.885 276.756L229.772 279.147L231.688 283.364C232.67 285.523 232.52 288.029 231.287 290.056C230.259 291.747 228.572 292.94 226.635 293.348C224.769 293.742 222.818 293.379 221.22 292.337L217.401 289.849Z" fill="white" stroke="black"/>
<path d="M79.842 204.324L73.0778 204.004C72.2977 203.967 71.5159 203.995 70.7406 204.089L62.0485 205.137C61.0712 205.254 60.109 205.475 59.1779 205.795L50.336 208.83C49.415 209.146 48.5296 209.558 47.694 210.058L40.5832 214.312C39.6932 214.845 38.8714 215.484 38.1358 216.215C35.7677 218.569 34.4151 221.756 34.3676 225.095L34.3661 225.2L43.493 227.179C44.3277 227.361 45.1772 227.465 46.0308 227.491L53.5307 227.721C56.1068 227.8 58.6547 227.167 60.8937 225.891L71.3679 219.92C74.6203 218.066 76.9947 214.986 77.9606 211.369L79.842 204.324Z" fill="black" stroke="white"/>
<path d="M46.7464 243.674L45.0279 244.394C39.2637 246.808 37.044 253.818 40.3681 259.11C41.5684 261.021 43.373 262.475 45.495 263.243L150.651 301.277C152.775 302.046 155.089 302.116 157.255 301.478L157.608 301.374C162.844 299.832 165.944 294.45 164.652 289.147L166.15 287.841C171.469 283.205 171.785 275.045 166.84 270.011C170.884 265.734 172.115 259.516 170.005 254.022L160.183 228.435C159.822 227.494 159.54 226.524 159.34 225.536C157.426 216.08 148.44 209.781 138.898 211.206L135.707 211.682L134.169 209.072C126.372 195.845 108.733 192.467 96.6009 201.878C88.5179 197.68 78.6085 201.857 75.9714 210.576L74.8114 214.411L73.2583 214.07C64.9698 212.251 57.3458 219.112 58.2844 227.545C51.07 226.72 45.0559 233 46.1917 240.172L46.7464 243.674Z" fill="white" stroke="black"/>
<path d="M159.866 253.622L158.771 253.002C155.376 251.08 152.465 248.407 150.261 245.187L150.055 244.886C148.832 243.099 147.868 241.15 147.19 239.094C146.436 236.809 146.046 234.42 146.033 232.014L146.019 229.583L145.985 223.521L150.897 224.894C155.418 226.157 159.692 228.177 163.538 230.867C166.827 233.167 169.766 235.931 172.263 239.073L172.584 239.477C175.768 243.484 178.248 248.002 179.917 252.84L181.399 257.136L178.641 257.449C172.136 258.187 165.564 256.847 159.866 253.622Z" fill="black" stroke="black"/>
<path d="M59.5817 237.387L59.6853 237.418C65.5395 239.189 71.805 236.385 74.3858 230.84L79.199 233.795C83.6493 236.526 89.4813 234.337 91.0349 229.352C94.578 240.718 107.416 246.254 118.114 241.031L121.899 239.182C123.286 244.874 128.075 249.098 133.895 249.763L138.082 250.242C134.345 256.644 136.186 264.845 142.301 269.035L146.733 272.072C143.888 276.223 145.112 281.911 149.411 284.525L153.279 286.876L150.714 292.67C150.248 293.723 149.634 294.704 148.89 295.583C134.996 309.585 114.678 315.095 95.6128 310.029L63.9987 301.63C60.7976 300.78 57.7524 299.425 54.9774 297.616L51.1119 295.098C40.2289 288.006 36.2742 273.955 41.8604 262.228L44.6852 256.298C46.0151 253.506 48.4572 251.402 51.4149 250.499C55.6098 249.218 58.6456 245.571 59.144 241.214L59.5817 237.387Z" fill="#111010" stroke="black"/>
<path d="M140.757 311.617L136.327 309.42C131.789 307.169 126.768 311.461 128.286 316.294C128.434 316.764 128.641 317.213 128.903 317.629L132.552 323.438C133.132 324.361 133.874 325.171 134.744 325.829L141.553 330.979C142.664 331.82 143.955 332.391 145.325 332.647L149.952 333.514C153.834 334.242 157.722 332.279 159.442 328.723C160.424 326.694 160.585 324.364 159.891 322.219L157.894 316.042C157.562 315.015 157.048 314.056 156.376 313.211L151.883 307.558L150.627 306.229C146.523 301.885 139.322 305.815 140.757 311.617Z" fill="black" stroke="black"/>
<path d="M48.6818 301.542L44.252 299.344C39.714 297.094 34.6937 301.386 36.2117 306.219C36.3592 306.688 36.5665 307.137 36.8283 307.554L40.4772 313.363C41.057 314.286 41.7996 315.096 42.669 315.753L49.4781 320.904C50.5894 321.744 51.8808 322.316 53.2503 322.572L57.8774 323.439C61.7595 324.166 65.6477 322.203 67.3676 318.648C68.3493 316.618 68.5101 314.288 67.8165 312.144L65.819 305.966C65.4869 304.939 64.9729 303.981 64.3014 303.136L59.8088 297.483L58.5526 296.153C54.4483 291.809 47.2477 295.74 48.6818 301.542Z" fill="black" stroke="black"/>
<path d="M51.2771 265C50.9246 268.082 55.0823 271.57 57.8725 272.332C60.9814 273.18 63.9553 272.935 66.962 272.301" stroke="white" stroke-linecap="round"/>
<path d="M103.332 278.622C103.353 280.691 110.229 282.715 111.897 282.906C116.416 283.422 119.514 282.393 121.58 277.956" stroke="white" stroke-linecap="round"/>
<path d="M72.5616 288.623C73.7699 288.761 77.3935 288.51 77.6611 290.123C78.2384 293.602 75.7639 292.45 74.4189 294.139C72.1588 296.978 66.0108 287.284 73.7915 288.174" stroke="white" stroke-linecap="round"/>
<path d="M73.957 287.089C74.6558 287.169 75.2604 287.493 75.9521 287.611C76.5952 287.721 77.4341 288 77.3462 288.768" stroke="white" stroke-linecap="round"/>
</g>
<defs>
<clipPath id="clip0_298_194">
<rect width="846" height="345" fill="white"/>
</clipPath>
</defs>
</svg>
