<svg width="846" height="345" viewBox="0 0 846 345" fill="none" xmlns="http://www.w3.org/2000/svg">
<g clip-path="url(#clip0_298_194)">
<path d="M644.925 3.23809C768.779 68.4753 697.784 141.091 675.579 166.635C672.121 170.613 665.002 179.5 660.189 181.651C653.945 184.442 646.824 186.997 643.347 188.18C634.785 191.091 609.519 193.759 600.877 192.067C575.783 187.155 566.39 176.783 542.822 164.316C537.674 161.593 537.986 158.228 533.005 162.244C526.316 167.636 520.345 173.966 513.699 179.491C505.565 186.253 495.386 190.626 486.672 196.35C476.732 202.878 468.509 205.427 457.392 205.427C440.954 205.427 425.642 200.456 409.879 194.923C405.572 193.411 395.652 185.854 391.324 188.18C387.329 190.327 383.607 192.885 379.527 194.923C355.497 206.924 327.122 219.802 301.353 219.802C278.69 219.802 260.58 222.807 241.654 205.427C233.396 197.844 219.507 168.879 219.507 154.982V144.737C219.507 140.772 217.876 141.661 216.182 138.642C210.972 129.359 202.869 120.928 200.416 109.723C198.508 101.008 198.549 82.9118 200.416 74.4469C204.83 54.4335 214.929 25.6909 246.946 25.6909C258.229 24.5539 266.307 28.4473 277.518 29.3219C293.462 30.5656 305.607 41.1793 320.008 48.709C324.488 51.0514 325.213 49.3194 329.654 46.6342C337.956 41.6155 345.397 35.5224 353.089 29.3219C387.653 1.4607 429.185 3.58353 468.117 13.4361C481.349 16.7848 493.826 21.2969 506.192 28.0251C514.242 32.4051 527.868 38.4913 532.093 48.709C532.241 49.0661 533.208 46.4473 534.184 45.7912C535.753 44.7378 536.492 43.7601 537.616 42.0305C541.496 36.0609 545.891 30.7502 550.54 25.6909C559.951 15.4502 572.363 8.44317 583.896 2.41333C593.811 -2.7708 628.688 1.9439 641.656 2.38127C642.778 2.41913 643.931 2.71475 644.925 3.23809Z" fill="white" fill-opacity="0.3" stroke="white" stroke-opacity="0.5" stroke-width="3" stroke-linecap="round"/>
<circle cx="10.5" cy="10.5" r="10.5" transform="matrix(-1 0 0 1 201 161)" fill="white" fill-opacity="0.3"/>
<circle cx="10.5" cy="10.5" r="10" transform="matrix(-1 0 0 1 201 161)" stroke="white" stroke-opacity="0.5"/>
<circle cx="5.5" cy="5.5" r="5.5" transform="matrix(-1 0 0 1 154 176)" fill="white" fill-opacity="0.3"/>
<circle cx="5.5" cy="5.5" r="5" transform="matrix(-1 0 0 1 154 176)" stroke="white" stroke-opacity="0.5"/>
<path d="M236 112.777C240.521 112.777 247.115 114.568 248.681 109.034C249.194 107.22 249.224 112.517 249.224 113.357C249.224 115.742 250.776 110.119 251.076 109.422C251.54 108.345 252.782 104.647 254.111 104.647C255.615 104.647 254.973 108.668 254.973 109.873C254.973 113.39 258.678 109.086 259.285 108.131C261.286 104.988 261.058 107.388 262 109.293C262.952 111.216 264.816 111.702 265.897 113.067C267.156 114.656 269.484 114.058 270.624 112.906C272.652 110.858 269.276 108.856 273.052 111.035C274.873 112.086 275.661 112.196 277.971 112.196C280.657 112.196 281.279 111.011 282.826 109.002C284.364 107.005 285.284 104.081 287.298 102.453C288.121 101.788 289.868 107.18 290.013 107.841C290.803 111.434 293.702 105.447 294.197 104.195C294.298 103.94 295.873 102.339 296.241 102.711C297.113 103.592 297.39 108.732 297.519 109.841C297.891 113.035 300.055 115.228 300.969 118.229C301.522 120.044 302.328 122.03 303.013 123.81C303.443 124.926 304.418 126.298 304.418 127.52C304.418 129.926 304.305 122.629 304.993 120.326C306.118 116.562 307.781 112.827 308.475 108.97C308.674 107.862 309.711 103.281 310.296 103.937C312.723 106.661 311.893 111.987 311.893 115.39C311.893 117.209 311.695 116.144 312.212 115.099C312.99 113.528 313.851 112.047 314.64 110.454C315.601 108.511 316.916 105.143 319.654 106.679C321.275 107.589 322.54 108.691 323.839 110.002C326.179 112.366 327.5 110.22 328.885 108.422C330.011 106.96 330.552 108.3 330.834 109.583C331.224 111.355 330.748 111.825 333.038 111.164C334.307 110.797 335.553 111.408 336.615 110.454C337.382 109.765 337.88 108.736 338.628 108.131C339.941 107.07 340.42 112.036 340.768 112.777C341.162 113.617 342.913 117.803 344.345 117.39C346.879 116.659 347.635 108.493 348.242 106.518C348.845 104.555 349.664 102.667 350.286 100.711C350.706 99.3932 350.448 98.1175 351.276 100.292C352.404 103.253 352.714 106.711 352.714 109.873C352.714 111.977 353.237 116.196 354.566 117.874C356.252 120.002 355.739 121.155 357.345 117.1C358.582 113.976 359.367 109.283 361.785 106.841C363.261 105.35 364.572 108.131 366.225 108.131C368.678 108.131 370.747 108.33 372.134 105.808C373.76 102.853 375.5 104.434 377.149 106.099C378.401 107.364 379.148 109.022 380.439 110.325C381.989 111.89 383.429 108.221 383.729 109.583C384.1 111.27 385.971 112.988 386.06 114.519C386.177 116.527 386.66 113.119 387.083 112.196C388.513 109.075 389.178 105.574 390.373 102.357C391.097 100.406 391.736 98.0425 392.704 96.2271C393.175 95.344 394.279 92.5395 394.812 92.001C394.91 91.9023 397.903 99.1515 398.102 100.26C399.247 106.616 398.709 113.477 398.709 120.035C398.709 123.405 400.919 113.565 401.009 110.196C401.032 109.351 401.624 101.227 403.021 101.227C405.032 101.227 404.745 115.175 408.483 106.679C409.337 104.739 410.962 102.992 411.358 106.389C411.717 109.468 414.752 106.627 415.67 106.421C417.205 106.077 418.988 104.066 420.557 104.066C421.567 104.066 424.332 106.636 425.444 107.26C427.585 108.461 428.074 110.787 429.884 112.067C430.11 112.227 436.699 104.403 437.231 103.195C437.954 101.552 440.777 99.3557 442.405 98.3886C445.059 96.8117 445.28 96.9792 445.28 100.26C445.28 102.676 446.43 105.126 446.43 107.551C446.43 109.3 445.601 112.401 447.292 111.035C448.246 110.264 450.253 106.217 450.454 109.873C450.572 112.018 451.061 114.46 452.467 111.906C453.928 109.249 455.216 111.375 457.354 111.615C459.817 111.892 461.468 113.146 464.253 112.744C468.359 112.152 468.905 104.066 474.027 104.066C475.999 104.066 477.731 104.647 479.489 104.647C480.932 104.647 480.926 109.588 480.926 111.035C480.926 112.116 481.501 116.526 481.501 115.39C481.501 112.911 482.733 110.848 483.673 108.712C484.123 107.69 487.083 98.922 487.953 100.582C489.457 103.45 491.46 108.712 495.3 108.712C496.45 108.712 500.986 108.052 501.592 108.97C502.06 109.678 502.356 107.451 502.774 106.712C503.227 105.912 504.714 106.447 505.202 106.841C508.173 109.241 509.011 98.5369 512.42 101.292C516.108 104.272 518.157 107.199 522.195 103.937C527.388 99.7408 525.741 108.131 530.084 108.131C531.108 108.131 534.29 105.481 534.396 106.389C534.53 107.537 536.706 110.564 537.303 108.454C537.778 106.773 540.411 105.022 541.168 103.034C541.787 101.407 542.66 99.2688 543.915 98.0014C544.64 97.269 545.32 104.552 545.32 105.808C545.32 108.615 545.32 111.422 545.32 114.228C545.32 116.454 545.32 118.68 545.32 120.906C545.32 125.034 546.87 120.578 547.62 118.874C549.71 114.125 552.033 109.22 552.762 104.066C552.896 103.123 553.356 97.9884 555.222 99.8725C556.532 101.196 557.415 102.905 559.406 102.905C560.978 102.905 563.001 99.9676 563.591 100.711C564.586 101.969 563.254 105.898 564.581 106.97C565.376 107.612 564.352 109.238 565.188 107.551C565.883 106.146 567.424 105.131 568.861 104.647C570.227 104.187 572.499 101.034 574.067 101.873C575.527 102.653 576.453 105.917 577.517 107.26C577.684 107.471 578.46 102.092 579.242 101.163C581.289 98.7305 581.61 96.8961 583.841 100.84C584.637 102.247 585.902 104.49 586.844 105.679C588.757 108.094 588.577 105.228 591.028 105.228C592.609 105.228 592.786 108.777 593.743 109.744C594.014 110.018 595.268 105.228 596.203 105.228C597.42 105.228 599.584 107.735 600.068 108.712C601.312 111.225 603.725 110.696 605.402 109.002C607.369 107.015 607.511 106.6 610.289 108.002C613.47 109.609 613.352 106.844 615.208 104.97C616.084 104.084 618.2 101.703 618.338 104.066C618.385 104.876 621.367 106.724 622.107 106.938C623.667 107.388 626.323 104.832 626.834 105.808C627.528 107.131 627.594 111.489 628.144 110.099C628.995 107.95 630.294 106.024 631.434 104.066C632.477 102.275 634.254 106.285 634.468 107.26C635.064 109.968 638.732 105.879 639.611 105.357C640.755 104.677 643.075 101.955 643.604 104.357C644.02 106.249 643.34 109.592 646.063 106.841C648.102 104.782 650.065 102.863 652.004 100.905C653.171 99.726 654.512 105.52 654.56 106.389C654.665 108.298 655.264 110.607 655.677 112.486C655.76 112.863 657.045 110.199 658.584 109.422C660.773 108.316 662.609 109.582 662.609 106.679C662.609 103.57 665.456 105.676 666.633 105.808C667.654 105.923 668.482 106.97 669.508 106.97C670.833 106.97 671.305 105.327 672.127 104.615C674.136 102.875 675.922 100.66 677.11 98.2595C678.829 94.787 679.062 100.874 679.57 102.002C680.324 103.678 679.857 106.298 679.857 108.131" stroke="black" stroke-width="3" stroke-linecap="round"/>
<path d="M178.081 227.211L177.997 230.118C177.975 230.888 178.13 231.651 178.451 232.351L181.783 239.601C184.151 244.756 191.914 242.608 191.296 236.97L190.727 231.769C190.657 231.127 190.463 230.505 190.156 229.936L187.478 224.98C185.048 220.48 178.229 222.1 178.081 227.211Z" fill="white" stroke="black"/>
<path d="M177.761 324.008L186.445 325.394C185.308 326.671 185.458 328.636 186.776 329.726L187.679 330.472L193.172 330.268C195.147 330.194 197.072 329.631 198.774 328.628L200.32 327.717C201.007 327.312 201.58 326.74 201.984 326.053C202.969 324.381 202.826 322.276 201.623 320.753L200.449 319.268L190.87 317.256C189.78 317.027 188.667 316.929 187.554 316.964L179.776 317.207C179.206 317.225 178.644 317.352 178.121 317.58L176.811 318.153C174.654 319.097 174.35 322.033 176.269 323.398C176.713 323.713 177.223 323.922 177.761 324.008Z" fill="black" stroke="white"/>
<path d="M140.761 316.008L149.445 317.394C148.308 318.671 148.458 320.636 149.776 321.726L150.679 322.472L156.172 322.268C158.147 322.194 160.072 321.631 161.774 320.628L163.32 319.717C164.007 319.312 164.58 318.74 164.984 318.053C165.969 316.381 165.826 314.276 164.623 312.753L163.449 311.268L153.87 309.256C152.78 309.027 151.667 308.929 150.554 308.964L142.776 309.207C142.206 309.225 141.644 309.352 141.121 309.58L139.811 310.153C137.654 311.097 137.35 314.033 139.269 315.398C139.713 315.713 140.223 315.922 140.761 316.008Z" fill="black" stroke="white"/>
<path d="M64.0851 304.542L65.0813 319.835L75.6855 319.933L85.9674 324.16L84.9373 300.667L64.0851 304.542Z" fill="white" stroke="black"/>
<path d="M109.966 309L111.081 328.835L121.685 328.933L131.967 333.16L129.966 304.5L109.966 309Z" fill="white" stroke="black"/>
<path d="M195.783 295.849L193.849 300.769C193.332 302.086 192.371 303.182 191.134 303.868C190.023 304.484 188.748 304.738 187.486 304.594L184.164 304.214L184.323 305.426C184.814 309.148 182.281 312.595 178.583 313.238L177.293 313.462C176.962 313.52 176.626 313.554 176.29 313.563L174.131 313.624C171.576 313.695 169.185 312.369 167.894 310.163L167.555 309.584L166.912 312.043C166.23 314.651 164.393 316.805 161.925 317.89C157.362 319.896 152.044 317.729 150.183 313.105L148.678 309.364L148.36 309.561C143.022 312.866 136.022 311.317 132.576 306.068L119.755 307.995L136.711 227.54L138.093 226.672C140.614 225.088 143.486 224.149 146.455 223.936L147.105 223.889C148.855 223.764 150.613 223.956 152.295 224.455C155.785 225.491 158.761 227.795 160.639 230.914L161.793 232.832L164.752 232.024C169.353 230.767 174.219 230.858 178.77 232.285L180.191 232.73C182.677 233.51 184.966 234.817 186.9 236.563C189.014 238.47 190.647 240.848 191.669 243.505L194.597 251.124L195.717 251.252C198.826 251.607 201.444 253.738 202.424 256.71C202.788 257.812 202.908 258.98 202.776 260.133L202.319 264.124C204.73 264.709 206.8 266.249 208.053 268.39L208.782 269.635C209.418 270.721 209.886 271.897 210.172 273.122L210.237 273.398C210.969 276.538 210.628 279.833 209.267 282.756L208.154 285.147L210.07 289.364C211.052 291.523 210.902 294.029 209.669 296.056C208.641 297.747 206.954 298.94 205.017 299.348C203.151 299.742 201.2 299.379 199.602 298.337L195.783 295.849Z" fill="white" stroke="black"/>
<path d="M58.2241 210.324L51.4598 210.004C50.6798 209.967 49.898 209.995 49.1227 210.089L40.4306 211.137C39.4532 211.254 38.4911 211.475 37.56 211.795L28.7181 214.83C27.7971 215.146 26.9117 215.558 26.0761 216.058L18.9653 220.312C18.0753 220.845 17.2535 221.484 16.5179 222.215C14.1498 224.569 12.7972 227.756 12.7496 231.095L12.7481 231.2L21.8751 233.179C22.7098 233.361 23.5592 233.465 24.4129 233.491L31.9128 233.721C34.4888 233.8 37.0367 233.167 39.2758 231.891L49.75 225.92C53.0024 224.066 55.3768 220.986 56.3427 217.369L58.2241 210.324Z" fill="black" stroke="white"/>
<path d="M25.1284 249.674L23.41 250.394C17.6458 252.808 15.4261 259.818 18.7502 265.11C19.9505 267.021 21.7551 268.475 23.8771 269.243L129.033 307.277C131.157 308.046 133.471 308.116 135.638 307.478L135.99 307.374C141.226 305.832 144.327 300.45 143.034 295.147L144.532 293.841C149.851 289.205 150.167 281.045 145.223 276.011C149.266 271.734 150.497 265.516 148.388 260.022L138.565 234.435C138.204 233.494 137.922 232.524 137.722 231.536C135.808 222.08 126.822 215.781 117.28 217.206L114.089 217.682L112.551 215.072C104.754 201.845 87.1152 198.467 74.9829 207.878C66.9 203.68 56.9906 207.857 54.3535 216.576L53.1934 220.411L51.6404 220.07C43.3519 218.251 35.7279 225.112 36.6665 233.545C29.4521 232.72 23.4379 239 24.5738 246.172L25.1284 249.674Z" fill="white" stroke="black"/>
<path d="M138.248 259.622L137.153 259.002C133.758 257.08 130.847 254.407 128.643 251.187L128.437 250.886C127.214 249.099 126.25 247.15 125.572 245.094C124.819 242.809 124.428 240.42 124.415 238.014L124.401 235.583L124.367 229.521L129.279 230.894C133.8 232.157 138.074 234.177 141.92 236.867C145.209 239.167 148.148 241.931 150.645 245.073L150.966 245.477C154.15 249.484 156.63 254.002 158.299 258.84L159.781 263.136L157.023 263.449C150.518 264.187 143.946 262.847 138.248 259.622Z" fill="black" stroke="black"/>
<path d="M37.9638 243.387L38.0674 243.418C43.9216 245.189 50.187 242.385 52.7679 236.84L57.5811 239.795C62.0314 242.526 67.8634 240.337 69.417 235.352C72.9601 246.718 85.7976 252.254 96.4957 247.031L100.281 245.182C101.668 250.874 106.457 255.098 112.277 255.763L116.464 256.242C112.727 262.644 114.568 270.845 120.683 275.035L125.115 278.072C122.27 282.223 123.494 287.911 127.793 290.525L131.661 292.876L129.096 298.67C128.63 299.723 128.016 300.704 127.273 301.583C113.378 315.585 93.0597 321.095 73.9949 316.029L42.3808 307.63C39.1797 306.78 36.1344 305.425 33.3594 303.616L29.494 301.098C18.611 294.006 14.6562 279.955 20.2425 268.228L23.0673 262.298C24.3972 259.506 26.8393 257.402 29.797 256.499C33.9919 255.218 37.0277 251.571 37.5261 247.214L37.9638 243.387Z" fill="#111010" stroke="black"/>
<path d="M64.8375 327.002L56.7684 326.772C53.2862 326.673 51.7402 322.349 54.3704 320.065C54.6484 319.823 54.9598 319.623 55.295 319.471L60.3125 317.19C61.1815 316.795 62.1078 316.541 63.0568 316.437L71.4992 315.512C72.4674 315.405 73.4464 315.457 74.3981 315.665L82.6032 317.455C84.7949 317.933 86.5146 319.632 87.0193 321.818C87.507 323.931 86.7762 326.139 85.1244 327.543L82.6698 329.63C81.7887 330.379 80.7716 330.951 79.6739 331.316L74.199 333.132L69.0731 334.41C64.7323 335.492 61.703 330.194 64.8375 327.002Z" fill="black" stroke="black"/>
<path d="M111.895 337.912L104.161 338.811C100.912 339.189 98.8993 335.372 101.045 332.904C101.272 332.643 101.535 332.417 101.827 332.232L106.18 329.464C106.979 328.956 107.853 328.578 108.77 328.342L116.491 326.36C117.42 326.121 118.381 326.033 119.338 326.098L127.369 326.642C129.451 326.783 131.268 328.103 132.046 330.04C132.814 331.952 132.435 334.135 131.066 335.676L129.141 337.844C128.373 338.708 127.447 339.416 126.411 339.93L121.59 342.321L116.818 344.255C112.917 345.836 109.396 341.3 111.895 337.912Z" fill="black" stroke="black"/>
<path d="M29.6592 271C29.3066 274.082 33.4643 277.57 36.2546 278.332C39.3634 279.18 42.3374 278.935 45.3441 278.301" stroke="white" stroke-linecap="round"/>
<path d="M81.7138 284.622C81.7355 286.691 88.6107 288.715 90.2793 288.906C94.7981 289.422 97.8964 288.393 99.9619 283.956" stroke="white" stroke-linecap="round"/>
<path d="M50.9436 294.623C52.152 294.761 55.7755 294.51 56.0432 296.123C56.6205 299.602 54.146 298.45 52.801 300.139C50.5408 302.978 44.3929 293.284 52.1736 294.174" stroke="white" stroke-linecap="round"/>
<path d="M52.3391 293.089C53.0379 293.169 53.6425 293.493 54.3342 293.611C54.9773 293.721 55.8161 294 55.7282 294.768" stroke="white" stroke-linecap="round"/>
</g>
<defs>
<clipPath id="clip0_298_194">
<rect width="846" height="345" fill="white"/>
</clipPath>
</defs>
</svg>
