<svg width="899" height="487" viewBox="0 0 899 487" fill="none" xmlns="http://www.w3.org/2000/svg">
<g clip-path="url(#clip0_315_400)">
<path d="M414.956 403.41C414.995 403.834 415.022 404.234 415.037 404.611C415.052 404.988 415.051 405.362 415.033 405.733C415.015 406.104 414.954 406.469 414.852 406.827C414.749 407.186 414.61 407.573 414.436 407.989C414.164 408.577 413.829 409.107 413.429 409.581C413.029 410.055 412.576 410.469 412.07 410.821C411.564 411.174 411.025 411.452 410.452 411.657C409.879 411.861 409.289 411.995 408.682 412.057C408.076 412.12 407.467 412.1 406.855 411.997C406.244 411.895 405.639 411.71 405.04 411.442C404.869 411.363 404.702 411.277 404.538 411.183C404.373 411.089 404.209 410.986 404.044 410.873L390.897 415.705C390.375 415.897 389.844 415.981 389.304 415.957C388.765 415.934 388.242 415.805 387.737 415.571C387.224 415.333 386.785 415.013 386.421 414.61C386.057 414.207 385.786 413.757 385.61 413.26C385.433 412.764 385.35 412.242 385.359 411.695C385.368 411.149 385.491 410.619 385.728 410.106C385.959 409.608 386.272 409.175 386.667 408.808C387.063 408.44 387.524 408.156 388.049 407.957L401.197 403.125C401.246 402.94 401.303 402.759 401.367 402.581C401.431 402.403 401.505 402.225 401.587 402.047C401.859 401.459 402.194 400.928 402.594 400.454C402.994 399.98 403.447 399.567 403.953 399.214C404.459 398.862 404.999 398.583 405.572 398.379C406.144 398.174 406.734 398.041 407.341 397.978C407.947 397.916 408.556 397.936 409.168 398.038C409.78 398.141 410.385 398.326 410.983 398.593C411.384 398.779 411.739 398.979 412.046 399.193C412.353 399.407 412.637 399.652 412.898 399.926C413.16 400.2 413.405 400.481 413.633 400.767C413.862 401.053 414.099 401.379 414.345 401.746L407.918 404.108L408.529 405.772L414.956 403.41ZM405.701 410.015C406.392 410.334 407.099 410.504 407.822 410.522C408.545 410.54 409.238 410.427 409.901 410.184C410.564 409.94 411.165 409.577 411.704 409.095C412.243 408.613 412.678 408.024 413.008 407.329C413.259 406.786 413.413 406.22 413.468 405.632L407.601 407.779L405.91 403.179L411.771 401.016C411.348 400.604 410.865 400.272 410.323 400.021C409.631 399.701 408.924 399.532 408.201 399.514C407.479 399.495 406.786 399.608 406.122 399.852C405.459 400.096 404.858 400.459 404.319 400.941C403.78 401.423 403.345 402.011 403.015 402.707C402.894 402.967 402.8 403.23 402.731 403.496C402.662 403.762 402.601 404.032 402.547 404.305L388.595 409.442C388.279 409.557 387.997 409.729 387.747 409.957C387.497 410.184 387.3 410.454 387.156 410.767C387.011 411.079 386.933 411.404 386.922 411.741C386.91 412.079 386.964 412.402 387.083 412.71C387.202 413.018 387.372 413.295 387.592 413.541C387.812 413.787 388.081 413.988 388.397 414.143C388.709 414.288 389.034 414.366 389.372 414.377C389.709 414.389 390.036 414.337 390.351 414.221L404.309 409.1C404.527 409.273 404.748 409.439 404.973 409.597C405.198 409.755 405.44 409.894 405.701 410.015Z" fill="#4DFFF4"/>
</g>
<path d="M787.755 18.5911C874.291 64.41 829.832 115.142 811.827 135.6C808.344 139.557 800.517 148.152 795.645 150.162C791.913 151.702 788.204 153.025 786.181 153.713C779.915 155.844 761.425 157.796 755.101 156.558C736.737 152.963 729.862 145.373 712.615 136.249C708.848 134.256 709.076 131.794 705.431 134.733C700.536 138.679 696.167 143.312 691.303 147.355C685.35 152.303 677.901 155.504 671.523 159.692C664.249 164.47 658.232 166.335 650.096 166.335C638.067 166.335 626.861 162.698 615.325 158.648C612.173 157.542 604.914 152.011 601.747 153.713C598.823 155.285 596.099 157.157 593.113 158.648C575.527 167.431 554.762 176.855 535.904 176.855C519.318 176.855 506.065 179.054 492.215 166.335C486.172 160.786 476.007 139.589 476.007 129.418V121.921C476.007 119.02 474.814 119.67 473.574 117.461C469.762 110.668 463.831 104.497 462.036 96.2976C460.64 89.9193 460.67 76.6764 462.036 70.4816C465.266 55.8354 472.657 34.801 496.088 34.801C504.345 33.969 510.256 36.8183 518.461 37.4583C530.129 38.3685 539.017 46.1358 549.556 51.6462C552.834 53.3603 553.365 52.0928 556.615 50.1277C562.69 46.455 568.136 41.996 573.765 37.4583C599.06 17.069 629.453 18.6225 657.945 25.8328C667.628 28.2834 676.759 31.5854 685.809 36.5093C691.7 39.7146 701.671 44.1686 704.764 51.6462C704.872 51.9075 705.579 49.991 706.294 49.5109C707.442 48.7399 707.983 48.0245 708.806 46.7587C711.645 42.39 714.861 38.5035 718.264 34.801C725.15 27.3068 734.234 22.1789 742.674 17.7661C749.814 14.033 774.642 17.314 784.476 17.7249C785.598 17.7718 786.763 18.0656 787.755 18.5911Z" fill="white" fill-opacity="0.3" stroke="white" stroke-opacity="0.5" stroke-width="3" stroke-linecap="round"/>
<circle cx="10.5" cy="10.5" r="10.5" transform="matrix(-1 0 0 1 465 127)" fill="white" fill-opacity="0.3"/>
<circle cx="10.5" cy="10.5" r="10" transform="matrix(-1 0 0 1 465 127)" stroke="white" stroke-opacity="0.5"/>
<circle cx="5.5" cy="5.5" r="5.5" transform="matrix(-1 0 0 1 418 142)" fill="white" fill-opacity="0.3"/>
<circle cx="5.5" cy="5.5" r="5" transform="matrix(-1 0 0 1 418 142)" stroke="white" stroke-opacity="0.5"/>
<path d="M93.8118 209.33L75.9915 209.107C75.1275 209.097 74.5821 209.522 74.3553 210.383C74.1285 211.245 74.4451 211.843 75.3051 212.177L102.058 223.691C103.133 224.137 104.16 224.067 105.139 223.483C106.119 222.899 106.616 222.015 106.631 220.832L106.691 215.972L124.511 216.194C125.376 216.205 125.921 215.78 126.148 214.918C126.374 214.057 126.058 213.459 125.198 213.124L98.4449 201.61C97.3703 201.165 96.3432 201.234 95.3638 201.818C94.3843 202.402 93.8872 203.286 93.8724 204.47L93.8118 209.33ZM42.2539 186.003C42.2768 184.167 42.9181 182.634 44.1778 181.406C45.4375 180.177 46.9832 179.576 48.8148 179.603L152.497 180.897C154.333 180.92 155.865 181.561 157.094 182.821C158.322 184.081 158.923 185.626 158.896 187.458L158.734 200.418L165.214 200.499C167.05 200.522 168.583 201.163 169.811 202.423C171.04 203.683 171.641 205.228 171.614 207.06L171.452 220.02C171.429 221.856 170.788 223.389 169.528 224.617C168.268 225.846 166.723 226.447 164.891 226.419L158.411 226.339L158.249 239.299C158.226 241.135 157.585 242.667 156.325 243.896C155.065 245.125 153.52 245.725 151.688 245.698L48.0063 244.405C46.1703 244.382 44.638 243.74 43.4093 242.481C42.1806 241.221 41.5799 239.675 41.6071 237.844L42.2539 186.003ZM55.1333 192.644L54.6481 231.525L145.37 232.657L145.855 193.776L55.1333 192.644Z" fill="#A8FFBB"/>
<circle cx="456.5" cy="396.5" r="78" stroke="black" stroke-width="3"/>
<path d="M394.846 253.112L436.488 320.436L417.703 328.902L394.846 253.112Z" fill="black"/>
<path d="M420.389 394.342C420.58 393.484 421.068 393.686 421.69 393.686C422.998 393.25 424.217 392.749 425.666 392.749C427.02 392.749 428.212 392 429.465 392C431.38 392 433.2 392.745 434.846 393.686C436.072 394.387 437.373 395.053 438.281 396.163C438.852 396.861 439.139 397.619 439.863 398.183C440.774 398.892 441.839 399.43 442.663 400.254C443.691 401.282 444.241 402.649 444.921 403.907C445.689 405.327 446.057 407.303 445.379 408.851C444.877 410 444.399 411.167 443.891 412.317C443.476 413.257 443.539 414.5 442.819 415.273C440.799 417.442 438.632 418.585 435.835 419.541C433.672 420.279 431.681 419.855 429.562 419.404L429.517 419.395C427.354 418.935 426.734 417.415 426.093 415.419C425.171 412.55 424.688 409.795 424.688 406.759C424.688 404.229 425.059 402.301 423.189 400.431C422.32 399.562 420.046 398.867 420.004 397.433C419.971 396.317 420.152 395.407 420.389 394.342Z" stroke="black" stroke-width="2" stroke-linecap="round"/>
<path d="M431.62 400.244C429.816 400.244 429.79 402.955 430.402 404.178C431.153 405.679 432.417 410.814 434.628 410.537C436.388 410.317 436.591 407.35 436.158 406.093C435.772 404.974 435.078 403.514 434.232 402.669C433.557 401.993 432.872 401.358 432.223 400.66C431.882 400.293 431.685 399.902 431.245 399.682" stroke="black" stroke-width="2" stroke-linecap="round"/>
<path d="M479.927 373.352C479.027 373.352 478.136 373.238 477.243 373.238C475.813 373.238 475.427 373.97 474.903 375.153C474.275 376.57 473.374 377.852 472.791 379.289C472.309 380.474 471.518 381.804 470.279 382.308C468.876 382.88 468.32 383.386 468.141 384.998C467.933 386.874 468.18 388.477 469.283 390.06C470.153 391.307 471.169 392.688 470.964 394.29C470.811 395.479 470.921 396.675 470.735 397.868C470.533 399.174 470.185 400.39 469.784 401.642C469.205 403.452 468.598 405.685 469.422 407.516C470.133 409.095 472.243 410.219 473.717 410.973C474.556 411.402 475.57 411.622 476.514 411.601C477.494 411.579 478.272 410.911 479.153 410.599C481.603 409.73 483.547 411.589 485.014 413.326C486.168 414.694 487.54 416.917 489.403 417.253C494.04 418.087 499.452 418.807 503.827 416.504C504.773 416.006 505.533 415.266 506.2 414.443C506.768 413.74 507.444 412.973 507.9 412.197C508.357 411.418 508.424 410.444 508.585 409.571C508.762 408.605 508.959 407.641 509.156 406.679C509.918 402.953 512.648 400.442 516.12 399.156C517.135 398.78 517.847 397.896 518.011 396.866C518.397 394.436 519.66 392.04 519.66 389.565C519.66 388.734 519.537 388.039 519.343 387.231C519.039 385.969 518.88 384.728 518.315 383.539C517.881 382.625 516.968 381.778 516.209 381.116C515.477 380.476 514.851 379.879 513.951 379.454C512.543 378.788 510.611 378.883 509.092 378.839C507.584 378.794 506.284 379.131 504.874 379.625C504.09 379.9 503.453 380.217 502.692 379.847C501.188 379.116 499.914 377.993 498.721 376.841C496.973 375.151 495.294 373.181 494.769 370.726C494.662 370.224 494.747 369.242 494.186 369.064C493.333 368.793 492.558 368.297 491.699 368.055C490.828 367.81 489.95 367.415 489.035 367.415C488.664 367.415 488.29 367.404 487.919 367.415C487.473 367.427 487.17 367.722 486.777 367.871C485.446 368.377 484.399 369.815 483.358 370.726C482.777 371.234 482.198 371.795 481.639 372.324C481.465 372.49 480.304 373.283 481.183 372.781" stroke="black" stroke-width="3" stroke-linecap="round"/>
<path d="M487.525 367.538C486.887 367.474 486.222 366.89 486.222 366.234C486.222 365.641 486.303 365.074 486.303 364.483C486.303 364.246 485.853 364.034 485.67 363.954C485.263 363.774 484.945 363.834 484.511 363.786C483.779 363.705 483.346 363.011 483.208 362.32C483.012 361.343 483.752 359.105 482.049 359.066C481.556 359.055 481.22 359.209 480.764 359.311C480.488 359.372 480.138 359.504 479.95 359.211C479.741 358.886 479.624 358.391 479.624 358.007C479.624 357.697 479.461 357.416 479.461 357.111" stroke="black" stroke-linecap="round"/>
<path d="M478.593 353C476.216 353 476.544 356.963 479.277 356.963C480.11 356.546 480.506 355.528 480.506 354.64C480.506 353.347 479.72 353 478.593 353Z" stroke="black" stroke-linecap="round"/>
<path d="M521.453 417.934C521.548 417.725 521.475 417.224 521.5 417C522.267 417 525.229 417.045 525.591 417.859C525.968 418.707 525.368 419.678 524.801 420.182C524.189 420.726 522.717 420.177 522.099 419.939C521.558 419.731 521.385 419.35 521.385 418.815C521.385 418.532 521.334 418.198 521.453 417.934Z" stroke="black" stroke-linecap="round"/>
<path d="M479.566 411C478.189 411 477.361 411.811 477.136 413.186C477.067 413.613 476.943 414.514 477.273 414.857C477.824 415.429 478.331 416.052 478.89 416.61C481.179 418.9 477.478 420.473 476.423 422.312C476.031 422.995 475.876 423.446 475.876 424.225C475.876 424.889 476.258 425.204 476.559 425.759C477.267 427.062 477.39 428.088 475.937 428.902C474.785 429.547 472.872 429.052 471.921 430.002C471.064 430.859 470.666 432.139 470 433.138" stroke="black" stroke-linecap="round"/>
<path d="M468.251 433.034C468.555 432.967 470.679 432.963 470.729 433.36C471.184 433.664 471.758 433.726 472.039 434.257C472.319 434.785 472.145 435.683 472.145 436.276C472.145 436.813 471.688 437.485 471.432 437.946C471.059 438.618 470.111 438.562 469.481 438.425C467.558 438.007 466.51 436.437 467.226 434.469C467.359 434.104 467.821 433.13 468.251 433.034Z" stroke="black" stroke-linecap="round"/>
<path d="M505.127 378.121C503.97 378.121 503.273 376.996 503.045 375.995C502.751 374.712 503.822 373.991 504.591 373.161C505.411 372.274 505.578 371.152 505.514 370.005C505.486 369.507 504.083 368.396 503.678 368.072C502.78 367.354 504.742 365.622 505.031 365.174C505.64 364.226 506.307 363.024 506.469 361.889C506.656 360.583 505.765 360.85 505.127 360.053C504.732 359.559 505.748 358.204 506.287 358.024" stroke="black" stroke-linecap="round"/>
<path d="M509.431 358.092C509.061 358.461 506.531 358.471 506.253 357.984C505.1 355.967 506.968 353.902 509.118 354.782C509.599 354.979 509.94 355.212 510 355.483C510.135 356.091 509.88 357.642 509.431 358.092Z" stroke="black" stroke-linecap="round"/>
<path d="M482.569 379.917C480.405 379.917 479.821 380.299 479.821 382.589C479.821 385.536 480.445 387.725 481.71 390.395C482.537 392.141 483.988 393.55 484.802 395.358C485.499 396.907 486.516 398.501 487.57 399.843C489.333 402.087 492.148 402.861 493.143 399.767C494.679 394.987 493.107 389.425 489.612 385.929C487.335 383.652 485.858 379.573 482.225 379.573" stroke="black" stroke-width="3" stroke-linecap="round"/>
<path d="M467.913 382.76C466.253 382.76 464.894 381.494 463.199 381.494C462.298 381.494 461.575 381.81 460.701 381.81C458.138 381.81 458.943 379.313 457.148 378.257C455.471 377.27 455.095 377.705 453.911 378.89C453.041 379.759 452.227 380.744 451.29 381.494C449.551 382.884 449.248 381.191 448.932 379.453C448.642 377.858 447.809 377.061 446.223 377.061C444.547 377.061 444.778 379.295 444.165 380.368C443.239 381.988 440.444 380.147 440.049 378.96" stroke="black" stroke-linecap="round"/>
<path d="M436.319 378.96C435.839 378.053 435.886 375 437 375C437.641 373.078 439.429 373.617 440.506 375.002C441.518 376.303 440.255 377.588 439.732 378.503C439.305 379.25 436.818 379.902 436.319 378.96Z" stroke="black" stroke-linecap="round"/>
<path d="M511.409 403.1C511.571 402.454 513.517 402.486 513.596 403.237C513.706 404.282 514.142 405.326 514.142 406.387C514.142 407.736 514.634 408.019 515.919 408.019C516.918 408.019 517.548 408.263 517.9 409.249C518.237 410.192 517.832 411.364 517.832 412.324C517.832 413.326 518.807 413.212 519.578 413.212C520.471 413.212 521.248 413.088 521.248 414.237C521.248 414.762 521.039 416.146 521.385 416.492" stroke="black" stroke-linecap="round"/>
<path d="M490.029 98.8297C490.029 97.854 489.793 97.1333 490.663 96.5843C491.56 96.0178 492.886 95.5247 493.492 96.6067C493.841 97.231 493.95 99.4924 494.691 98.0213C495.261 96.89 495.221 96.4046 496.751 96.4046C497.933 96.4046 498.706 100.522 499.602 101.412C499.743 101.551 500.085 99.402 500.123 99.144C500.313 97.8642 500.523 96.6298 500.824 95.3717C500.939 94.8957 501.829 91.1044 502.047 91.6219C503.69 95.5342 502.706 100.207 503.45 104.264C503.581 104.982 506.03 100.535 506.482 99.638C507.007 98.5964 507.369 97.6438 507.953 96.6292C508.35 95.941 509.879 98.6588 510.171 99.0318C511.3 100.472 511.046 101.087 511.801 98.6276C511.884 98.3573 513.768 93.7357 514.064 94.249C515.044 95.9511 514.927 97.8284 515.49 99.6156C516.049 101.391 515.759 101.399 517.006 99.638C518.502 97.5264 519.455 95.2316 520.401 92.8569C520.843 91.7478 521.112 89.6928 522.619 90.836C524.309 92.118 525.167 94.3639 526.285 96.0903C527.138 97.407 528.125 98.8851 528.639 100.357C529.281 102.196 529.47 98.3174 529.544 97.6172C529.682 96.3153 533.782 98.8379 534.251 99.2339C535.812 100.55 535.547 97.9864 535.745 96.6292C536.293 92.8776 537.261 87.7378 539.004 84.2794C539.259 83.7727 539.671 86.2054 539.728 86.5023C539.968 87.7482 540.499 88.9786 540.543 90.2522C540.612 92.2228 541.71 94.0247 541.765 96.0005C541.845 98.8585 542.694 101.269 543.712 103.994C544.644 106.492 544.743 102.771 544.934 101.659C545.193 100.144 545.504 97.5021 546.337 96.1801C546.551 95.8402 548.086 100.609 549.913 97.4375C551.394 94.8653 551.916 98.7175 552.583 100.042C553.164 101.195 553.371 102.269 554.643 101.008C557.23 98.4409 558.932 95.6215 560.889 92.5874C561.97 90.9117 562.948 88.311 562.948 91.7791C562.948 93.7251 562.948 95.6711 562.948 97.6172C562.948 99.469 564.034 97.8325 564.759 96.7863C565.504 95.7112 566.185 94.5055 566.818 93.3733C567.641 91.9052 567.258 97.9438 568.878 98.403C570.352 98.8208 572.7 95.3806 573.314 94.3838C573.603 93.9141 575.577 90.3236 575.577 91.9812C575.577 93.6839 575.749 97.1163 576.595 98.6276C576.966 99.29 577.074 100.896 577.184 101.659C577.201 101.778 577.244 103.048 577.297 103.006C578.094 102.374 578.524 101.474 579.062 100.648C581.037 97.6206 584.286 94.7943 585.354 91.3524C586.206 88.6058 587.981 85.3981 589.427 82.8872C589.699 82.416 589.956 86.2786 590.061 86.7269C590.682 89.3649 591.317 91.9576 592.053 94.5634C592.326 95.5314 593.303 102.209 594.135 102.445C594.955 102.677 595.512 100.354 596.149 99.8626C597.114 99.1179 597.564 100.357 598.186 100.851C599.748 102.09 601.036 96.1637 602.26 95.1921C603.681 94.0637 602.969 99.1889 604.297 99.1889C604.833 99.1889 607.315 96.0469 607.669 95.5963C608.779 94.1805 610.142 92.8282 611.425 91.5545C612.744 90.2468 612.779 91.3925 613.145 92.7671C613.61 94.5068 614.655 95.6692 615.499 97.213C615.815 97.7909 616.606 100.061 617.536 99.5482C618.695 98.9096 619.491 95.8836 619.98 94.6981C620.07 94.4796 620.953 90.9258 621.293 90.9258C622.38 90.9258 622.151 93.7975 622.515 94.2939C623.16 95.1737 623.747 96.098 624.144 97.1232C624.342 97.6323 624.798 98.1372 625.072 98.6276C625.521 99.4291 625.285 97.9244 625.367 97.5273C625.84 95.2321 627.439 93.2277 628.037 90.9707C628.656 88.6383 628.945 86.0027 630.074 83.8752C630.17 83.6944 630.907 81.5586 631.296 81.9442C631.496 82.1428 631.794 84.2894 631.794 84.6836C631.794 88.0971 634.079 81.2379 634.238 82.6627C634.643 86.2746 635.478 89.9144 635.845 93.553C636 95.0924 635.868 96.6975 635.868 98.2459C635.868 99.7925 636.492 100.972 636.66 102.467C636.799 103.707 636.433 105.091 636.705 106.307C636.94 107.355 638.149 104.751 638.289 104.264C638.688 102.877 638.715 103.59 639.33 104.69C640.42 106.636 640.572 104.29 640.96 103.051C641.687 100.726 643.2 97.8533 643.2 95.3942C643.2 94.4789 643.363 92.1536 643.811 91.3524C644.339 90.4107 644.755 87.0432 645.871 86.7269C647.074 86.3859 650.191 89.094 650.533 88.5008C651.81 86.2831 652.977 92.1276 652.977 92.9916C652.977 94.5702 652.413 97.7381 654.607 97.6172C655.637 97.5604 656.218 96.7364 657.458 96.8088C658.262 96.8557 658.564 98.9548 658.771 99.5482C659.151 100.639 659.675 101.858 660.219 102.871C660.341 103.098 660.404 101.936 660.536 101.636C660.839 100.95 661.202 100.26 661.441 99.5482C662.382 96.7497 664.503 94.6586 665.515 92.0485C666.957 88.3296 668.007 84.4962 669.363 80.7316C669.737 79.6901 670.814 78.532 670.902 77.4084C671.113 74.6815 671.236 82.8743 671.626 85.5817C672.454 91.3339 675.507 96.8374 677.103 102.377C677.642 104.25 677.49 107.708 678.732 109.248C679.028 109.615 680.205 104.449 680.271 103.276C680.292 102.896 680.854 101.028 681.493 101.345C682.009 101.601 681.901 102.261 681.901 101.232C681.901 99.8041 682.493 98.4622 682.806 97.0783C683.957 91.9832 685.017 86.6716 685.159 81.4502C685.181 80.6483 685.159 77.5948 685.159 77.9024C685.159 80.1616 685.518 82.3599 685.567 84.5937C685.665 89.0651 685.567 93.549 685.567 98.0213C685.567 102.467 685.567 106.913 685.567 111.359C685.567 112.602 686.333 109.445 686.382 108.934C686.587 106.795 687.657 104.664 688.102 102.557C688.333 101.461 688.972 100.502 689.211 99.4359C689.44 98.4114 689.079 97.6043 689.641 96.6292C690.251 95.5698 692.092 96.9469 692.696 97.213C693.102 97.392 693.688 98.5063 693.714 98.0662C693.783 96.9094 693.65 95.7432 693.737 94.5858C694.177 88.688 696.158 83.1791 696.158 77.2063C696.158 74.6466 696.158 72.0868 696.158 69.527C696.158 67.5689 696.341 68.4062 696.973 69.5046C699.902 74.5891 698.882 80.8522 700.843 86.3003C701.849 89.0933 701.454 92.259 701.454 95.1921C701.454 97.89 702.269 100.409 702.269 103.051C702.269 103.934 702.269 104.817 702.269 105.701C702.269 107.707 702.545 105.59 703.491 104.982C705.782 103.511 705.421 107.023 707.157 108.036C708.34 108.726 707.774 107.91 708.787 107.407C709.23 107.188 709.297 109.34 709.511 109.742C710.081 110.81 711.231 114.157 711.231 111.449C711.231 108.799 711.983 106.075 712.544 103.5C713.043 101.207 712.861 98.8347 712.861 96.4944C712.861 94.5334 712.861 92.5725 712.861 90.6115C712.861 89.3807 712.469 87.4361 712.951 86.3003C713.743 84.4336 712.489 78.4051 713.359 80.2376C715.004 83.7078 716.212 87.4276 717.432 91.0605C717.929 92.5378 718.971 93.7365 718.971 95.3717C718.971 96.6276 719.185 97.6404 719.356 98.8297C719.695 101.181 719.21 104.591 720.397 106.711C721.091 107.95 721.008 109.776 721.008 111.157C721.008 112.837 721.415 114.357 721.415 115.985C721.415 116.637 721.823 117.188 721.823 117.826C721.823 118.404 721.397 117.321 721.438 116.995C721.9 113.33 718.562 103.043 719.425 99.4359C721.69 89.9629 723.232 81.4214 723.232 71.75C723.232 70.8293 725.132 73.2242 725.132 74.1448C725.132 75.2812 726.931 76.847 727.141 77.9922C727.221 78.4251 728.131 80.4591 728.341 79.9906C728.9 78.7425 729.287 70.1247 729.585 71.4581C731.511 80.0529 727.459 90.5322 731.26 98.8297C732.375 104.488 734.723 114.518 734.723 120.049C734.723 124.974 736.488 109.413 736.488 104.488C736.488 99.867 736.016 94.9467 736.692 90.3869C737.098 87.6486 737.863 84.9867 738.14 82.2361C738.351 80.1404 738.462 77.6178 739.136 75.6121C739.828 73.5531 739.776 70.9218 740.154 68.7636C740.5 66.794 740.364 66.148 740.766 68.539C741.514 72.9948 741.857 77.5074 742.689 81.9442C743.095 84.1092 743.721 86.1861 743.821 88.411C743.901 90.2022 744 92.6004 744.636 94.2939C745.885 97.6244 745.45 101.689 745.45 105.207C745.45 108.396 745.682 111.447 745.858 114.592C745.937 116.006 746.294 116.91 746.763 114.997C747.476 112.086 748.007 109.123 748.392 106.15C748.846 102.649 748.709 99.1237 748.709 95.5963C748.709 93.9496 748.709 92.303 748.709 90.6564C748.709 88.2347 748.709 89.22 748.709 90.9258C748.709 94.2171 749.747 97.5664 749.931 100.851C750.011 102.272 751.705 104.179 752.964 104.892C754.08 105.525 753.612 100.554 753.801 99.391C754.116 97.4547 754.035 95.4245 754.593 93.5305C755.058 91.9527 755.861 90.5537 756.246 88.9499C756.664 87.2054 757.264 85.8691 757.264 84.0548C757.264 83.3826 757.671 81.0013 757.671 82.9546C757.671 90.3875 757.356 97.8794 758.101 105.274C758.275 106.994 758.486 108.593 758.486 110.349C758.486 112.978 759.525 105.184 760.297 102.669C760.473 102.093 760.847 98.7528 761.949 100.065C762.601 100.841 762.373 101.932 762.967 102.669C763.799 103.701 765.664 92.7519 767.222 93.1937C769.13 93.7346 767.879 101.804 769.281 95.7759C771.187 87.5846 772.744 79.6464 772.744 71.2111C772.744 70.4084 772.549 65.8005 773.061 68.786C773.697 72.4958 772.936 76.3956 773.468 80.1478C774.385 86.6156 773.892 92.9623 774.464 99.4135C774.644 101.447 775.08 103.484 775.188 105.521C775.277 107.187 776.328 108.592 776.41 110.147C776.606 113.828 778.153 107.015 778.447 106.015C779.144 103.649 779.581 101.25 780.394 98.9195C781.821 94.8282 783.364 100.081 784.06 102.153C784.339 102.984 784.82 105.487 784.965 104.623C785.461 101.673 786.492 99.0621 787.409 96.225C787.593 95.6565 788.585 91.015 789.039 91.2402C789.816 91.6256 789.793 93.7188 790.261 94.4736C790.486 94.8361 791.076 97.149 791.076 96.8088C791.076 93.4091 792.049 90.0382 792.932 86.7943C793.797 83.6134 793.753 79.484 793.927 76.1959C794.074 73.4369 794.839 76.1444 795.149 77.3186C795.873 80.0552 796.791 82.8874 797.277 85.6715C797.619 87.6309 798.335 89.4407 798.725 91.3749C799.219 93.8237 799.008 96.3874 799.54 98.8297C800.398 102.768 800.445 107.249 800.445 111.269C800.445 112.505 800.376 113.762 800.445 114.997C800.602 117.8 801.281 112.387 801.351 111.808C802.037 106.11 803.551 100.458 803.704 94.6981C803.769 92.2644 804.469 89.4887 805.017 87.1086C805.747 83.9379 806.467 81.3141 809 79.4293" stroke="black" stroke-width="3" stroke-linecap="round"/>
<path d="M384.699 154.211L384.615 157.118C384.593 157.888 384.748 158.651 385.069 159.351L388.401 166.601C390.769 171.756 398.531 169.608 397.914 163.97L397.345 158.769C397.275 158.127 397.081 157.505 396.774 156.936L394.096 151.98C391.666 147.48 384.847 149.1 384.699 154.211Z" fill="white" stroke="black"/>
<path d="M417.187 254.589L379.135 231.335L406.789 214.142L429.656 230.328L417.187 254.589Z" fill="white" stroke="black"/>
<path d="M416.668 236.617L420.703 236.575L420.638 236.088C420.179 232.604 421.047 229.074 423.069 226.2L423.396 225.735L425.837 227.129C428.368 228.574 430.281 230.896 431.214 233.657L432.024 236.052C432.448 237.306 432.692 238.614 432.748 239.937L432.907 243.656C433.006 245.98 432.525 248.292 431.507 250.383L429.258 255.001L424.335 255.712C421.454 256.128 418.515 255.592 415.967 254.185L415.507 253.931C413.322 252.725 411.578 250.854 410.527 248.591L409.671 246.747C408.568 244.371 408.92 241.573 410.578 239.544C412.074 237.714 414.305 236.642 416.668 236.617Z" fill="black" stroke="white"/>
<path d="M349.569 231.347L337.362 240.613L343.13 249.512L345.275 260.421L364.303 246.603L349.569 231.347Z" fill="white" stroke="black"/>
<path d="M255.393 225.258L243.185 234.525L248.953 243.424L251.098 254.332L270.127 240.514L255.393 225.258Z" fill="white" stroke="black"/>
<path d="M402.401 222.849L400.467 227.768C399.95 229.086 398.989 230.182 397.752 230.868C396.641 231.484 395.366 231.738 394.104 231.593L390.781 231.213L390.941 232.426C391.432 236.148 388.899 239.595 385.201 240.238L383.911 240.462C383.579 240.52 383.244 240.554 382.908 240.563L380.749 240.624C378.194 240.695 375.803 239.369 374.512 237.163L374.173 236.584L373.53 239.043C372.848 241.651 371.011 243.805 368.543 244.89C363.98 246.896 358.662 244.729 356.801 240.105L355.296 236.364L354.978 236.561C349.64 239.866 342.64 238.317 339.194 233.068L326.373 234.994L343.329 154.54L344.711 153.672C347.232 152.088 350.104 151.149 353.073 150.936L353.723 150.889C355.473 150.764 357.231 150.956 358.913 151.455C362.403 152.491 365.379 154.795 367.257 157.914L368.411 159.832L371.37 159.024C375.971 157.767 380.837 157.858 385.388 159.285L386.809 159.73C389.295 160.51 391.584 161.817 393.518 163.563C395.631 165.47 397.265 167.848 398.287 170.505L401.215 178.124L402.335 178.252C405.444 178.607 408.062 180.738 409.042 183.709C409.406 184.812 409.526 185.98 409.394 187.133L408.937 191.124C411.348 191.709 413.418 193.249 414.671 195.39L415.4 196.635C416.036 197.721 416.504 198.897 416.79 200.122L416.855 200.398C417.587 203.538 417.246 206.833 415.885 209.756L414.772 212.147L416.688 216.364C417.67 218.523 417.52 221.029 416.287 223.056C415.259 224.747 413.572 225.94 411.635 226.348C409.769 226.742 407.818 226.379 406.22 225.337L402.401 222.849Z" fill="white" stroke="black"/>
<path d="M264.842 137.324L258.078 137.004C257.298 136.967 256.516 136.995 255.741 137.089L247.048 138.137C246.071 138.254 245.109 138.475 244.178 138.795L235.336 141.83C234.415 142.146 233.53 142.558 232.694 143.058L225.583 147.312C224.693 147.845 223.871 148.484 223.136 149.215C220.768 151.569 219.415 154.756 219.368 158.095L219.366 158.2L228.493 160.179C229.328 160.36 230.177 160.465 231.031 160.491L238.531 160.721C241.107 160.8 243.655 160.167 245.894 158.891L256.368 152.92C259.62 151.066 261.995 147.986 262.961 144.369L264.842 137.324Z" fill="black" stroke="white"/>
<path d="M231.746 176.674L230.028 177.394C224.264 179.808 222.044 186.818 225.368 192.11C226.568 194.021 228.373 195.475 230.495 196.243L335.651 234.277C337.775 235.046 340.089 235.116 342.255 234.478L342.608 234.374C347.844 232.832 350.944 227.45 349.652 222.147L351.15 220.841C356.469 216.205 356.785 208.045 351.84 203.011C355.884 198.734 357.115 192.516 355.005 187.022L345.183 161.435C344.822 160.494 344.54 159.524 344.34 158.536C342.426 149.08 333.44 142.781 323.898 144.206L320.707 144.682L319.169 142.072C311.372 128.845 293.733 125.467 281.601 134.878C273.518 130.68 263.608 134.857 260.971 143.576L259.811 147.411L258.258 147.07C249.97 145.251 242.346 152.112 243.284 160.545C236.07 159.72 230.056 166 231.192 173.172L231.746 176.674Z" fill="white" stroke="black"/>
<path d="M344.866 186.622L343.771 186.002C340.376 184.08 337.465 181.406 335.261 178.187L335.055 177.886C333.832 176.099 332.868 174.15 332.19 172.094C331.436 169.809 331.046 167.42 331.033 165.014L331.019 162.583L330.985 156.521L335.897 157.894C340.418 159.157 344.692 161.177 348.538 163.867C351.827 166.167 354.766 168.931 357.263 172.073L357.584 172.477C360.768 176.484 363.248 181.002 364.917 185.84L366.399 190.136L363.641 190.449C357.136 191.186 350.564 189.847 344.866 186.622Z" fill="black" stroke="black"/>
<path d="M244.582 170.387L244.685 170.418C250.54 172.189 256.805 169.385 259.386 163.84L264.199 166.795C268.649 169.526 274.481 167.337 276.035 162.352C279.578 173.718 292.416 179.254 303.114 174.031L306.899 172.182C308.286 177.874 313.075 182.097 318.895 182.763L323.082 183.242C319.345 189.644 321.186 197.845 327.301 202.035L331.733 205.072C328.888 209.223 330.112 214.911 334.411 217.525L338.279 219.876L335.714 225.67C335.248 226.723 334.634 227.704 333.89 228.583C319.996 242.585 299.678 248.095 280.613 243.029L248.999 234.63C245.798 233.78 242.752 232.425 239.977 230.616L236.112 228.098C225.229 221.006 221.274 206.955 226.86 195.228L229.685 189.298C231.015 186.506 233.457 184.402 236.415 183.499C240.61 182.218 243.646 178.571 244.144 174.214L244.582 170.387Z" fill="#111010" stroke="black"/>
<path d="M325.757 244.617L321.327 242.42C316.789 240.169 311.768 244.461 313.286 249.294C313.434 249.764 313.641 250.213 313.903 250.629L317.552 256.438C318.132 257.361 318.874 258.171 319.744 258.829L326.553 263.979C327.664 264.82 328.955 265.391 330.325 265.647L334.952 266.514C338.834 267.241 342.722 265.278 344.442 261.723C345.424 259.694 345.585 257.364 344.891 255.219L342.894 249.042C342.562 248.015 342.048 247.056 341.376 246.211L336.883 240.558L335.627 239.228C331.523 234.885 324.322 238.815 325.757 244.617Z" fill="black" stroke="black"/>
<path d="M233.682 234.542L229.252 232.344C224.714 230.094 219.694 234.386 221.212 239.219C221.359 239.688 221.566 240.137 221.828 240.554L225.477 246.363C226.057 247.286 226.8 248.096 227.669 248.753L234.478 253.904C235.589 254.744 236.881 255.316 238.25 255.572L242.877 256.439C246.76 257.166 250.648 255.203 252.368 251.648C253.349 249.618 253.51 247.288 252.816 245.144L250.819 238.966C250.487 237.939 249.973 236.981 249.301 236.136L244.809 230.483L243.553 229.153C239.448 224.809 232.248 228.74 233.682 234.542Z" fill="black" stroke="black"/>
<path d="M236.277 198C235.925 201.082 240.082 204.57 242.873 205.332C245.981 206.18 248.955 205.935 251.962 205.301" stroke="white" stroke-linecap="round"/>
<path d="M288.332 211.622C288.353 213.691 295.229 215.715 296.897 215.906C301.416 216.422 304.514 215.393 306.58 210.956" stroke="white" stroke-linecap="round"/>
<path d="M257.562 221.623C258.77 221.761 262.393 221.51 262.661 223.123C263.238 226.602 260.764 225.45 259.419 227.139C257.159 229.978 251.011 220.284 258.791 221.174" stroke="white" stroke-linecap="round"/>
<path d="M258.957 220.089C259.656 220.169 260.26 220.493 260.952 220.611C261.595 220.721 262.434 221 262.346 221.768" stroke="white" stroke-linecap="round"/>
<defs>
<clipPath id="clip0_315_400">
<rect width="25.1674" height="25.1674" fill="white" transform="translate(394.565 391) rotate(24.8202)"/>
</clipPath>
</defs>
</svg>
