<svg width="335" height="210" viewBox="0 0 335 210" fill="none" xmlns="http://www.w3.org/2000/svg">
<path d="M62.3144 153.981L64.9289 144.261C65.128 143.521 65.1544 142.744 65.0061 141.991L61.0362 121.83C59.9381 116.254 51.8901 116.508 51.1795 122.142L49.0646 138.909C48.984 139.548 49.0274 140.197 49.1923 140.82L52.6626 153.933C53.9743 158.889 60.9848 158.924 62.3144 153.981Z" fill="white" stroke="black"/>
<path d="M25.2476 61.004L72.1834 53.8639L77.0035 78.9828L42.7643 92.36L25.2476 61.004Z" fill="white" stroke="black"/>
<path d="M45.2868 73.4907L42.4072 77.971L44.5141 79.0027C47.6738 80.5499 50.14 83.2358 51.4213 86.5253L52.3136 88.8162L48.4599 90.7739C45.413 92.3217 41.9048 92.6916 38.5997 91.8136L37.9959 91.6531L34.1907 90.6422C32.9111 90.3023 31.6857 89.7814 30.5512 89.0951L24.8929 85.6726C22.8991 84.4666 21.2354 82.78 20.0526 80.7656L16.0678 73.9793L19.3661 66.9489C20.6602 64.1904 22.8144 61.9331 25.5022 60.5189L27.6073 59.4113C30.2308 58.0309 33.2249 57.5264 36.1564 57.9706L39.2519 58.4398C42.6527 58.9552 45.4634 61.3822 46.4841 64.6846C47.4025 67.6561 46.964 70.8812 45.2868 73.4907Z" fill="black" stroke="white"/>
<path d="M276.554 56.0813L291.075 73.4001L282.236 86.7828L277.816 104.102L255.088 78.1234L276.554 56.0813Z" fill="white" stroke="black"/>
<path d="M303.605 74.6799L303.452 75.1917L306.916 73.6321C314.148 70.3758 321.749 77.3908 319.086 84.8631L318.951 85.2416C318.721 85.8869 318.418 86.5039 318.048 87.0804L311.926 96.6216C311.333 97.5467 310.575 98.3553 309.69 99.0072L299.167 106.76C297.84 107.738 296.27 108.332 294.629 108.478L286.903 109.167C282.588 109.551 278.612 106.806 277.441 102.634L275.825 96.8772C275.315 95.0617 275.389 93.1318 276.035 91.3602L280.847 78.1588C281.183 77.2366 281.668 76.3756 282.282 75.6099L289.562 66.5323C295.615 60.1772 306.115 66.2693 303.605 74.6799Z" fill="black" stroke="black"/>
<path d="M53.7528 84.5216L54.3498 77.5633C54.5086 75.7135 55.3044 73.9755 56.6012 72.6468C57.7706 71.4485 59.2852 70.6471 60.9319 70.3551L65.2389 69.5914L63.7148 66.1549C62.1955 62.7293 63.6423 58.7091 66.9967 57.0354L70.5653 55.2548C70.8677 55.1039 71.1806 54.9752 71.5015 54.8695L75.5557 53.5346C77.99 52.7331 80.665 53.3271 82.5291 55.0831L84.1126 56.5747L84.0025 53.1857C83.888 49.6573 85.3879 46.2669 88.0759 43.9781C93.0664 39.7287 100.575 40.4665 104.631 45.6047L107.923 49.7742L108.24 49.4165C113.716 43.2384 123.111 42.5654 129.392 47.9015L144.79 40.6584L153.479 148.713L152.057 150.339C149.485 153.279 146.229 155.54 142.578 156.921L141.781 157.223C139.625 158.039 137.339 158.457 135.035 158.456C130.266 158.456 125.674 156.665 122.163 153.439L119.978 151.43L116.561 153.56C111.246 156.874 105.093 158.585 98.8369 158.487L96.9076 158.457C93.4804 158.404 90.1065 157.608 87.0179 156.124C83.6565 154.509 80.7238 152.123 78.4578 149.159L71.922 140.61L70.5016 140.862C66.4412 141.582 62.3377 139.869 59.9949 136.476C59.1307 135.225 58.5472 133.801 58.2842 132.301L57.3677 127.074C54.1194 127.238 50.9465 126.071 48.5797 123.841L47.1828 122.525C45.9827 121.395 44.9592 120.09 44.1466 118.655L43.9548 118.316C41.8641 114.623 41.0654 110.335 41.6852 106.132L42.1931 102.688L38.2061 98.0702C36.1697 95.7114 35.4288 92.4867 36.2207 89.4674C36.8811 86.9495 38.554 84.8066 40.8387 83.5625C43.0418 82.3629 45.6304 82.0921 48.0307 82.81L53.7528 84.5216Z" fill="white" stroke="black"/>
<path d="M231.215 154.526L239.508 158.627C240.21 158.974 240.941 159.262 241.691 159.487L253.478 163.02C254.423 163.304 255.394 163.486 256.377 163.564L269.508 164.61C270.478 164.687 271.454 164.662 272.419 164.536L283.983 163.022C285.107 162.875 286.209 162.591 287.264 162.176L288.661 161.627C292.048 160.296 294.779 157.688 296.273 154.36L296.809 153.165L286.545 145.745C285.85 145.242 285.11 144.804 284.336 144.437L273.976 139.527C271.64 138.421 269.047 137.983 266.484 138.264L247.719 140.317C244.012 140.722 240.624 142.6 238.312 145.531L231.215 154.526Z" fill="black" stroke="white"/>
<path d="M125.685 51.5453L107.289 59.6761L111.924 72.8582L111.327 87.5033L139.811 75.6328L125.685 51.5453Z" fill="white" stroke="black"/>
<path d="M91.2691 61.2432L86.3409 57.1061C81.223 52.8098 73.4811 56.7457 73.9402 63.4105C73.9848 64.0569 74.1118 64.6952 74.3181 65.3097L77.3615 74.3722C77.7093 75.4079 78.242 76.3722 78.9335 77.2182L86.784 86.8219C87.6708 87.9067 88.7972 88.7703 90.0737 89.3442L98.0215 92.9168C101.734 94.5855 106.094 93.5557 108.658 90.4046L110.519 88.1174C111.973 86.3297 112.685 84.0484 112.507 81.7448L111.728 71.6626C111.645 70.5872 111.369 69.5348 110.915 68.5557L106.697 59.4578L105.533 57.4237C101.624 50.5861 91.2131 53.3737 91.2691 61.2432Z" fill="black" stroke="black"/>
<path d="M277.816 115.95L280.064 115.003C287.638 111.813 290.552 102.598 286.193 95.6202C284.61 93.0868 282.225 91.1557 279.419 90.135L141.614 40.0129C138.809 38.9929 135.753 38.8993 132.894 39.7459L132.51 39.8596C125.611 41.9024 121.529 48.9965 123.226 55.9949L121.251 57.7254C114.271 63.8444 113.862 74.5766 120.356 81.2257C115.05 86.8691 113.437 95.0525 116.203 102.297L129.088 136.052C129.559 137.286 129.927 138.557 130.188 139.852C132.697 152.316 144.543 160.628 157.107 158.741L161.176 158.13L163.209 161.598C173.405 178.992 196.572 183.442 212.45 171.056C223.037 176.586 236.029 171.12 239.468 159.689L241.019 154.532L242.942 154.956C253.868 157.368 263.919 148.337 262.688 137.215C272.153 138.303 280.041 130.075 278.558 120.661L277.816 115.95Z" fill="white" stroke="black"/>
<path d="M113.266 104.079L114.884 104.164C120.004 104.433 124.992 105.874 129.467 108.377L129.873 108.604C132.357 109.994 134.633 111.728 136.633 113.755C138.854 116.006 140.709 118.591 142.132 121.418L143.574 124.283L147.163 131.415L139.85 132.832C134.301 133.908 128.614 134.031 123.028 133.198L121.61 132.986C116.843 132.274 112.204 130.873 107.84 128.827L105.16 127.57C100.042 125.17 95.37 121.915 91.3426 117.944L85.935 112.611L88.9737 110.627C96.1812 105.922 104.687 103.629 113.266 104.079Z" fill="black" stroke="black"/>
<path d="M261.567 119.143L260.987 124.239C253.28 121.895 244.959 125.564 241.577 132.87L235.315 129.005C229.463 125.393 221.782 128.268 219.748 134.833C215.109 119.871 198.211 112.577 184.164 119.473L179.281 121.871C177.462 114.37 171.156 108.796 163.491 107.914L158.062 107.29C162.968 98.8395 160.536 88.0282 152.483 82.4786L146.72 78.5072C150.454 73.0273 148.837 65.5307 143.174 62.0681L138.137 58.9885L141.501 51.3475C142.111 49.9608 142.916 48.6682 143.891 47.5088C162.099 29.0571 188.812 21.8004 213.876 28.4968L255.145 39.5225C259.375 40.6528 263.399 42.4525 267.063 44.8533L272.027 48.1061C286.347 57.4898 291.56 75.997 284.237 91.4558L280.51 99.3225C278.772 102.993 275.571 105.761 271.689 106.953C266.19 108.641 262.217 113.426 261.567 119.143Z" fill="#111010" stroke="black"/>
<path d="M271.875 87.8315C272.338 83.7675 266.886 79.1694 263.228 78.165C259.152 77.0459 255.252 77.3699 251.31 78.2061" stroke="white" stroke-linecap="round"/>
<path d="M203.624 69.8716C203.596 67.1439 194.582 64.4754 192.394 64.2238C186.469 63.5424 182.407 64.8991 179.699 70.75" stroke="white" stroke-linecap="round"/>
<path d="M243.968 56.6857C242.384 56.5035 237.633 56.8346 237.282 54.7081C236.525 50.1207 239.77 51.6398 241.533 49.4128C244.497 45.6706 252.557 58.4505 242.356 57.2773" stroke="white" stroke-linecap="round"/>
<path d="M242.139 58.7078C241.223 58.6024 240.43 58.1759 239.523 58.0199C238.68 57.8749 237.58 57.507 237.695 56.4938" stroke="white" stroke-linecap="round"/>
</svg>
